{
.appVersion = "3436";
.formatVersion = 3;
axes = (
{
name = Weight;
tag = wght;
}
);
classes = (
{
code = "zero-ar
one-ar
two-ar
three-ar
four-ar
five-ar
six-ar
seven-ar
eight-ar
nine-ar
zeroFarsi-ar
oneFarsi-ar
twoFarsi-ar
threeFarsi-ar
fourFarsi-ar
fiveFarsi-ar
sixFarsi-ar
sevenFarsi-ar
eightFarsi-ar
nineFarsi-ar
fourFarsi-ar.urdu
sevenFarsi-ar.urdu";
name = ArabicDigits;
},
{
code = "zero-ar.EoA
one-ar.EoA
two-ar.EoA
three-ar.EoA
four-ar.EoA
five-ar.EoA
six-ar.EoA
seven-ar.EoA
eight-ar.EoA
nine-ar.EoA
zeroFarsi-ar.EoA
one-ar.EoA
two-ar.EoA
three-ar.EoA
fourFarsi-ar.EoA
fiveFarsi-ar.EoA
sixFarsi-ar.EoA
seven-ar.EoA
eight-ar.EoA
nine-ar.EoA
four-ar.EoA
seven-ar.EoA";
name = ArabicDigits.EoA;
},
{
code = "zero-ar.s
one-ar.s
two-ar.s
three-ar.s
four-ar.s
five-ar.s
six-ar.s
seven-ar.s
eight-ar.s
nine-ar.s
zeroFarsi-ar.s
one-ar.s
two-ar.s
three-ar.s
fourFarsi-ar.s
fiveFarsi-ar.s
sixFarsi-ar.s
seven-ar.s
eight-ar.s
nine-ar.s
fourFarsi-ar.urdu.s
sevenFarsi-ar.urdu.s";
name = ArabicDigits.s;
},
{
code = "behDotless-ar.init behDotless-ar.init.Extended_1 behDotless-ar.init.Extended_2 behDotless-ar.init.Extended_3";
name = BEH.init;
},
{
code = "wavyhamzabelow-ar alefbelow-ar hamzabelow-ar hamzabelowKasra-ar hamzabelowKasratan-ar vbelow-ar vinvertedbelow-ar kasratan-ar kasra-ar";
name = "belowMarks-ar";
},
{
code = "hamzabelow-ar wavyhamzabelow-ar";
name = hamzabelow;
},
{
code = "dotbelow-ar twodotshorizontalbelow-ar threedotsdownbelow-ar";
name = BelowDots;
},
{
code = "twodotshorizontalbelow-ar threedotsdownbelow-ar";
name = BelowDots.wide;
},
{
code = "dotbelow-ar";
name = BelowDots.narrow;
},
{
code = "twodotshorizontalbelow-ar.ss01 threedotsdownbelow-ar.ss01";
name = BelowDots.wide.ss01;
},
{
code = "twodotshorizontalbelow-ar.ss02 threedotsdownbelow-ar.ss02";
name = BelowDots.wide.ss02;
},
{
code = "twodotshorizontalbelow-ar.ss03 threedotsdownbelow-ar.ss03";
name = BelowDots.wide.ss03;
}
);
customParameters = (
{
name = "meta Table";
value = (
{
data = "Arab, Latn";

glyphs = (
{
color = 3;
glyphname = A;
kernLeft = A;
kernRight = A;
lastChange = "2026-01-27 21:09:20 +0000";
layers = (
{
anchors = (
{
name = bottom;
pos = (293,0);
},
{
name = bottom.alt;
pos = (558,0);
},
{
name = top;
pos = (293,650);
}
);
layerId = "AE3FEF6D-3AA7-4252-B349-D2606A6A3B4C";
shapes = (
{
closed = 1;
nodes = (
(43,0,l),
(123,201,l),
(463,201,l),
(543,0,l),
(575,0,l),
(316,650,l),
(271,650,l),
(11,0,l)
);
},
{
closed = 1;
nodes = (
(291,631,l),
(296,631,l),
(453,228,l),
(132,228,l)
);
}
);
vertWidth = 0;
width = 586;
},
{
anchors = (
{
name = bottom;
pos = (355,0);
},
{
name = bottom.alt;
pos = (637,23);
},
{
name = top;
pos = (355,662);
}
);
layerId = "3FD7D777-D61F-402B-A269-3A472D550581";
shapes = (
{
closed = 1;
nodes = (
(186,0,l),
(237,140,l),
(475,140,l),
(524,0,l),
(740,0,l),
(464,662,l),
(247,662,l),
(-30,0,l)
);
},
{
closed = 1;
nodes = (
(354,462,l),
(359,462,l),
(426,269,l),
(286,269,l)
);
}
);
vertWidth = 0;
width = 710;
}
);
unicode = 65;
},
{
glyphname = AA;
kernLeft = A;
kernRight = Agrave;
lastChange = "2026-01-27 21:10:07 +0000";
layers = (
{
background = {
shapes = (
{
alignment = -1;
attr = {
identifier = 0E114AF1;
};
pos = (533,0);
ref = A;
userData = {
UFO.identifier = 02864D95;
UFO.lib = {
};
};
},
{
alignment = -1;
attr = {
identifier = 52A81CB2;
};
pos = (1,0);
ref = A;
userData = {
UFO.identifier = E8936CC3;
UFO.lib = {
};
};
}
);
};
layerId = "AE3FEF6D-3AA7-4252-B349-D2606A6A3B4C";
shapes = (
{
closed = 1;
nodes = (
(575,0,l),
(655,201,l),
(995,201,l),
(1075,0,l),
(1107,0,l),
(848,650,l),
(803,650,l),
(559,40,l),
(316,650,l),
(271,650,l),
(11,0,l),
(43,0,l),
(123,201,l),
(463,201,l),
(543,0,l)
);
},
{
closed = 1;
nodes = (
(823,631,l),
(828,631,l),
(985,228,l),
(664,228,l)
);
},
{
closed = 1;
nodes = (
(291,631,l),
(296,631,l),
(453,228,l),
(132,228,l)
);
}
);
width = 1118;
},
{
background = {
shapes = (
{
alignment = -1;
pos = (571,0);
ref = A;
userData = {
UFO.identifier = 850782C4;
UFO.lib = {
};
};
},
{
alignment = -1;
pos = (1,0);
ref = A;
userData = {
UFO.identifier = 1B0B2F2B;
UFO.lib = {
};
};
}
);
};
layerId = "3FD7D777-D61F-402B-A269-3A472D550581";
shapes = (
{
closed = 1;
nodes = (
(756,0,l),
(807,140,l),
(1045,140,l),
(1094,0,l),
(1310,0,l),
(1034,662,l),
(817,662,l),
(640,239,l),
(464,662,l),
(247,662,l),
(-30,0,l),
(186,0,l),
(237,140,l),
(475,140,l),
(524,0,l)
);
},
{
closed = 1;
nodes = (
(924,462,l),
(929,462,l),
(996,269,l),
(856,269,l)
);
},
{
closed = 1;
nodes = (
(354,462,l),
(359,462,l),
(426,269,l),
(286,269,l)
);
}
);
width = 1280;
}
);
metricLeft = A;
metricRight = A;
unicode = 42802;
},
{
glyphname = AVhorizontalbar;
kernLeft = A;
kernRight = Wcircumflex;
lastChange = "2026-01-28 16:25:16 +0000";
layers = (
{
background = {
shapes = (
{
pos = (1,0);
ref = A;
}
);
};
layerId = "AE3FEF6D-3AA7-4252-B349-D2606A6A3B4C";
shapes = (
{
closed = 1;
nodes = (
(44,0,l),
(123,201,l),
(464,201,l),
(543,0,l),
(591,0,l),
(851,650,l),
(818,650,l),
(739,449,l),
(396,449,l),
(316,650,l),
(271,650,l),
(11,0,l)
);
},
{
closed = 1;
nodes = (
(291,631,l),
(296,631,l),
(453,228,l),
(132,228,l)
);
},
{
closed = 1;
nodes = (
(728,422,l),
(569,20,l),
(567,20,l),
(407,422,l)
);
}
);
vertWidth = 0;
width = 862;
},
{
background = {
shapes = (
{
pos = (1,0);
ref = A;
},
{
pos = (293,0);
ref = V;
}
);
};
layerId = "3FD7D777-D61F-402B-A269-3A472D550581";
shapes = (
{
closed = 1;
nodes = (
(186,0,l),
(237,140,l),
(475,140,l),
(524,0,l),
(755,0,l),
(1034,662,l),
(817,662,l),
(767,523,l),
(519,523,l),
(465,662,l),
(247,662,l),
(-30,0,l)
);
},
{
closed = 1;
nodes = (
(354,462,l),
(359,462,l),
(426,269,l),
(287,269,l)
);
},
{
closed = 1;
nodes = (
(720,394,l),
(650,199,l),
(645,199,l),
(569,394,l)
);
}
);
vertWidth = 0;
width = 1004;
}
);
metricLeft = A;
metricRight = V;
unicode = 42810;
},
{
glyphname = AY;
kernLeft = A;
kernRight = Yacute;
lastChange = "2026-01-28 16:25:16 +0000";
layers = (
{
layerId = "AE3FEF6D-3AA7-4252-B349-D2606A6A3B4C";
shapes = (
{
closed = 1;
nodes = (
(497,-234,l),
(851,650,l),
(818,650,l),
(569,20,l),
(567,20,l),
(316,650,l),
(271,650,l),
(11,0,l),
(44,0,l),
(123,201,l),
(464,201,l),
(552,-23,l),
(458,-234,l)
);
},
{
closed = 1;
nodes = (
(291,631,l),
(296,631,l),
(453,228,l),
(132,228,l)
);
}
);
vertWidth = 0;
width = 862;
},
{
layerId = "3FD7D777-D61F-402B-A269-3A472D550581";
shapes = (
{
closed = 1;
nodes = (
(664,-216,l),
(1034,662,l),
(816,662,l),
(650,199,l),
(645,199,l),
(465,662,l),
(247,662,l),
(-30,0,l),
(186,0,l),
(237,140,l),
(475,140,l),
(524,0,l),
(427,-216,l)
);
},
{
closed = 1;
nodes = (
(354,462,l),
(359,462,l),
(426,269,l),
(287,269,l)
);
}
);
vertWidth = 0;
width = 1004;
}
);
metricLeft = A;
metricRight = V;
unicode = 42812;
},
{
glyphname = Ao;
kernLeft = A;
lastChange = "2026-01-27 21:10:07 +0000";
layers = (
{
background = {
shapes = (
{
pos = (1,0);
ref = A;
}
);
};
layerId = "AE3FEF6D-3AA7-4252-B349-D2606A6A3B4C";
shapes = (
{
closed = 1;
nodes = (
(43,0,l),
(123,201,l),
(495,201,l),
(316,650,l),
(271,650,l),
(11,0,l)
);
},
{
closed = 1;
nodes = (
(291,631,l),
(296,631,l),
(453,228,l),
(132,228,l)
);
},
{
pos = (366,0);
ref = O;
}
);
vertWidth = 0;
width = 1139;
},
{
background = {
shapes = (
{
pos = (1,0);
ref = A;
}
);
};
layerId = "3FD7D777-D61F-402B-A269-3A472D550581";
shapes = (
{
closed = 1;
nodes = (
(186,0,l),
(237,140,l),
(682,140,l),
(464,662,l),
(247,662,l),
(-30,0,l)
);
},
{
closed = 1;
nodes = (
(354,462,l),
(359,462,l),
(426,269,l),
(286,269,l)
);
},
{
pos = (412,0);
ref = O;
}
);
vertWidth = 0;
width = 1149;
}
);
metricLeft = A;
metricRight = O;
unicode = 42804;
},
{
glyphname = Au;
kernLeft = A;
lastChange = "2026-01-27 21:10:07 +0000";
layers = (
{
layerId = "AE3FEF6D-3AA7-4252-B349-D2606A6A3B4C";
shapes = (
{
closed = 1;
nodes = (
(718,0,o),
(817,84,o),
(817,229,cs),
(817,650,l),
(785,650,l),
(785,229,ls),
(785,98,o),
(698,24,o),
(569,24,cs),
(547,24,l),
(569,0,l)
);
},
{
ref = A;
}
);
vertWidth = 0;
width = 935;
},
{
layerId = "3FD7D777-D61F-402B-A269-3A472D550581";
shapes = (
{
closed = 1;
nodes = (
(949,0,o),
(1060,105,o),
(1060,277,cs),
(1060,662,l),
(857,662,l),
(857,277,ls),
(857,209,o),
(833,153,o),
(730,153,cs),
(653,153,l),
(730,0,l)
);
},
{
ref = A;
}
);
vertWidth = 0;
width = 1104;
}
);
metricLeft = A;
metricRight = J;
unicode = 42806;
},
{
glyphname = Av;
kernLeft = A;
kernRight = Wcircumflex;
lastChange = "2026-01-28 16:25:16 +0000";
layers = (
{
background = {
shapes = (
{
pos = (1,0);
ref = A;
}
);
};
layerId = "AE3FEF6D-3AA7-4252-B349-D2606A6A3B4C";
shapes = (
{
closed = 1;
nodes = (
(44,0,l),
(123,201,l),
(464,201,l),
(543,0,l),
(591,0,l),
(851,650,l),
(818,650,l),
(569,20,l),
(567,20,l),
(316,650,l),
(271,650,l),
(11,0,l)
);
},
{
closed = 1;
nodes = (
(291,631,l),
(296,631,l),
(453,228,l),
(132,228,l)
);
}
);
vertWidth = 0;
width = 862;
},
{
background = {
shapes = (
{
pos = (1,0);
ref = A;
},
{
pos = (293,0);
ref = V;
}
);
};
layerId = "3FD7D777-D61F-402B-A269-3A472D550581";
shapes = (
{
closed = 1;
nodes = (
(186,0,l),
(237,140,l),
(475,140,l),
(524,0,l),
(755,0,l),
(1034,662,l),
(817,662,l),
(650,199,l),
(645,199,l),
(465,662,l),
(247,662,l),
(-30,0,l)
);
},
{
closed = 1;
nodes = (
(354,462,l),
(359,462,l),
(426,269,l),
(287,269,l)
);
}
);
vertWidth = 0;
width = 1004;
}
);
metricLeft = A;
metricRight = V;
unicode = 42808;
},
{
glyphname = AE;
kernLeft = A;
lastChange = "2026-01-27 21:10:07 +0000";
layers = (
{
anchors = (
{
name = bottom;
pos = (351,0);
},
{
name = top;
pos = (457,650);
}
);
layerId = "AE3FEF6D-3AA7-4252-B349-D2606A6A3B4C";
shapes = (
{
closed = 1;
nodes = (
(44,0,l),
(126,201,l),
(336,201,l),
(336,0,l),
(664,0,l),
(664,25,l),
(366,25,l),
(366,311,l),
(634,311,l),
(634,338,l),
(366,338,l),
(366,624,l),
(664,624,l),
(664,650,l),
(279,650,l),
(11,0,l)
);
},
{
closed = 1;
nodes = (
(299,624,l),
(336,624,l),
(336,228,l),
(136,228,l)
);
}
);
vertWidth = 0;
width = 709;
},
{
anchors = (
{
name = bottom;
pos = (516,0);
},
{
name = top;
pos = (584,662);
}
);
layerId = "3FD7D777-D61F-402B-A269-3A472D550581";
shapes = (
{
closed = 1;
nodes = (
(185,0,l),
(260,177,l),
(418,177,l),
(418,0,l),
(892,0,l),
(892,145,l),
(621,145,l),
(621,266,l),
(865,266,l),
(865,397,l),
(621,397,l),
(621,518,l),
(892,518,l),
(892,662,l),
(285,662,l),
(-30,0,l)
);
},
{
closed = 1;
nodes = (
(402,518,l),
(418,518,l),
(418,308,l),
(313,308,l)
);
}
);
vertWidth = 0;
width = 912;
}
);
metricLeft = A;
metricRight = E;
unicode = 198;
},
{
color = 3;
glyphname = B;
lastChange = "2026-01-27 21:09:20 +0000";
layers = (
{
anchors = (
{
name = bottom;
pos = (323,0);
},
{
name = top;
pos = (323,650);
}
);
layerId = "AE3FEF6D-3AA7-4252-B349-D2606A6A3B4C";
shapes = (
{
closed = 1;
nodes = (
(394,0,ls),
(506,0,o),
(586,64,o),
(586,169,cs),
(586,252,o),
(534,310,o),
(457,330,c),
(457,335,l),
(516,360,o),
(554,412,o),
(554,483,cs),
(554,588,o),
(474,650,o),
(361,650,cs),
(136,650,l),
(136,0,l)
);
},
{
closed = 1;
nodes = (
(167,314,l),
(394,314,ls),
(494,314,o),
(555,256,o),
(555,169,cs),
(555,82,o),
(494,25,o),
(394,25,cs),
(167,25,l)
);
},
{
closed = 1;
nodes = (
(167,624,l),
(361,624,ls),
(463,624,o),
(523,570,o),
(523,483,cs),
(523,396,o),
(463,340,o),
(361,340,cs),
(167,340,l)
);
}
);
vertWidth = 0;
width = 640;
},
{
anchors = (
{
name = bottom;
pos = (345,0);
},
{
name = top;
pos = (345,662);
}
);
layerId = "3FD7D777-D61F-402B-A269-3A472D550581";
shapes = (
{
closed = 1;
nodes = (
(429,0,ls),
(581,0,o),
(656,52,o),
(656,165,cs),
(656,248,o),
(613,307,o),
(521,329,c),
(521,334,l),
(607,359,o),
(634,408,o),
(634,473,cs),
(634,596,o),
(539,662,o),
(385,662,cs),
(59,662,l),
(59,0,l)
);
},
{
closed = 1;
nodes = (
(262,270,l),
(383,270,ls),
(428,270,o),
(454,247,o),
(454,206,cs),
(454,165,o),
(428,143,o),
(383,143,cs),
(262,143,l)
);
},
{
closed = 1;
nodes = (
(262,519,l),
(358,519,ls),
(402,519,o),
(429,498,o),
(429,456,cs),
(429,414,o),
(402,393,o),
(358,393,cs),
(262,393,l)
);
}
);
vertWidth = 0;
width = 694;
}
);
metricLeft = I;
unicode = 66;
},
{
color = 8;
glyphname = Bhook;
lastChange = "2026-02-02 20:04:24 +0000";
layers = (
{
layerId = "AE3FEF6D-3AA7-4252-B349-D2606A6A3B4C";
shapes = (
{
closed = 1;
nodes = (
(491,0,ls),
(603,0,o),
(683,64,o),
(683,169,cs),
(683,252,o),
(631,310,o),
(554,330,c),
(554,335,l),
(613,360,o),
(651,412,o),
(651,483,cs),
(651,588,o),
(571,650,o),
(458,650,cs),
(233,650,ls),
(122,650,o),
(51,599,o),
(51,516,cs),
(51,485,l),
(83,485,l),
(83,516,ls),
(83,584,o),
(140,624,o),
(233,624,c),
(233,0,l)
);
},
{
closed = 1;
nodes = (
(264,314,l),
(491,314,ls),
(591,314,o),
(652,256,o),
(652,169,cs),
(652,82,o),
(591,25,o),
(491,25,cs),
(264,25,l)
);
},
{
closed = 1;
nodes = (
(264,624,l),
(458,624,ls),
(560,624,o),
(620,570,o),
(620,483,cs),
(620,396,o),
(560,340,o),
(458,340,cs),
(264,340,l)
);
}
);
width = 737;
},
{
layerId = "3FD7D777-D61F-402B-A269-3A472D550581";
shapes = (
{
closed = 1;
nodes = (
(660,0,ls),
(811,0,o),
(886,52,o),
(886,165,cs),
(886,248,o),
(844,307,o),
(752,329,c),
(752,334,l),
(838,359,o),
(865,408,o),
(865,473,cs),
(865,596,o),
(770,662,o),
(616,662,cs),
(290,662,ls),
(127,662,o),
(-4,593,o),
(13,486,cs),
(23,424,l),
(226,424,l),
(216,486,ls),
(211,515,o),
(253,531,o),
(290,531,c),
(290,0,l)
);
},
{
closed = 1;
nodes = (
(493,270,l),
(614,270,ls),
(658,270,o),
(685,247,o),
(685,206,cs),
(685,165,o),
(658,143,o),
(614,143,cs),
(493,143,l)
);
},
{
closed = 1;
nodes = (
(493,519,l),
(589,519,ls),
(633,519,o),
(660,498,o),
(660,456,cs),
(660,414,o),
(633,393,o),
(589,393,cs),
(493,393,l)
);
}
);
width = 924;
}
);
metricLeft = J;
metricRight = B;
unicode = 385;
},
{
color = 3;
glyphname = C;
lastChange = "2026-01-27 21:09:20 +0000";
layers = (
{
anchors = (
{
name = bottom;
pos = (380,-5);
},
{
name = top;
pos = (380,655);
}
);
layerId = "AE3FEF6D-3AA7-4252-B349-D2606A6A3B4C";
shapes = (
{
closed = 1;
nodes = (
(521,-5,o),
(597,85,o),
(626,160,c),
(598,169,l),
(572,99,o),
(504,21,o),
(379,21,cs),
(206,21,o),
(122,146,o),
(122,325,cs),
(122,503,o),
(206,629,o),
(379,629,cs),
(504,629,o),
(572,551,o),
(598,481,c),
(626,490,l),
(597,565,o),
(521,655,o),
(380,655,cs),
(195,655,o),
(91,529,o),
(91,325,cs),
(91,121,o),
(195,-5,o),
(380,-5,cs)
);
}
);
vertWidth = 0;
width = 691;
},
{
anchors = (
{
name = bottom;
pos = (357,-5);
},
{
name = top;
pos = (358,666);
}
);
layerId = "3FD7D777-D61F-402B-A269-3A472D550581";
shapes = (
{
closed = 1;
nodes = (
(557,-5,o),
(700,108,o),
(700,248,c),
(486,250,l),
(479,185,o),
(431,138,o),
(357,138,cs),
(265,138,o),
(215,208,o),
(215,331,cs),
(215,453,o),
(265,523,o),
(357,523,cs),
(431,523,o),
(479,476,o),
(486,411,c),
(700,414,l),
(700,553,o),
(557,666,o),
(358,666,cs),
(143,666,o),
(13,530,o),
(13,331,cs),
(13,132,o),
(143,-5,o),
(358,-5,cs)
);
}
);
vertWidth = 0;
width = 732;
}
);
metricLeft = O;
unicode = 67;
},
{
color = 3;
glyphname = D;
lastChange = "2026-01-27 21:09:20 +0000";
layers = (
{
anchors = (
{
name = "D-bar";
pos = (153,325);
},
{
name = bottom;
pos = (324,0);
},
{
name = top;
pos = (324,650);
}
);
layerId = "AE3FEF6D-3AA7-4252-B349-D2606A6A3B4C";
shapes = (
{
closed = 1;
nodes = (
(324,0,ls),
(518,0,o),
(623,133,o),
(623,325,cs),
(623,517,o),
(518,650,o),
(324,650,cs),
(136,650,l),
(136,0,l)
);
},
{
closed = 1;
nodes = (
(168,624,l),
(324,624,ls),
(506,624,o),
(591,491,o),
(591,325,cs),
(591,159,o),
(506,25,o),
(324,25,cs),
(168,25,l)
);
}
);
vertWidth = 0;
width = 702;
},
{
anchors = (
{
name = "D-bar";
pos = (164,331);
},
{
name = bottom;
pos = (333,0);
},
{
name = top;
pos = (333,662);
}
);
layerId = "3FD7D777-D61F-402B-A269-3A472D550581";
shapes = (
{
closed = 1;
nodes = (
(333,0,ls),
(600,0,o),
(696,164,o),
(696,331,cs),
(696,500,o),
(600,662,o),
(333,662,cs),
(59,662,l),
(59,0,l)
);
},
{
closed = 1;
nodes = (
(260,518,l),
(333,518,ls),
(446,518,o),
(494,463,o),
(494,331,cs),
(494,199,o),
(446,143,o),
(333,143,cs),
(260,143,l)
);
}
);
vertWidth = 0;
width = 716;
}
);
metricLeft = I;
unicode = 68;
},
{
color = 8;
glyphname = Dhook;
lastChange = "2026-01-27 21:10:07 +0000";
layers = (
{
layerId = "AE3FEF6D-3AA7-4252-B349-D2606A6A3B4C";
shapes = (
{
closed = 1;
nodes = (
(421,0,ls),
(615,0,o),
(720,133,o),
(720,325,cs),
(720,517,o),
(615,650,o),
(421,650,cs),
(233,650,ls),
(122,650,o),
(51,599,o),
(51,516,cs),
(51,485,l),
(83,485,l),
(83,516,ls),
(83,584,o),
(140,624,o),
(233,624,c),
(233,0,l)
);
},
{
closed = 1;
nodes = (
(265,624,l),
(421,624,ls),
(603,624,o),
(688,491,o),
(688,325,cs),
(688,159,o),
(603,25,o),
(421,25,cs),
(265,25,l)
);
}
);
vertWidth = 0;
width = 799;
},
{
layerId = "3FD7D777-D61F-402B-A269-3A472D550581";
shapes = (
{
closed = 1;
nodes = (
(553,0,ls),
(820,0,o),
(916,164,o),
(916,331,cs),
(916,500,o),
(820,662,o),
(553,662,cs),
(279,662,ls),
(116,662,o),
(12,594,o),
(12,486,cs),
(12,424,l),
(215,424,l),
(215,486,ls),
(215,515,o),
(242,531,o),
(279,531,c),
(279,0,l)
);
},
{
closed = 1;
nodes = (
(480,518,l),
(553,518,ls),
(666,518,o),
(714,463,o),
(714,331,cs),
(714,199,o),
(666,143,o),
(553,143,cs),
(480,143,l)
);
}
);
vertWidth = 0;
width = 936;
}
);
metricLeft = J;
metricRight = D;
unicode = 394;
},
{
color = 3;
glyphname = E;
lastChange = "2026-01-27 21:09:20 +0000";
layers = (
{
anchors = (
{
name = bottom;
pos = (338,0);
},
{
name = bottom.alt;
pos = (422,0);
},
{
name = top;
pos = (338,650);
}
);
layerId = "AE3FEF6D-3AA7-4252-B349-D2606A6A3B4C";
shapes = (
{
closed = 1;
nodes = (
(517,0,l),
(517,25,l),
(167,25,l),
(167,311,l),
(489,311,l),
(489,338,l),
(167,338,l),
(167,624,l),
(517,624,l),
(517,650,l),
(136,650,l),
(136,0,l)
);
}
);
vertWidth = 0;
width = 562;
},
{
anchors = (
{
name = bottom;
pos = (332,0);
},
{
name = bottom.alt;
pos = (416,0);
},
{
name = top;
pos = (332,662);
}
);
layerId = "3FD7D777-D61F-402B-A269-3A472D550581";
shapes = (
{
closed = 1;
nodes = (
(548,0,l),
(548,143,l),
(260,143,l),
(260,266,l),
(520,266,l),
(520,397,l),
(260,397,l),
(260,518,l),
(548,518,l),
(548,662,l),
(59,662,l),
(59,0,l)
);
}
);
vertWidth = 0;
width = 568;
}
);
metricLeft = I;
unicode = 69;
},
{
glyphname = Esh;
lastChange = "2026-01-27 21:10:07 +0000";
layers = (
{
anchors = (
{
name = bottom;
pos = (338,0);
},
{
name = bottom.alt;
pos = (422,0);
},
{
name = top;
pos = (338,650);
}
);
layerId = "AE3FEF6D-3AA7-4252-B349-D2606A6A3B4C";
shapes = (
{
closed = 1;
nodes = (
(517,0,l),
(517,25,l),
(167,25,l),
(330,321,l),
(330,328,l),
(167,624,l),
(517,624,l),
(517,650,l),
(136,650,l),
(136,624,l),
(301,325,l),
(136,25,l),
(136,0,l)
);
}
);
width = 562;
},
{
anchors = (
{
name = bottom;
pos = (332,0);
},
{
name = bottom.alt;
pos = (416,0);
},
{
name = top;
pos = (332,662);
}
);
layerId = "3FD7D777-D61F-402B-A269-3A472D550581";
shapes = (
{
closed = 1;
nodes = (
(548,0,l),
(548,143,l),
(260,143,l),
(418,327,l),
(418,336,l),
(260,518,l),
(548,518,l),
(548,662,l),
(59,662,l),
(59,518,l),
(221,331,l),
(59,143,l),
(59,0,l)
);
}
);
width = 568;
}
);
metricLeft = E;
metricRight = E;
unicode = 425;
},
{
glyphname = Schwa;
lastChange = "2026-01-27 21:10:07 +0000";
layers = (
{
layerId = "AE3FEF6D-3AA7-4252-B349-D2606A6A3B4C";
shapes = (
{
closed = 1;
nodes = (
(509,-5,o),
(622,112,o),
(622,324,cs),
(622,534,o),
(509,655,o),
(318,655,cs),
(182,655,o),
(86,594,o),
(43,486,c),
(71,477,l),
(105,564,o),
(195,629,o),
(319,629,cs),
(493,629,o),
(592,513,o),
(592,320,c),
(28,320,l),
(23,144,o),
(118,-5,o),
(325,-5,cs)
);
},
{
closed = 1;
nodes = (
(154,21,o),
(57,145,o),
(58,292,c),
(591,292,l),
(591,137,o),
(488,21,o),
(325,21,cs)
);
}
);
vertWidth = 0;
width = 713;
},
{
layerId = "3FD7D777-D61F-402B-A269-3A472D550581";
shapes = (
{
closed = 1;
nodes = (
(609,-6,o),
(749,127,o),
(749,331,cs),
(749,534,o),
(609,666,o),
(394,666,cs),
(238,666,o),
(115,596,o),
(66,480,c),
(251,424,l),
(273,485,o),
(321,523,o),
(393,523,cs),
(480,523,o),
(532,470,o),
(542,378,c),
(46,378,l),
(7,165,o),
(152,-6,o),
(394,-6,cs)
);
},
{
closed = 1;
nodes = (
(310,138,o),
(260,184,o),
(249,247,c),
(535,247,l),
(522,181,o),
(473,138,o),
(393,138,cs)
);
}
);
vertWidth = 0;
width = 762;
}
);
metricRight = O;
unicode = 399;
},
{
color = 3;
glyphname = Ezh;
lastChange = "2026-01-27 21:09:20 +0000";
layers = (
{
anchors = (
{
name = bottom;
pos = (300,-12);
},
{
name = top;
pos = (293,650);
}
);
layerId = "AE3FEF6D-3AA7-4252-B349-D2606A6A3B4C";
shapes = (
{
closed = 1;
nodes = (
(484,-12,o),
(588,67,o),
(588,191,cs),
(588,325,o),
(466,376,o),
(306,377,c),
(306,381,l),
(550,610,l),
(550,650,l),
(40,650,l),
(40,625,l),
(524,625,l),
(524,621,l),
(270,382,l),
(270,351,l),
(300,351,ls),
(452,351,o),
(558,307,o),
(558,190,cs),
(558,86,o),
(475,14,o),
(299,14,cs),
(195,14,o),
(117,39,o),
(75,93,c),
(54,74,l),
(92,23,o),
(178,-12,o),
(300,-12,cs)
);
}
);
vertWidth = 0;
width = 628;
},
{
anchors = (
{
name = bottom;
pos = (327,-5);
},
{
name = top;
pos = (327,662);
}
);
layerId = "3FD7D777-D61F-402B-A269-3A472D550581";
shapes = (
{
closed = 1;
nodes = (
(516,-5,o),
(636,79,o),
(636,208,cs),
(636,318,o),
(551,391,o),
(424,410,c),
(424,417,l),
(601,544,l),
(601,662,l),
(39,662,l),
(39,528,l),
(379,528,l),
(379,520,l),
(178,375,l),
(178,302,l),
(301,302,ls),
(392,302,o),
(441,275,o),
(441,218,cs),
(441,164,o),
(398,130,o),
(321,130,cs),
(253,130,o),
(213,163,o),
(212,220,c),
(17,220,l),
(16,84,o),
(135,-5,o),
(325,-5,cs)
);
}
);
vertWidth = 0;
width = 653;
}
);
unicode = 439;
},
{
color = 3;
glyphname = F;
kernRight = F;
lastChange = "2026-01-27 21:09:20 +0000";
layers = (
{
anchors = (
{
name = bottom;
pos = (338,0);
},
{
name = top;
pos = (338,650);
}
);
layerId = "AE3FEF6D-3AA7-4252-B349-D2606A6A3B4C";
shapes = (
{
closed = 1;
nodes = (
(167,0,l),
(167,288,l),
(497,288,l),
(497,314,l),
(167,314,l),
(167,624,l),
(517,624,l),
(517,650,l),
(136,650,l),
(136,0,l)
);
}
);
vertWidth = 0;
width = 557;
},
{
anchors = (
{
name = bottom;
pos = (332,0);
},
{
name = top;
pos = (332,662);
}
);
layerId = "3FD7D777-D61F-402B-A269-3A472D550581";
shapes = (
{
closed = 1;
nodes = (
(260,0,l),
(260,247,l),
(473,247,l),
(473,378,l),
(260,378,l),
(260,518,l),
(548,518,l),
(548,662,l),
(59,662,l),
(59,0,l)
);
}
);
vertWidth = 0;
width = 559;
}
);
metricLeft = I;
unicode = 70;
},
{
color = 3;
glyphname = G;
lastChange = "2026-02-02 21:50:28 +0000";
layers = (
{
anchors = (
{
name = "T-bar";
pos = (553,173);
},
{
name = bottom;
pos = (394,-5);
},
{
name = top;
pos = (381,655);
}
);
layerId = "AE3FEF6D-3AA7-4252-B349-D2606A6A3B4C";
shapes = (
{
closed = 1;
nodes = (
(626,490,l),
(587,592,o),
(493,655,o),
(381,655,cs),
(200,655,o),
(91,530,o),
(91,322,cs),
(91,110,o),
(198,-5,o),
(394,-5,cs),
(489,-5,o),
(599,28,o),
(644,81,c),
(644,314,l),
(382,314,l),
(382,288,l),
(614,288,l),
(614,88,l),
(574,52,o),
(471,21,o),
(394,21,cs),
(217,21,o),
(122,125,o),
(122,322,cs),
(122,515,o),
(218,629,o),
(380,629,cs),
(480,629,o),
(565,572,o),
(599,481,c)
);
}
);
vertWidth = 0;
width = 699;
},
{
anchors = (
{
name = "T-bar";
pos = (550,193);
},
{
name = bottom;
pos = (369,-5);
},
{
name = top;
pos = (369,667);
}
);
layerId = "3FD7D777-D61F-402B-A269-3A472D550581";
shapes = (
{
closed = 1;
nodes = (
(674,488,l),
(635,593,o),
(539,667,o),
(369,667,cs),
(115,667,o),
(13,507,o),
(13,331,cs),
(13,154,o),
(116,-5,o),
(369,-5,cs),
(523,-5,o),
(617,27,o),
(697,103,c),
(697,377,l),
(312,377,l),
(312,246,l),
(494,246,l),
(494,162,l),
(471,150,o),
(432,140,o),
(400,140,cs),
(286,140,o),
(218,194,o),
(218,331,cs),
(218,468,o),
(287,523,o),
(369,523,cs),
(428,523,o),
(487,494,o),
(517,428,c)
);
}
);
vertWidth = 0;
width = 738;
}
);
metricLeft = O;
unicode = 71;
},
{
glyphname = H;
lastChange = "2026-01-27 21:10:07 +0000";
layers = (
{
anchors = (
{
name = "H-bar";
pos = (373,470);
},
{
name = bottom;
pos = (373,0);
},
{
name = top;
pos = (373,650);
}
);
layerId = "AE3FEF6D-3AA7-4252-B349-D2606A6A3B4C";
shapes = (
{
closed = 1;
nodes = (
(167,0,l),
(167,311,l),
(580,311,l),
(580,0,l),
(610,0,l),
(610,650,l),
(580,650,l),
(580,339,l),
(167,339,l),
(167,650,l),
(136,650,l),
(136,0,l)
);
}
);
vertWidth = 0;
width = 746;
},
{
anchors = (
{
name = "H-bar";
pos = (382,486);
},
{
name = bottom;
pos = (382,0);
},
{
name = top;
pos = (382,662);
}
);
layerId = "3FD7D777-D61F-402B-A269-3A472D550581";
shapes = (
{
closed = 1;
nodes = (
(261,0,l),
(261,266,l),
(503,266,l),
(503,0,l),
(705,0,l),
(705,662,l),
(503,662,l),
(503,397,l),
(261,397,l),
(261,662,l),
(59,662,l),
(59,0,l)
);
}
);
vertWidth = 0;
width = 764;
}
);
metricLeft = I;
metricRight = I;
unicode = 72;
},
{
color = 3;
glyphname = I;
lastChange = "2026-01-27 21:09:20 +0000";
layers = (
{
anchors = (
{
name = bottom;
pos = (152,0);
},
{
name = bottom.alt;
pos = (152,0);
},
{
name = top;
pos = (152,650);
}
);
layerId = "AE3FEF6D-3AA7-4252-B349-D2606A6A3B4C";
shapes = (
{
closed = 1;
nodes = (
(168,0,l),
(168,650,l),
(136,650,l),
(136,0,l)
);
}
);
vertWidth = 0;
width = 304;
},
{
anchors = (
{
name = bottom;
pos = (161,0);
},
{
name = bottom.alt;
pos = (161,0);
},
{
name = top;
pos = (161,662);
}
);
layerId = "3FD7D777-D61F-402B-A269-3A472D550581";
shapes = (
{
closed = 1;
nodes = (
(263,0,l),
(263,662,l),
(59,662,l),
(59,0,l)
);
}
);
vertWidth = 0;
width = 322;
}
);
unicode = 73;
},
{
color = 3;
glyphname = Icapitalsmall;
lastChange = "2026-01-27 21:09:20 +0000";
layers = (
{
layerId = "AE3FEF6D-3AA7-4252-B349-D2606A6A3B4C";
shapes = (
{
closed = 1;
nodes = (
(208,624,l),
(310,624,l),
(310,650,l),
(75,650,l),
(75,624,l),
(177,624,l),
(177,26,l),
(75,26,l),
(75,0,l),
(310,0,l),
(310,26,l),
(208,26,l)
);
}
);
width = 385;
},
{
layerId = "3FD7D777-D61F-402B-A269-3A472D550581";
shapes = (
{
closed = 1;
nodes = (
(318,518,l),
(411,518,l),
(411,662,l),
(21,662,l),
(21,518,l),
(114,518,l),
(114,144,l),
(21,144,l),
(21,0,l),
(411,0,l),
(411,144,l),
(318,144,l)
);
}
);
width = 432;
}
);
unicode = 42926;
},
{
color = 3;
glyphname = J;
kernLeft = J;
lastChange = "2026-01-27 21:09:20 +0000";
layers = (
{
anchors = (
{
name = bottom;
pos = (233,-5);
},
{
name = top;
pos = (399,650);
}
);
layerId = "AE3FEF6D-3AA7-4252-B349-D2606A6A3B4C";
shapes = (
{
closed = 1;
nodes = (
(345,-5,o),
(415,46,o),
(415,129,cs),
(415,650,l),
(384,650,l),
(384,129,ls),
(384,61,o),
(326,21,o),
(233,21,cs),
(140,21,o),
(83,61,o),
(83,129,cs),
(83,160,l),
(51,160,l),
(51,129,ls),
(51,46,o),
(122,-5,o),
(233,-5,cs)
);
}
);
vertWidth = 0;
width = 533;
},
{
anchors = (
{
name = bottom;
pos = (280,-5);
},
{
name = top;
pos = (444,662);
}
);
layerId = "3FD7D777-D61F-402B-A269-3A472D550581";
shapes = (
{
closed = 1;
nodes = (
(444,-5,o),
(545,62,o),
(545,171,cs),
(545,662,l),
(342,662,l),
(342,171,ls),
(342,142,o),
(318,126,o),
(279,126,cs),
(239,126,o),
(215,143,o),
(215,171,cs),
(215,207,l),
(12,207,l),
(12,171,ls),
(12,63,o),
(116,-5,o),
(280,-5,cs)
);
}
);
vertWidth = 0;
width = 589;
}
);
unicode = 74;
},
{
glyphname = K;
kernRight = K;
lastChange = "2026-01-27 21:10:07 +0000";
layers = (
{
anchors = (
{
name = bottom;
pos = (343,0);
},
{
name = top;
pos = (343,650);
}
);
layerId = "AE3FEF6D-3AA7-4252-B349-D2606A6A3B4C";
shapes = (
{
closed = 1;
nodes = (
(168,0,l),
(168,307,l),
(260,307,l),
(545,0,l),
(586,0,l),
(286,325,l),
(586,650,l),
(545,650,l),
(258,337,l),
(168,337,l),
(168,650,l),
(136,650,l),
(136,0,l)
);
}
);
vertWidth = 0;
width = 605;
},
{
anchors = (
{
name = bottom;
pos = (378,0);
},
{
name = top;
pos = (378,662);
}
);
layerId = "3FD7D777-D61F-402B-A269-3A472D550581";
shapes = (
{
closed = 1;
nodes = (
(260,0,l),
(260,281,l),
(275,281,l),
(485,0,l),
(719,0,l),
(434,330,l),
(719,662,l),
(485,662,l),
(275,399,l),
(260,399,l),
(260,662,l),
(59,662,l),
(59,0,l)
);
}
);
vertWidth = 0;
width = 701;
}
);
metricLeft = I;
metricRight = X;
unicode = 75;
},
{
color = 8;
glyphname = Khook;
kernRight = K;
lastChange = "2026-01-27 21:10:07 +0000";
layers = (
{
layerId = "AE3FEF6D-3AA7-4252-B349-D2606A6A3B4C";
shapes = (
{
closed = 1;
nodes = (
(446,619,o),
(491,634,o),
(529,634,cs),
(559,634,o),
(587,625,o),
(599,615,c),
(615,635,l),
(598,649,o),
(567,660,o),
(531,660,cs),
(487,660,o),
(428,643,o),
(388,571,cs),
(258,337,l),
(168,337,l),
(168,650,l),
(136,650,l),
(136,0,l),
(168,0,l),
(168,307,l),
(260,307,l),
(545,0,l),
(586,0,l),
(286,325,l),
(410,553,ls)
);
}
);
vertWidth = 0;
width = 634;
},
{
layerId = "3FD7D777-D61F-402B-A269-3A472D550581";
shapes = (
{
closed = 1;
nodes = (
(568,534,o),
(595,546,o),
(631,546,cs),
(655,546,o),
(686,541,o),
(706,536,c),
(734,647,l),
(689,662,o),
(637,671,o),
(585,671,cs),
(494,671,o),
(433,646,o),
(389,578,cs),
(275,399,l),
(260,399,l),
(260,662,l),
(59,662,l),
(59,0,l),
(260,0,l),
(260,281,l),
(275,281,l),
(485,0,l),
(719,0,l),
(434,330,l),
(541,493,ls)
);
}
);
vertWidth = 0;
width = 716;
}
);
metricLeft = I;
metricRight = X;
unicode = 408;
},
{
color = 3;
glyphname = L;
kernRight = L;
lastChange = "2026-02-03 18:23:49 +0000";
layers = (
{
anchors = (
{
name = "L-slash";
pos = (152,340);
},
{
name = bottom;
pos = (353,0);
},
{
name = bottom.alt;
pos = (486,0);
},
{
name = middle_dot_I;
pos = (353,363);
},
{
name = top;
pos = (353,650);
},
{
name = top.alt;
pos = (311,650);
}
);
layerId = "AE3FEF6D-3AA7-4252-B349-D2606A6A3B4C";
shapes = (
{
closed = 1;
nodes = (
(505,0,l),
(505,25,l),
(168,25,l),
(168,650,l),
(136,650,l),
(136,0,l)
);
}
);
vertWidth = 0;
width = 540;
},
{
anchors = (
{
name = "L-slash";
pos = (161,419);
},
{
name = bottom;
pos = (316,0);
},
{
name = bottom.alt;
pos = (526,0);
},
{
name = middle_dot_I;
pos = (423,394);
},
{
name = top;
pos = (383,662);
},
{
name = top.alt;
pos = (292,662);
}
);
layerId = "3FD7D777-D61F-402B-A269-3A472D550581";
shapes = (
{
closed = 1;
nodes = (
(575,0,l),
(575,143,l),
(260,143,l),
(260,662,l),
(59,662,l),
(59,0,l)
);
}
);
vertWidth = 0;
width = 579;
}
);
metricLeft = I;
unicode = 76;
},
{
glyphname = M;
lastChange = "2026-01-29 19:36:48 +0000";
layers = (
{
anchors = (
{
name = bottom;
pos = (469,0);
},
{
name = top;
pos = (469,650);
}
);
layerId = "AE3FEF6D-3AA7-4252-B349-D2606A6A3B4C";
shapes = (
{
closed = 1;
nodes = (
(168,0,l),
(168,632,l),
(173,632,l),
(440,0,l),
(497,0,l),
(800,636,l),
(805,636,l),
(805,0,l),
(836,0,l),
(836,650,l),
(773,650,l),
(471,19,l),
(467,19,l),
(199,650,l),
(136,650,l),
(136,0,l)
);
}
);
vertWidth = 0;
width = 972;
},
{
anchors = (
{
name = bottom;
pos = (502,0);
},
{
name = top;
pos = (502,662);
}
);
layerId = "3FD7D777-D61F-402B-A269-3A472D550581";
shapes = (
{
closed = 1;
nodes = (
(261,0,l),
(261,383,l),
(266,383,l),
(411,0,l),
(596,0,l),
(732,383,l),
(737,383,l),
(737,0,l),
(940,0,l),
(940,662,l),
(689,662,l),
(507,171,l),
(499,171,l),
(309,662,l),
(59,662,l),
(59,0,l)
);
}
);
vertWidth = 0;
width = 999;
}
);
metricLeft = I;
metricRight = I;
unicode = 77;
},
{
glyphname = N;
lastChange = "2026-01-27 21:10:07 +0000";
layers = (
{
anchors = (
{
name = bottom;
pos = (362,0);
},
{
name = top;
pos = (398,650);
}
);
layerId = "AE3FEF6D-3AA7-4252-B349-D2606A6A3B4C";
shapes = (
{
closed = 1;
nodes = (
(166,0,l),
(166,626,l),
(172,626,l),
(565,0,l),
(619,0,l),
(619,650,l),
(588,650,l),
(588,24,l),
(583,24,l),
(190,650,l),
(136,650,l),
(136,0,l)
);
}
);
vertWidth = 0;
width = 755;
},
{
anchors = (
{
name = bottom;
pos = (379,0);
},
{
name = top;
pos = (397,662);
}
);
layerId = "3FD7D777-D61F-402B-A269-3A472D550581";
shapes = (
{
closed = 1;
nodes = (
(261,0,l),
(261,365,l),
(266,365,l),
(525,0,l),
(712,0,l),
(712,662,l),
(509,662,l),
(509,296,l),
(504,296,l),
(245,662,l),
(59,662,l),
(59,0,l)
);
}
);
vertWidth = 0;
width = 771;
}
);
metricLeft = I;
metricRight = I;
unicode = 78;
},
{
color = 8;
glyphname = Nhookleft;
lastChange = "2026-01-27 21:10:07 +0000";
layers = (
{
layerId = "AE3FEF6D-3AA7-4252-B349-D2606A6A3B4C";
shapes = (
{
closed = 1;
nodes = (
(126,626,l),
(132,626,l),
(525,0,l),
(579,0,l),
(579,650,l),
(548,650,l),
(548,24,l),
(543,24,l),
(150,650,l),
(96,650,l),
(96,-122,ls),
(96,-184,o),
(57,-211,o),
(-6,-211,cs),
(-38,-211,o),
(-63,-203,o),
(-75,-192,c),
(-91,-213,l),
(-74,-227,o),
(-43,-238,o),
(-6,-238,cs),
(69,-238,o),
(126,-203,o),
(126,-123,cs)
);
}
);
vertWidth = 0;
width = 715;
},
{
layerId = "3FD7D777-D61F-402B-A269-3A472D550581";
shapes = (
{
closed = 1;
nodes = (
(272,365,l),
(277,365,l),
(536,0,l),
(723,0,l),
(723,662,l),
(520,662,l),
(520,296,l),
(515,296,l),
(256,662,l),
(70,662,l),
(70,-46,ls),
(70,-70,o),
(49,-82,o),
(16,-82,cs),
(-1,-82,o),
(-21,-79,o),
(-42,-73,c),
(-70,-183,l),
(-25,-199,o),
(27,-207,o),
(71,-207,cs),
(179,-207,o),
(272,-168,o),
(272,-62,cs)
);
}
);
vertWidth = 0;
width = 782;
}
);
metricLeft = esh;
metricRight = N;
unicode = 413;
},
{
color = 3;
glyphname = Eng;
lastChange = "2026-01-27 21:10:07 +0000";
layers = (
{
layerId = "AE3FEF6D-3AA7-4252-B349-D2606A6A3B4C";
shapes = (
{
closed = 1;
nodes = (
(166,0,l),
(166,626,l),
(172,626,l),
(588,0,l),
(588,-122,ls),
(588,-184,o),
(551,-211,o),
(487,-211,cs),
(465,-211,o),
(443,-208,o),
(431,-206,c),
(424,-230,l),
(444,-235,o),
(465,-238,o),
(487,-238,cs),
(562,-238,o),
(619,-204,o),
(619,-124,cs),
(619,650,l),
(588,650,l),
(588,60,l),
(582,60,l),
(190,650,l),
(136,650,l),
(136,0,l)
);
}
);
width = 755;
},
{
layerId = "3FD7D777-D61F-402B-A269-3A472D550581";
shapes = (
{
closed = 1;
nodes = (
(261,0,l),
(261,365,l),
(266,365,l),
(509,22,l),
(509,-30,ls),
(509,-56,o),
(488,-68,o),
(457,-68,cs),
(440,-68,o),
(416,-65,o),
(398,-61,c),
(372,-169,l),
(416,-182,o),
(468,-192,o),
(519,-192,cs),
(623,-192,o),
(712,-153,o),
(712,-51,cs),
(712,662,l),
(509,662,l),
(509,296,l),
(504,296,l),
(245,662,l),
(59,662,l),
(59,0,l)
);
}
);
vertWidth = 0;
width = 771;
}
);
metricLeft = I;
metricRight = N;
unicode = 330;
},
{
color = 3;
glyphname = O;
lastChange = "2026-01-27 21:09:20 +0000";
layers = (
{
anchors = (
{
name = "O-slash";
pos = (387,314);
},
{
name = bottom;
pos = (387,-5);
},
{
name = bottom.alt;
pos = (387,-5);
},
{
name = top;
pos = (387,655);
},
{
name = top.alt;
pos = (504,607);
}
);
layerId = "AE3FEF6D-3AA7-4252-B349-D2606A6A3B4C";
shapes = (
{
closed = 1;
nodes = (
(582,-5,o),
(682,131,o),
(682,325,cs),
(682,518,o),
(582,655,o),
(387,655,cs),
(191,655,o),
(91,518,o),
(91,325,cs),
(91,131,o),
(191,-5,o),
(387,-5,cs)
);
},
{
closed = 1;
nodes = (
(200,20,o),
(121,157,o),
(121,325,cs),
(121,492,o),
(200,629,o),
(387,629,cs),
(573,629,o),
(652,493,o),
(652,325,cs),
(652,157,o),
(573,20,o),
(387,20,cs)
);
}
);
vertWidth = 0;
width = 773;
},
{
anchors = (
{
name = "O-slash";
pos = (369,325);
},
{
name = bottom;
pos = (369,-5);
},
{
name = bottom.alt;
pos = (369,-5);
},
{
name = top;
pos = (369,667);
},
{
name = top.alt;
pos = (494,565);
}
);
layerId = "3FD7D777-D61F-402B-A269-3A472D550581";
shapes = (
{
closed = 1;
nodes = (
(621,-5,o),
(724,154,o),
(724,331,cs),
(724,507,o),
(622,667,o),
(369,667,cs),
(115,667,o),
(13,507,o),
(13,331,cs),
(13,154,o),
(116,-5,o),
(369,-5,cs)
);
},
{
closed = 1;
nodes = (
(286,140,o),
(218,194,o),
(218,331,cs),
(218,468,o),
(287,523,o),
(369,523,cs),
(450,523,o),
(520,468,o),
(520,331,cs),
(520,194,o),
(452,140,o),
(369,140,cs)
);
}
);
vertWidth = 0;
width = 737;
}
);
unicode = 79;
},
{
color = 8;
glyphname = Obarred;
lastChange = "2026-01-27 21:10:07 +0000";
layers = (
{
layerId = "AE3FEF6D-3AA7-4252-B349-D2606A6A3B4C";
shapes = (
{
ref = O;
},
{
closed = 1;
nodes = (
(100,311,l),
(659,311,l),
(659,336,l),
(100,336,l)
);
}
);
width = 773;
},
{
layerId = "3FD7D777-D61F-402B-A269-3A472D550581";
shapes = (
{
ref = O;
},
{
closed = 1;
nodes = (
(125,275,l),
(609,275,l),
(609,392,l),
(125,392,l)
);
}
);
width = 737;
}
);
metricLeft = O;
metricRight = O;
unicode = 415;
},
{
glyphname = OE;
lastChange = "2026-01-27 21:10:07 +0000";
layers = (
{
layerId = "AE3FEF6D-3AA7-4252-B349-D2606A6A3B4C";
shapes = (
{
closed = 1;
nodes = (
(772,0,l),
(772,25,l),
(475,25,l),
(475,311,l),
(743,311,l),
(743,338,l),
(475,338,l),
(475,624,l),
(772,624,l),
(772,650,l),
(378,650,ls),
(192,650,o),
(91,518,o),
(91,325,cs),
(91,131,o),
(192,0,o),
(378,0,cs)
);
},
{
closed = 1;
nodes = (
(202,25,o),
(122,157,o),
(122,325,cs),
(122,492,o),
(202,624,o),
(378,624,cs),
(445,624,l),
(445,25,l),
(378,25,ls)
);
}
);
vertWidth = 0;
width = 817;
},
{
layerId = "3FD7D777-D61F-402B-A269-3A472D550581";
shapes = (
{
closed = 1;
nodes = (
(924,0,l),
(924,143,l),
(653,143,l),
(653,266,l),
(896,266,l),
(896,397,l),
(653,397,l),
(653,518,l),
(924,518,l),
(924,662,l),
(391,662,ls),
(142,662,o),
(13,509,o),
(13,331,cs),
(13,154,o),
(142,0,o),
(391,0,cs)
);
},
{
closed = 1;
nodes = (
(291,143,o),
(216,197,o),
(216,331,cs),
(216,466,o),
(291,518,o),
(391,518,cs),
(450,518,l),
(450,143,l),
(391,143,ls)
);
}
);
vertWidth = 0;
width = 944;
}
);
metricLeft = O;
metricRight = E;
unicode = 338;
},
{
color = 3;
glyphname = P;
kernRight = P;
lastChange = "2026-01-27 21:09:20 +0000";
layers = (
{
anchors = (
{
name = bottom;
pos = (336,0);
},
{
name = top;
pos = (336,650);
}
);
layerId = "AE3FEF6D-3AA7-4252-B349-D2606A6A3B4C";
shapes = (
{
closed = 1;
nodes = (
(167,0,l),
(167,275,l),
(371,275,ls),
(485,275,o),
(553,358,o),
(553,463,cs),
(553,568,o),
(485,650,o),
(371,650,cs),
(136,650,l),
(136,0,l)
);
},
{
closed = 1;
nodes = (
(167,624,l),
(371,624,ls),
(472,624,o),
(524,551,o),
(524,463,cs),
(524,376,o),
(472,300,o),
(371,300,cs),
(167,300,l)
);
}
);
vertWidth = 0;
width = 594;
},
{
anchors = (
{
name = bottom;
pos = (370,0);
},
{
name = top;
pos = (370,662);
}
);
layerId = "3FD7D777-D61F-402B-A269-3A472D550581";
shapes = (
{
closed = 1;
nodes = (
(262,0,l),
(262,228,l),
(393,228,ls),
(581,228,o),
(677,301,o),
(677,445,cs),
(677,588,o),
(581,662,o),
(393,662,cs),
(59,662,l),
(59,0,l)
);
},
{
closed = 1;
nodes = (
(262,518,l),
(388,518,ls),
(447,518,o),
(475,491,o),
(475,446,cs),
(475,398,o),
(446,372,o),
(388,372,cs),
(262,372,l)
);
}
);
vertWidth = 0;
width = 703;
}
);
metricLeft = I;
unicode = 80;
},
{
color = 3;
glyphname = Thorn;
lastChange = "2026-01-27 21:09:20 +0000";
layers = (
{
anchors = (
{
name = bottom;
pos = (334,0);
},
{
name = top;
pos = (334,650);
}
);
layerId = "AE3FEF6D-3AA7-4252-B349-D2606A6A3B4C";
shapes = (
{
closed = 1;
nodes = (
(168,0,l),
(168,147,l),
(372,147,ls),
(486,147,o),
(555,220,o),
(555,325,cs),
(555,431,o),
(486,502,o),
(372,502,cs),
(168,502,l),
(168,650,l),
(136,650,l),
(136,0,l)
);
},
{
closed = 1;
nodes = (
(168,477,l),
(372,477,ls),
(473,477,o),
(525,413,o),
(525,325,cs),
(525,238,o),
(473,173,o),
(372,173,cs),
(168,173,l)
);
}
);
vertWidth = 0;
width = 612;
},
{
anchors = (
{
name = bottom;
pos = (371,0);
},
{
name = top;
pos = (371,662);
}
);
layerId = "3FD7D777-D61F-402B-A269-3A472D550581";
shapes = (
{
closed = 1;
nodes = (
(262,0,l),
(262,113,l),
(391,113,ls),
(579,113,o),
(679,187,o),
(679,331,cs),
(679,474,o),
(579,549,o),
(391,549,cs),
(262,549,l),
(262,662,l),
(59,662,l),
(59,0,l)
);
},
{
closed = 1;
nodes = (
(262,404,l),
(391,404,ls),
(450,404,o),
(476,377,o),
(476,331,cs),
(476,283,o),
(450,258,o),
(391,258,cs),
(262,258,l)
);
}
);
vertWidth = 0;
width = 704;
}
);
metricLeft = I;
unicode = 222;
},
{
color = 3;
glyphname = R;
kernRight = R;
lastChange = "2026-01-27 21:09:20 +0000";
layers = (
{
anchors = (
{
name = bottom;
pos = (270,0);
},
{
name = top;
pos = (270,650);
}
);
layerId = "AE3FEF6D-3AA7-4252-B349-D2606A6A3B4C";
shapes = (
{
closed = 1;
nodes = (
(559,0,l),
(386,293,l),
(356,293,l),
(523,0,l)
);
},
{
ref = P;
}
);
vertWidth = 0;
width = 595;
},
{
anchors = (
{
name = bottom;
pos = (361,0);
},
{
name = top;
pos = (361,662);
}
);
layerId = "3FD7D777-D61F-402B-A269-3A472D550581";
shapes = (
{
closed = 1;
nodes = (
(710,0,l),
(515,317,l),
(324,317,l),
(497,0,l)
);
},
{
ref = P;
}
);
vertWidth = 0;
width = 700;
}
);
metricLeft = I;
unicode = 82;
},
{
color = 3;
glyphname = S;
lastChange = "2026-02-02 17:07:42 +0000";
layers = (
{
anchors = (
{
name = bottom;
pos = (300,-5);
},
{
name = top;
pos = (287,655);
}
);
layerId = "AE3FEF6D-3AA7-4252-B349-D2606A6A3B4C";
shapes = (
{
closed = 1;
nodes = (
(439,-5,o),
(526,58,o),
(526,157,cs),
(526,230,o),
(470,275,o),
(309,329,cs),
(158,379,o),
(107,418,o),
(107,482,cs),
(107,568,o),
(183,630,o),
(287,630,cs),
(398,630,o),
(480,565,o),
(480,477,c),
(510,477,l),
(510,578,o),
(414,655,o),
(287,655,cs),
(165,655,o),
(76,582,o),
(76,482,cs),
(76,402,o),
(133,356,o),
(298,304,cs),
(445,258,o),
(495,221,o),
(495,157,cs),
(495,73,o),
(419,21,o),
(300,21,cs),
(179,21,o),
(92,84,o),
(92,173,c),
(61,173,l),
(61,70,o),
(161,-5,o),
(300,-5,cs)
);
}
);
vertWidth = 0;
width = 585;
},
{
anchors = (
{
name = bottom;
pos = (314,-15);
},
{
name = top;
pos = (329,671);
}
);
layerId = "3FD7D777-D61F-402B-A269-3A472D550581";
shapes = (
{
closed = 1;
nodes = (
(498,-10,o),
(620,62,o),
(620,191,cs),
(620,304,o),
(541,347,o),
(372,395,cs),
(281,422,o),
(242,438,o),
(242,467,cs),
(242,500,o),
(273,517,o),
(324,517,cs),
(384,517,o),
(415,494,o),
(415,463,c),
(613,463,l),
(613,596,o),
(503,671,o),
(329,671,cs),
(157,671,o),
(44,598,o),
(44,473,cs),
(44,355,o),
(128,308,o),
(334,247,cs),
(390,230,o),
(422,214,o),
(422,188,cs),
(422,154,o),
(379,144,o),
(333,144,cs),
(258,144,o),
(223,168,o),
(223,204,c),
(25,204,l),
(25,64,o),
(131,-10,o),
(314,-10,cs)
);
}
);
vertWidth = 0;
width = 645;
}
);
unicode = 83;
},
{
color = 3;
glyphname = Germandbls;
lastChange = "2026-01-27 21:09:20 +0000";
layers = (
{
layerId = "AE3FEF6D-3AA7-4252-B349-D2606A6A3B4C";
shapes = (
{
closed = 1;
nodes = (
(487,-5,o),
(542,63,o),
(542,160,cs),
(542,274,o),
(465,325,o),
(371,343,c),
(441,370,o),
(479,427,o),
(479,497,cs),
(479,603,o),
(389,656,o),
(290,656,cs),
(156,655,o),
(87,571,o),
(87,426,cs),
(87,0,l),
(118,0,l),
(118,426,ls),
(118,557,o),
(176,631,o),
(290,631,cs),
(372,631,o),
(449,587,o),
(449,497,cs),
(449,429,o),
(407,352,o),
(273,352,c),
(273,328,l),
(407,328,o),
(512,287,o),
(512,161,cs),
(512,80,o),
(470,21,o),
(380,21,cs),
(305,21,o),
(250,57,o),
(250,134,c),
(219,134,l),
(219,41,o),
(287,-5,o),
(381,-5,cs)
);
}
);
vertWidth = 0;
width = 596;
},
{
layerId = "3FD7D777-D61F-402B-A269-3A472D550581";
shapes = (
{
closed = 1;
nodes = (
(576,-5,o),
(666,48,o),
(666,161,cs),
(666,263,o),
(597,302,o),
(486,323,c),
(558,341,o),
(603,389,o),
(603,469,cs),
(603,598,o),
(479,667,o),
(328,667,cs),
(139,667,o),
(41,559,o),
(41,413,cs),
(41,0,l),
(243,0,l),
(243,439,ls),
(243,492,o),
(267,528,o),
(325,528,cs),
(369,528,o),
(403,506,o),
(403,463,cs),
(403,428,o),
(381,394,o),
(313,394,c),
(313,261,l),
(421,261,o),
(481,231,o),
(481,176,cs),
(481,148,o),
(466,130,o),
(435,130,cs),
(408,130,o),
(389,142,o),
(389,171,c),
(280,171,l),
(280,59,o),
(317,-5,o),
(456,-5,cs)
);
}
);
vertWidth = 0;
width = 680;
}
);
unicode = 7838;
},
{
color = 3;
glyphname = T;
kernLeft = T;
kernRight = T;
lastChange = "2026-01-27 21:09:20 +0000";
layers = (
{
anchors = (
{
name = "T-bar";
pos = (338,423);
},
{
name = bottom;
pos = (339,0);
},
{
name = top;
pos = (339,650);
}
);
layerId = "AE3FEF6D-3AA7-4252-B349-D2606A6A3B4C";
shapes = (
{
closed = 1;
nodes = (
(354,0,l),
(354,624,l),
(613,624,l),
(613,650,l),
(64,650,l),
(64,624,l),
(323,624,l),
(323,0,l)
);
}
);
vertWidth = 0;
width = 677;
},
{
anchors = (
{
name = "T-bar";
pos = (293,357);
},
{
name = bottom;
pos = (293,0);
},
{
name = top;
pos = (293,662);
}
);
layerId = "3FD7D777-D61F-402B-A269-3A472D550581";
shapes = (
{
closed = 1;
nodes = (
(395,0,l),
(395,518,l),
(595,518,l),
(595,662,l),
(-9,662,l),
(-9,518,l),
(192,518,l),
(192,0,l)
);
}
);
vertWidth = 0;
width = 586;
}
);
unicode = 84;
},
{
glyphname = U;
lastChange = "2026-01-27 21:10:07 +0000";
layers = (
{
anchors = (
{
name = bottom;
pos = (365,-5);
},
{
name = bottom.alt;
pos = (365,-5);
},
{
name = top;
pos = (366,650);
},
{
name = top.alt;
pos = (595,607);
}
);
layerId = "AE3FEF6D-3AA7-4252-B349-D2606A6A3B4C";
shapes = (
{
closed = 1;
nodes = (
(518,-5,o),
(613,83,o),
(613,224,cs),
(613,650,l),
(581,650,l),
(581,224,ls),
(581,97,o),
(499,19,o),
(365,19,cs),
(232,19,o),
(150,97,o),
(150,224,cs),
(150,650,l),
(118,650,l),
(118,224,ls),
(118,82,o),
(212,-5,o),
(365,-5,cs)
);
}
);
vertWidth = 0;
width = 731;
},
{
anchors = (
{
name = bottom;
pos = (374,-5);
},
{
name = bottom.alt;
pos = (374,-5);
},
{
name = top;
pos = (374,661);
},
{
name = top.alt;
pos = (639,564);
}
);
layerId = "3FD7D777-D61F-402B-A269-3A472D550581";
shapes = (
{
closed = 1;
nodes = (
(589,-5,o),
(706,84,o),
(706,244,cs),
(706,662,l),
(503,662,l),
(503,249,ls),
(503,186,o),
(463,148,o),
(375,148,cs),
(287,148,o),
(246,186,o),
(246,249,cs),
(246,662,l),
(44,662,l),
(44,244,ls),
(44,83,o),
(161,-5,o),
(375,-5,cs)
);
}
);
vertWidth = 0;
width = 750;
}
);
metricLeft = "=|J";
metricRight = J;
unicode = 85;
},
{
glyphname = V;
kernLeft = V;
kernRight = V;
lastChange = "2026-01-27 21:10:07 +0000";
layers = (
{
anchors = (
{
name = bottom;
pos = (292,0);
},
{
name = top;
pos = (293,650);
}
);
layerId = "AE3FEF6D-3AA7-4252-B349-D2606A6A3B4C";
shapes = (
{
closed = 1;
nodes = (
(315,0,l),
(575,650,l),
(543,650,l),
(295,20,l),
(290,20,l),
(43,650,l),
(11,650,l),
(270,0,l)
);
}
);
vertWidth = 0;
width = 586;
},
{
anchors = (
{
name = bottom;
pos = (354,0);
},
{
name = top;
pos = (354,662);
}
);
layerId = "3FD7D777-D61F-402B-A269-3A472D550581";
shapes = (
{
closed = 1;
nodes = (
(463,0,l),
(742,662,l),
(525,662,l),
(358,199,l),
(353,199,l),
(186,662,l),
(-30,662,l),
(248,0,l)
);
}
);
vertWidth = 0;
width = 712;
}
);
metricLeft = A;
metricRight = A;
unicode = 86;
},
{
glyphname = VY;
kernLeft = V;
kernRight = Yacute;
lastChange = "2026-01-28 16:25:16 +0000";
layers = (
{
background = {
shapes = (
{
alignment = -1;
attr = {
identifier = ADCBB169;
};
pos = (533,0);
ref = Y;
userData = {
UFO.identifier = 7D325315;
UFO.lib = {
};
};
},
{
alignment = -1;
attr = {
identifier = 80D2B9B0;
};
pos = (1,0);
ref = V;
userData = {
UFO.identifier = 7FCAC67A;
UFO.lib = {
};
};
}
);
};
layerId = "AE3FEF6D-3AA7-4252-B349-D2606A6A3B4C";
shapes = (
{
closed = 1;
nodes = (
(835,0,l),
(835,279,l),
(1097,650,l),
(1063,650,l),
(820,307,l),
(579,650,l),
(543,650,l),
(295,20,l),
(290,20,l),
(43,650,l),
(11,650,l),
(270,0,l),
(315,0,l),
(563,621,l),
(804,279,l),
(804,0,l)
);
}
);
width = 1108;
},
{
background = {
shapes = (
{
alignment = -1;
pos = (586,0);
ref = Y;
userData = {
UFO.identifier = F75C8E55;
UFO.lib = {
};
};
},
{
alignment = -1;
pos = (1,0);
ref = V;
userData = {
UFO.identifier = 80B21931;
UFO.lib = {
};
};
}
);
};
layerId = "3FD7D777-D61F-402B-A269-3A472D550581";
shapes = (
{
closed = 1;
nodes = (
(1026,0,l),
(1026,270,l),
(1292,662,l),
(1057,662,l),
(925,407,l),
(791,662,l),
(525,662,l),
(358,199,l),
(353,199,l),
(186,662,l),
(-30,662,l),
(248,0,l),
(463,0,l),
(671,492,l),
(822,270,l),
(822,0,l)
);
}
);
width = 1262;
}
);
metricLeft = V;
metricRight = Y;
unicode = 42848;
},
{
color = 3;
glyphname = W;
kernLeft = V;
kernRight = V;
lastChange = "2026-01-27 21:09:20 +0000";
layers = (
{
anchors = (
{
name = bottom;
pos = (453,0);
},
{
name = top;
pos = (453,650);
}
);
layerId = "AE3FEF6D-3AA7-4252-B349-D2606A6A3B4C";
shapes = (
{
closed = 1;
nodes = (
(251,0,l),
(451,633,l),
(456,633,l),
(651,0,l),
(711,0,l),
(890,650,l),
(857,650,l),
(683,14,l),
(678,14,l),
(481,650,l),
(426,650,l),
(229,14,l),
(224,14,l),
(49,650,l),
(17,650,l),
(196,0,l)
);
}
);
vertWidth = 0;
width = 907;
},
{
anchors = (
{
name = bottom;
pos = (491,0);
},
{
name = top;
pos = (491,662);
}
);
layerId = "3FD7D777-D61F-402B-A269-3A472D550581";
shapes = (
{
closed = 1;
nodes = (
(369,0,l),
(489,407,l),
(494,407,l),
(612,0,l),
(800,0,l),
(996,662,l),
(786,662,l),
(697,258,l),
(692,258,l),
(577,662,l),
(405,662,l),
(289,258,l),
(284,258,l),
(195,662,l),
(-14,662,l),
(181,0,l)
);
}
);
vertWidth = 0;
width = 982;
}
);
unicode = 87;
},
{
color = 3;
glyphname = X;
lastChange = "2026-01-27 21:09:20 +0000";
layers = (
{
anchors = (
{
name = bottom;
pos = (304,0);
},
{
name = top;
pos = (304,650);
}
);
layerId = "AE3FEF6D-3AA7-4252-B349-D2606A6A3B4C";
shapes = (
{
closed = 1;
nodes = (
(58,0,l),
(304,307,l),
(549,0,l),
(588,0,l),
(325,331,l),
(577,650,l),
(538,650,l),
(304,354,l),
(69,650,l),
(31,650,l),
(282,331,l),
(21,0,l)
);
}
);
vertWidth = 0;
width = 607;
},
{
anchors = (
{
name = bottom;
pos = (346,0);
},
{
name = top;
pos = (346,662);
}
);
layerId = "3FD7D777-D61F-402B-A269-3A472D550581";
shapes = (
{
closed = 1;
nodes = (
(207,0,l),
(347,210,l),
(481,0,l),
(711,0,l),
(461,344,l),
(689,662,l),
(465,662,l),
(349,468,l),
(234,662,l),
(6,662,l),
(237,339,l),
(-18,0,l)
);
}
);
vertWidth = 0;
width = 693;
}
);
unicode = 88;
},
{
glyphname = Y;
kernLeft = Y;
kernRight = Y;
lastChange = "2026-01-27 21:10:07 +0000";
layers = (
{
anchors = (
{
name = bottom;
pos = (288,0);
},
{
name = top;
pos = (288,650);
}
);
layerId = "AE3FEF6D-3AA7-4252-B349-D2606A6A3B4C";
shapes = (
{
closed = 1;
nodes = (
(303,0,l),
(303,279,l),
(565,650,l),
(531,650,l),
(288,307,l),
(47,650,l),
(11,650,l),
(272,279,l),
(272,0,l)
);
}
);
vertWidth = 0;
width = 576;
},
{
anchors = (
{
name = bottom;
pos = (338,0);
},
{
name = top;
pos = (338,662);
}
);
layerId = "3FD7D777-D61F-402B-A269-3A472D550581";
shapes = (
{
closed = 1;
nodes = (
(441,0,l),
(441,270,l),
(707,662,l),
(472,662,l),
(340,407,l),
(206,662,l),
(-30,662,l),
(237,270,l),
(237,0,l)
);
}
);
vertWidth = 0;
width = 677;
}
);
metricLeft = A;
metricRight = A;
unicode = 89;
},
{
color = 8;
glyphname = Yhook;
kernLeft = Y;
kernRight = Y;
lastChange = "2026-01-27 21:10:07 +0000";
layers = (
{
layerId = "AE3FEF6D-3AA7-4252-B349-D2606A6A3B4C";
shapes = (
{
closed = 1;
nodes = (
(476,279,l),
(476,0,l),
(507,0,l),
(507,279,l),
(769,650,l),
(735,650,l),
(492,307,l),
(251,650,l),
(233,650,ls),
(122,650,o),
(51,599,o),
(51,516,cs),
(51,485,l),
(83,485,l),
(83,516,ls),
(83,584,o),
(140,624,o),
(233,624,c)
);
}
);
vertWidth = 0;
width = 780;
},
{
layerId = "3FD7D777-D61F-402B-A269-3A472D550581";
shapes = (
{
closed = 1;
nodes = (
(457,270,l),
(457,0,l),
(661,0,l),
(661,270,l),
(927,662,l),
(692,662,l),
(560,407,l),
(426,662,l),
(279,662,ls),
(116,662,o),
(12,594,o),
(12,486,cs),
(12,424,l),
(215,424,l),
(215,486,ls),
(215,515,o),
(242,531,o),
(279,531,c)
);
}
);
vertWidth = 0;
width = 897;
}
);
metricLeft = J;
metricRight = A;
unicode = 435;
},
{
glyphname = Yr;
lastChange = "2026-01-27 21:10:07 +0000";
layers = (
{
layerId = "AE3FEF6D-3AA7-4252-B349-D2606A6A3B4C";
shapes = (
{
closed = 1;
nodes = (
(636,-108,l),
(409,278,l),
(500,295,o),
(553,370,o),
(553,463,cs),
(553,568,o),
(485,650,o),
(371,650,cs),
(167,650,l),
(167,770,l),
(136,770,l),
(136,0,l),
(167,0,l),
(167,275,l),
(381,275,l),
(600,-108,l)
);
},
{
closed = 1;
nodes = (
(167,624,l),
(371,624,ls),
(472,624,o),
(524,551,o),
(524,463,cs),
(524,376,o),
(472,300,o),
(371,300,cs),
(167,300,l)
);
}
);
width = 595;
},
{
layerId = "3FD7D777-D61F-402B-A269-3A472D550581";
shapes = (
{
closed = 1;
nodes = (
(766,-98,l),
(555,254,l),
(636,287,o),
(677,351,o),
(677,445,cs),
(677,588,o),
(581,662,o),
(393,662,cs),
(261,662,l),
(261,770,l),
(59,770,l),
(59,0,l),
(262,0,l),
(262,228,l),
(375,228,l),
(553,-98,l)
);
},
{
closed = 1;
nodes = (
(262,518,l),
(388,518,ls),
(447,518,o),
(475,491,o),
(475,446,cs),
(475,398,o),
(446,372,o),
(388,372,cs),
(262,372,l)
);
}
);
width = 700;
}
);
metricLeft = "=I";
metricWidth = R;
unicode = 422;
},
{
color = 3;
glyphname = Z;
lastChange = "2026-01-27 21:09:20 +0000";
layers = (
{
anchors = (
{
name = bottom;
pos = (283,0);
},
{
name = top;
pos = (283,650);
}
);
layerId = "AE3FEF6D-3AA7-4252-B349-D2606A6A3B4C";
shapes = (
{
closed = 1;
nodes = (
(513,0,l),
(513,25,l),
(80,25,l),
(513,612,l),
(513,650,l),
(54,650,l),
(54,625,l),
(487,625,l),
(54,39,l),
(54,0,l)
);
}
);
vertWidth = 0;
width = 567;
},
{
anchors = (
{
name = bottom;
pos = (278,0);
},
{
name = top;
pos = (278,662);
}
);
layerId = "3FD7D777-D61F-402B-A269-3A472D550581";
shapes = (
{
closed = 1;
nodes = (
(548,0,l),
(548,143,l),
(240,143,l),
(548,549,l),
(548,662,l),
(9,662,l),
(9,518,l),
(318,518,l),
(9,113,l),
(9,0,l)
);
}
);
vertWidth = 0;
width = 557;
}
);
unicode = 90;
},
{
glyphname = AEsmall;
kernLeft = Asmall;
lastChange = "2026-02-03 16:48:35 +0000";
layers = (
{
anchors = (
{
name = bottom;
pos = (263,0);
},
{
name = top;
pos = (341,483);
}
);
layerId = "AE3FEF6D-3AA7-4252-B349-D2606A6A3B4C";
shapes = (
{
closed = 1;
nodes = (
(30,0,l),
(89,146,l),
(247,146,l),
(247,0,l),
(530,0,l),
(530,26,l),
(273,26,l),
(273,228,l),
(508,228,l),
(508,255,l),
(273,255,l),
(273,458,l),
(530,458,l),
(530,483,l),
(201,483,l),
(-3,0,l)
);
},
{
closed = 1;
nodes = (
(222,463,l),
(247,463,l),
(247,172,l),
(99,172,l)
);
}
);
vertWidth = 0;
width = 561;
},
{
anchors = (
{
name = bottom;
pos = (398,0);
},
{
name = top;
pos = (449,500);
}
);
layerId = "3FD7D777-D61F-402B-A269-3A472D550581";
shapes = (
{
closed = 1;
nodes = (
(185,0,l),
(214,96,l),
(324,96,l),
(324,0,l),
(726,0,l),
(726,134,l),
(511,134,l),
(511,197,l),
(697,197,l),
(697,301,l),
(511,301,l),
(511,365,l),
(726,365,l),
(726,500,l),
(177,500,l),
(-22,0,l)
);
},
{
closed = 1;
nodes = (
(292,336,l),
(324,336,l),
(324,193,l),
(245,193,l)
);
}
);
vertWidth = 0;
width = 731;
}
);
unicode = 7425;
},
{
glyphname = Asmall;
kernLeft = Asmall;
kernRight = Asmall;
lastChange = "2026-02-03 16:48:35 +0000";
layers = (
{
anchors = (
{
name = bottom;
pos = (220,0);
},
{
name = bottom.alt;
pos = (426,0);
},
{
name = top;
pos = (220,483);
}
);
layerId = "AE3FEF6D-3AA7-4252-B349-D2606A6A3B4C";
shapes = (
{
closed = 1;
nodes = (
(31,0,l),
(88,146,l),
(352,146,l),
(409,0,l),
(442,0,l),
(243,483,l),
(198,483,l),
(-1,0,l)
);
},
{
closed = 1;
nodes = (
(218,464,l),
(223,464,l),
(341,172,l),
(98,172,l)
);
}
);
vertWidth = 0;
width = 441;
},
{
anchors = (
{
name = bottom;
pos = (291,0);
},
{
name = bottom.alt;
pos = (494,23);
},
{
name = top;
pos = (291,500);
}
);
layerId = "3FD7D777-D61F-402B-A269-3A472D550581";
shapes = (
{
closed = 1;
nodes = (
(188,0,l),
(216,96,l),
(367,96,l),
(394,0,l),
(601,0,l),
(404,500,l),
(174,500,l),
(-19,0,l)
);
},
{
closed = 1;
nodes = (
(288,336,l),
(293,336,l),
(337,193,l),
(244,193,l)
);
}
);
vertWidth = 0;
width = 580;
}
);
unicode = 7424;
},
{
glyphname = Bsmall;
kernLeft = Ismall;
lastChange = "2026-02-03 16:48:35 +0000";
layers = (
{
anchors = (
{
name = bottom;
pos = (248,0);
},
{
name = top;
pos = (248,483);
}
);
layerId = "AE3FEF6D-3AA7-4252-B349-D2606A6A3B4C";
shapes = (
{
closed = 1;
nodes = (
(306,0,ls),
(393,0,o),
(449,49,o),
(449,125,cs),
(449,188,o),
(409,235,o),
(348,245,c),
(348,250,l),
(397,263,o),
(425,303,o),
(425,359,cs),
(425,435,o),
(370,483,o),
(283,483,cs),
(88,483,l),
(88,0,l)
);
},
{
closed = 1;
nodes = (
(123,228,l),
(299,228,ls),
(374,228,o),
(415,191,o),
(415,125,cs),
(415,61,o),
(374,26,o),
(299,26,cs),
(123,26,l)
);
},
{
closed = 1;
nodes = (
(123,458,l),
(277,458,ls),
(352,458,o),
(392,423,o),
(392,357,cs),
(392,292,o),
(351,256,o),
(277,256,cs),
(123,256,l)
);
}
);
vertWidth = 0;
width = 490;
},
{
anchors = (
{
name = bottom;
pos = (323,0);
},
{
name = top;
pos = (323,500);
}
);
layerId = "3FD7D777-D61F-402B-A269-3A472D550581";
shapes = (
{
closed = 1;
nodes = (
(394,0,ls),
(515,0,o),
(581,53,o),
(581,148,cs),
(581,201,o),
(538,248,o),
(478,261,c),
(478,265,l),
(524,273,o),
(556,308,o),
(556,347,cs),
(556,446,o),
(484,500,o),
(349,500,cs),
(58,500,l),
(58,0,l)
);
},
{
closed = 1;
nodes = (
(260,210,l),
(333,210,ls),
(372,210,o),
(390,192,o),
(390,160,cs),
(390,128,o),
(372,112,o),
(333,112,cs),
(260,112,l)
);
},
{
closed = 1;
nodes = (
(260,388,l),
(327,388,ls),
(362,388,o),
(380,371,o),
(380,339,cs),
(380,307,o),
(362,290,o),
(327,290,cs),
(260,290,l)
);
}
);
vertWidth = 0;
width = 624;
}
);
unicode = 665;
},
{
glyphname = Csmall;
kernLeft = Gsmall;
lastChange = "2026-02-03 16:48:35 +0000";
layers = (
{
anchors = (
{
name = bottom;
pos = (289,-5);
},
{
name = top;
pos = (289,489);
}
);
layerId = "AE3FEF6D-3AA7-4252-B349-D2606A6A3B4C";
shapes = (
{
closed = 1;
nodes = (
(397,-5,o),
(460,62,o),
(482,117,c),
(456,127,l),
(436,77,o),
(380,21,o),
(288,21,cs),
(156,21,o),
(95,116,o),
(95,242,cs),
(95,367,o),
(156,463,o),
(288,463,cs),
(380,463,o),
(436,407,o),
(456,357,c),
(482,366,l),
(460,421,o),
(397,489,o),
(289,489,cs),
(149,489,o),
(63,394,o),
(63,242,cs),
(63,90,o),
(149,-5,o),
(289,-5,cs)
);
}
);
vertWidth = 0;
width = 545;
},
{
anchors = (
{
name = bottom;
pos = (315,-10);
},
{
name = top;
pos = (311,510);
}
);
layerId = "3FD7D777-D61F-402B-A269-3A472D550581";
shapes = (
{
closed = 1;
nodes = (
(492,-10,o),
(600,80,o),
(606,201,c),
(407,203,l),
(400,150,o),
(364,123,o),
(315,123,cs),
(252,123,o),
(221,167,o),
(221,249,cs),
(221,331,o),
(255,376,o),
(317,376,cs),
(365,376,o),
(400,347,o),
(407,296,c),
(606,298,l),
(600,418,o),
(492,510,o),
(311,510,cs),
(123,510,o),
(19,419,o),
(19,249,cs),
(19,79,o),
(121,-10,o),
(315,-10,cs)
);
}
);
vertWidth = 0;
width = 600;
}
);
unicode = 7428;
},
{
glyphname = Dsmall;
kernLeft = Ismall;
lastChange = "2026-02-03 16:48:36 +0000";
layers = (
{
anchors = (
{
name = "D-bar";
pos = (103,242);
},
{
name = bottom;
pos = (259,0);
},
{
name = top;
pos = (259,483);
}
);
layerId = "AE3FEF6D-3AA7-4252-B349-D2606A6A3B4C";
shapes = (
{
closed = 1;
nodes = (
(259,0,ls),
(402,0,o),
(479,99,o),
(479,242,cs),
(479,384,o),
(402,483,o),
(259,483,cs),
(88,483,l),
(88,0,l)
);
},
{
closed = 1;
nodes = (
(118,458,l),
(259,458,ls),
(387,458,o),
(449,365,o),
(449,242,cs),
(449,118,o),
(387,25,o),
(259,25,cs),
(118,25,l)
);
}
);
vertWidth = 0;
width = 521;
},
{
anchors = (
{
name = "D-bar";
pos = (137,250);
},
{
name = bottom;
pos = (265,0);
},
{
name = top;
pos = (265,500);
}
);
layerId = "3FD7D777-D61F-402B-A269-3A472D550581";
shapes = (
{
closed = 1;
nodes = (
(301,0,ls),
(486,0,o),
(563,102,o),
(563,249,cs),
(563,397,o),
(486,500,o),
(301,500,cs),
(40,500,l),
(40,0,l)
);
},
{
closed = 1;
nodes = (
(242,388,l),
(281,388,ls),
(339,388,o),
(370,354,o),
(370,249,cs),
(370,145,o),
(339,119,o),
(281,119,cs),
(242,119,l)
);
}
);
vertWidth = 0;
width = 591;
}
);
unicode = 7429;
},
{
glyphname = Esmall;
kernLeft = Ismall;
lastChange = "2026-02-03 16:48:36 +0000";
layers = (
{
anchors = (
{
name = bottom;
pos = (259,0);
},
{
name = bottom.alt;
pos = (318,0);
},
{
name = top;
pos = (259,483);
}
);
layerId = "AE3FEF6D-3AA7-4252-B349-D2606A6A3B4C";
shapes = (
{
closed = 1;
nodes = (
(391,0,l),
(391,25,l),
(120,25,l),
(120,228,l),
(370,228,l),
(370,255,l),
(120,255,l),
(120,458,l),
(391,458,l),
(391,483,l),
(90,483,l),
(90,0,l)
);
}
);
vertWidth = 0;
width = 430;
},
{
anchors = (
{
name = bottom;
pos = (273,0);
},
{
name = bottom.alt;
pos = (339,0);
},
{
name = top;
pos = (273,500);
}
);
layerId = "3FD7D777-D61F-402B-A269-3A472D550581";
shapes = (
{
closed = 1;
nodes = (
(460,0,l),
(460,134,l),
(245,134,l),
(245,197,l),
(432,197,l),
(432,301,l),
(245,301,l),
(245,365,l),
(460,365,l),
(460,500,l),
(42,500,l),
(42,0,l)
);
}
);
vertWidth = 0;
width = 476;
}
);
unicode = 7431;
},
{
glyphname = Fsmall;
kernLeft = Ismall;
kernRight = Fsmall;
lastChange = "2026-02-03 16:48:36 +0000";
layers = (
{
anchors = (
{
name = bottom;
pos = (249,0);
},
{
name = top;
pos = (249,483);
}
);
layerId = "AE3FEF6D-3AA7-4252-B349-D2606A6A3B4C";
shapes = (
{
closed = 1;
nodes = (
(120,0,l),
(120,228,l),
(370,228,l),
(370,254,l),
(120,254,l),
(120,458,l),
(391,458,l),
(391,483,l),
(90,483,l),
(90,0,l)
);
}
);
vertWidth = 0;
width = 433;
},
{
anchors = (
{
name = bottom;
pos = (253,0);
},
{
name = top;
pos = (253,500);
}
);
layerId = "3FD7D777-D61F-402B-A269-3A472D550581";
shapes = (
{
closed = 1;
nodes = (
(245,0,l),
(245,173,l),
(432,173,l),
(432,277,l),
(245,277,l),
(245,365,l),
(460,365,l),
(460,500,l),
(42,500,l),
(42,0,l)
);
}
);
vertWidth = 0;
width = 468;
}
);
unicode = 42800;
},
{
glyphname = Gsmall;
kernLeft = Gsmall;
lastChange = "2026-02-03 16:48:36 +0000";
layers = (
{
anchors = (
{
name = "T-bar";
pos = (374,137);
},
{
name = bottom;
pos = (288,-5);
},
{
name = top;
pos = (271,489);
}
);
layerId = "AE3FEF6D-3AA7-4252-B349-D2606A6A3B4C";
shapes = (
{
closed = 1;
nodes = (
(368,-5,o),
(430,20,o),
(479,70,c),
(479,237,l),
(272,237,l),
(272,210,l),
(449,210,l),
(449,80,l),
(408,42,o),
(355,22,o),
(287,22,cs),
(149,22,o),
(72,98,o),
(72,239,cs),
(72,376,o),
(150,461,o),
(269,461,cs),
(343,461,o),
(414,421,o),
(439,358,c),
(467,368,l),
(436,441,o),
(356,489,o),
(271,489,cs),
(132,489,o),
(41,392,o),
(41,239,cs),
(41,83,o),
(131,-5,o),
(288,-5,cs)
);
}
);
vertWidth = 0;
width = 524;
},
{
anchors = (
{
name = "T-bar";
pos = (522,167);
},
{
name = bottom;
pos = (331,-10);
},
{
name = top;
pos = (310,510);
}
);
layerId = "3FD7D777-D61F-402B-A269-3A472D550581";
shapes = (
{
closed = 1;
nodes = (
(455,-10,o),
(556,32,o),
(624,105,c),
(624,298,l),
(313,298,l),
(313,201,l),
(426,201,l),
(426,161,l),
(410,135,o),
(377,123,o),
(332,123,cs),
(255,123,o),
(221,156,o),
(221,249,cs),
(221,327,o),
(244,376,o),
(318,376,cs),
(372,376,o),
(403,352,o),
(430,321,c),
(589,371,l),
(549,450,o),
(463,510,o),
(310,510,cs),
(117,510,o),
(19,404,o),
(19,249,cs),
(19,82,o),
(120,-10,o),
(331,-10,cs)
);
}
);
vertWidth = 0;
width = 641;
}
);
unicode = 610;
},
{
glyphname = Hsmall;
kernLeft = Ismall;
lastChange = "2026-02-03 16:48:36 +0000";
layers = (
{
anchors = (
{
name = "H-bar";
pos = (282,359);
},
{
name = bottom;
pos = (282,0);
},
{
name = top;
pos = (282,483);
}
);
layerId = "AE3FEF6D-3AA7-4252-B349-D2606A6A3B4C";
shapes = (
{
closed = 1;
nodes = (
(118,0,l),
(118,228,l),
(447,228,l),
(447,0,l),
(477,0,l),
(477,483,l),
(447,483,l),
(447,256,l),
(118,256,l),
(118,483,l),
(88,483,l),
(88,0,l)
);
}
);
vertWidth = 0;
width = 565;
},
{
anchors = (
{
name = "H-bar";
pos = (341,401);
},
{
name = bottom;
pos = (341,0);
},
{
name = top;
pos = (341,500);
}
);
layerId = "3FD7D777-D61F-402B-A269-3A472D550581";
shapes = (
{
closed = 1;
nodes = (
(250,0,l),
(250,185,l),
(438,185,l),
(438,0,l),
(639,0,l),
(639,500,l),
(438,500,l),
(438,316,l),
(250,316,l),
(250,500,l),
(47,500,l),
(47,0,l)
);
}
);
vertWidth = 0;
width = 685;
}
);
unicode = 668;
},
{
glyphname = Icapitalsmallsmall;
lastChange = "2026-02-03 16:50:23 +0000";
layers = (
{
anchors = (
{
name = bottom;
pos = (192,0);
},
{
name = top;
pos = (192,483);
}
);
layerId = "AE3FEF6D-3AA7-4252-B349-D2606A6A3B4C";
shapes = (
{
closed = 1;
nodes = (
(208,457,l),
(310,457,l),
(310,483,l),
(75,483,l),
(75,457,l),
(177,457,l),
(177,26,l),
(75,26,l),
(75,0,l),
(310,0,l),
(310,26,l),
(208,26,l)
);
}
);
width = 385;
},
{
anchors = (
{
name = bottom;
pos = (225,0);
},
{
name = top;
pos = (225,500);
}
);
layerId = "3FD7D777-D61F-402B-A269-3A472D550581";
shapes = (
{
closed = 1;
nodes = (
(318,356,l),
(411,356,l),
(411,500,l),
(21,500,l),
(21,356,l),
(114,356,l),
(114,144,l),
(21,144,l),
(21,0,l),
(411,0,l),
(411,144,l),
(318,144,l)
);
}
);
width = 432;
}
);
metricLeft = Icapitalsmall;
metricRight = Icapitalsmall;
},
{
glyphname = Ismall;
kernLeft = Ismall;
lastChange = "2026-02-03 18:38:49 +0000";
layers = (
{
anchors = (
{
name = bottom;
pos = (131,0);
},
{
name = bottom.alt;
pos = (131,0);
},
{
name = top;
pos = (131,483);
}
);
layerId = "AE3FEF6D-3AA7-4252-B349-D2606A6A3B4C";
shapes = (
{
closed = 1;
nodes = (
(147,483,l),
(116,483,l),
(116,0,l),
(147,0,l)
);
}
);
width = 263;
},
{
anchors = (
{
name = bottom;
pos = (147,0);
},
{
name = bottom.alt;
pos = (147,0);
},
{
name = top;
pos = (147,499);
}
);
layerId = "3FD7D777-D61F-402B-A269-3A472D550581";
shapes = (
{
closed = 1;
nodes = (
(249,500,l),
(45,500,l),
(45,0,l),
(249,0,l)
);
}
);
width = 294;
}
);
metricLeft = idotless;
metricRight = idotless;
unicode = 618;
},
{
glyphname = Jsmall;
kernLeft = Jsmall;
lastChange = "2026-02-03 16:48:36 +0000";
layers = (
{
anchors = (
{
name = bottom;
pos = (206,-5);
},
{
name = top;
pos = (351,483);
}
);
layerId = "AE3FEF6D-3AA7-4252-B349-D2606A6A3B4C";
shapes = (
{
closed = 1;
nodes = (
(309,-5,o),
(367,45,o),
(367,124,cs),
(367,483,l),
(336,483,l),
(336,124,ls),
(336,61,o),
(292,20,o),
(206,20,cs),
(120,20,o),
(75,61,o),
(75,124,c),
(44,124,l),
(44,45,o),
(103,-5,o),
(206,-5,cs)
);
}
);
vertWidth = 0;
width = 456;
},
{
anchors = (
{
name = bottom;
pos = (239,-10);
},
{
name = top;
pos = (383,500);
}
);
layerId = "3FD7D777-D61F-402B-A269-3A472D550581";
shapes = (
{
closed = 1;
nodes = (
(394,-10,o),
(484,57,o),
(484,166,cs),
(484,500,l),
(281,500,l),
(281,166,ls),
(281,138,o),
(265,121,o),
(228,121,cs),
(190,121,o),
(175,137,o),
(175,164,c),
(4,164,l),
(-7,56,o),
(78,-10,o),
(239,-10,cs)
);
}
);
vertWidth = 0;
width = 524;
}
);
unicode = 7434;
},
{
glyphname = Ksmall;
kernLeft = Ismall;
lastChange = "2026-02-03 16:48:36 +0000";
layers = (
{
anchors = (
{
name = bottom;
pos = (249,0);
},
{
name = top;
pos = (249,483);
}
);
layerId = "AE3FEF6D-3AA7-4252-B349-D2606A6A3B4C";
shapes = (
{
closed = 1;
nodes = (
(119,0,l),
(119,226,l),
(193,226,l),
(407,0,l),
(448,0,l),
(214,242,l),
(448,483,l),
(407,483,l),
(193,257,l),
(119,257,l),
(119,483,l),
(88,483,l),
(88,0,l)
);
}
);
vertWidth = 0;
width = 460;
},
{
anchors = (
{
name = bottom;
pos = (311,0);
},
{
name = top;
pos = (311,500);
}
);
layerId = "3FD7D777-D61F-402B-A269-3A472D550581";
shapes = (
{
closed = 1;
nodes = (
(241,0,l),
(241,185,l),
(250,185,l),
(390,0,l),
(619,0,l),
(379,249,l),
(618,500,l),
(391,500,l),
(250,327,l),
(241,327,l),
(241,500,l),
(38,500,l),
(38,0,l)
);
}
);
vertWidth = 0;
width = 609;
}
);
unicode = 7435;
},
{
glyphname = Lsmall;
kernLeft = Ismall;
kernRight = Lsmall;
lastChange = "2026-02-03 16:48:36 +0000";
layers = (
{
anchors = (
{
name = "L-slash";
pos = (135,253);
},
{
name = bottom;
pos = (312,0);
},
{
name = bottom.alt;
pos = (430,0);
},
{
name = middle_dot_I;
pos = (308,242);
},
{
name = top;
pos = (312,483);
},
{
name = top.alt;
pos = (245,483);
}
);
layerId = "AE3FEF6D-3AA7-4252-B349-D2606A6A3B4C";
shapes = (
{
closed = 1;
nodes = (
(447,0,l),
(447,25,l),
(151,25,l),
(151,483,l),
(119,483,l),
(119,0,l)
);
}
);
vertWidth = 0;
width = 473;
},
{
anchors = (
{
name = "L-slash";
pos = (151,316);
},
{
name = bottom;
pos = (270,0);
},
{
name = bottom.alt;
pos = (432,0);
},
{
name = middle_dot_I;
pos = (369,228);
},
{
name = top;
pos = (322,500);
},
{
name = top.alt;
pos = (216,500);
}
);
layerId = "3FD7D777-D61F-402B-A269-3A472D550581";
shapes = (
{
closed = 1;
nodes = (
(475,0,l),
(475,134,l),
(252,134,l),
(252,500,l),
(51,500,l),
(51,0,l)
);
}
);
vertWidth = 0;
width = 494;
}
);
unicode = 671;
},
{
glyphname = Msmall;
kernLeft = Ismall;
lastChange = "2026-02-03 16:48:36 +0000";
layers = (
{
anchors = (
{
name = bottom;
pos = (349,0);
},
{
name = top;
pos = (349,483);
}
);
layerId = "AE3FEF6D-3AA7-4252-B349-D2606A6A3B4C";
shapes = (
{
closed = 1;
nodes = (
(114,0,l),
(114,466,l),
(119,466,l),
(321,0,l),
(378,0,l),
(602,469,l),
(608,469,l),
(608,0,l),
(639,0,l),
(639,483,l),
(576,483,l),
(351,19,l),
(347,19,l),
(148,483,l),
(84,483,l),
(84,0,l)
);
}
);
vertWidth = 0;
width = 723;
},
{
anchors = (
{
name = bottom;
pos = (399,0);
},
{
name = top;
pos = (399,500);
}
);
layerId = "3FD7D777-D61F-402B-A269-3A472D550581";
shapes = (
{
closed = 1;
nodes = (
(237,0,l),
(237,234,l),
(243,234,l),
(336,0,l),
(460,0,l),
(554,233,l),
(560,233,l),
(560,0,l),
(762,0,l),
(762,500,l),
(531,500,l),
(402,178,l),
(394,178,l),
(265,500,l),
(35,500,l),
(35,0,l)
);
}
);
vertWidth = 0;
width = 797;
}
);
unicode = 7437;
},
{
glyphname = Nsmall;
kernLeft = Ismall;
lastChange = "2026-02-03 16:48:36 +0000";
layers = (
{
anchors = (
{
name = bottom;
pos = (271,0);
},
{
name = top;
pos = (300,483);
}
);
layerId = "AE3FEF6D-3AA7-4252-B349-D2606A6A3B4C";
shapes = (
{
closed = 1;
nodes = (
(118,0,l),
(118,459,l),
(123,459,l),
(425,0,l),
(479,0,l),
(479,483,l),
(448,483,l),
(448,24,l),
(443,24,l),
(142,483,l),
(88,483,l),
(88,0,l)
);
}
);
vertWidth = 0;
width = 566;
},
{
anchors = (
{
name = bottom;
pos = (338,0);
},
{
name = top;
pos = (354,500);
}
);
layerId = "3FD7D777-D61F-402B-A269-3A472D550581";
shapes = (
{
closed = 1;
nodes = (
(249,0,l),
(249,248,l),
(254,248,l),
(459,0,l),
(647,0,l),
(647,500,l),
(445,500,l),
(445,250,l),
(439,250,l),
(234,500,l),
(47,500,l),
(47,0,l)
);
}
);
vertWidth = 0;
width = 692;
}
);
unicode = 628;
},
{
glyphname = Osmall;
kernLeft = Gsmall;
lastChange = "2026-02-03 16:48:36 +0000";
layers = (
{
anchors = (
{
name = "O-slash";
pos = (271,234);
},
{
name = bottom;
pos = (271,-5);
},
{
name = bottom.alt;
pos = (271,-5);
},
{
name = top;
pos = (271,489);
},
{
name = top.alt;
pos = (361,453);
}
);
layerId = "AE3FEF6D-3AA7-4252-B349-D2606A6A3B4C";
shapes = (
{
closed = 1;
nodes = (
(419,-5,o),
(500,98,o),
(500,242,cs),
(500,386,o),
(419,489,o),
(271,489,cs),
(122,489,o),
(40,386,o),
(40,242,cs),
(40,98,o),
(122,-5,o),
(271,-5,cs)
);
},
{
closed = 1;
nodes = (
(132,20,o),
(68,120,o),
(68,242,cs),
(68,363,o),
(132,463,o),
(271,463,cs),
(409,463,o),
(473,363,o),
(473,242,cs),
(473,121,o),
(409,20,o),
(271,20,cs)
);
}
);
vertWidth = 0;
width = 540;
},
{
anchors = (
{
name = "O-slash";
pos = (316,245);
},
{
name = bottom;
pos = (316,-10);
},
{
name = bottom.alt;
pos = (316,-10);
},
{
name = top;
pos = (316,510);
},
{
name = top.alt;
pos = (418,431);
}
);
layerId = "3FD7D777-D61F-402B-A269-3A472D550581";
shapes = (
{
closed = 1;
nodes = (
(515,-10,o),
(611,73,o),
(611,249,cs),
(611,425,o),
(515,510,o),
(316,510,cs),
(117,510,o),
(19,425,o),
(19,249,cs),
(19,73,o),
(117,-10,o),
(316,-10,cs)
);
},
{
closed = 1;
nodes = (
(253,122,o),
(221,162,o),
(221,249,cs),
(221,335,o),
(253,375,o),
(316,375,cs),
(380,375,o),
(412,335,o),
(412,249,cs),
(412,162,o),
(380,122,o),
(316,122,cs)
);
}
);
vertWidth = 0;
width = 630;
}
);
unicode = 7439;
},
{
glyphname = Psmall;
kernLeft = Ismall;
kernRight = Psmall;
lastChange = "2026-02-03 16:48:36 +0000";
layers = (
{
anchors = (
{
name = bottom;
pos = (262,0);
},
{
name = top;
pos = (262,483);
}
);
layerId = "AE3FEF6D-3AA7-4252-B349-D2606A6A3B4C";
shapes = (
{
closed = 1;
nodes = (
(119,0,l),
(119,207,l),
(262,207,ls),
(375,207,o),
(445,250,o),
(445,345,cs),
(445,450,o),
(375,483,o),
(262,483,cs),
(88,483,l),
(88,0,l)
);
},
{
closed = 1;
nodes = (
(119,458,l),
(262,458,ls),
(364,458,o),
(414,432,o),
(414,345,cs),
(414,268,o),
(364,232,o),
(262,232,cs),
(119,232,l)
);
}
);
vertWidth = 0;
width = 462;
},
{
anchors = (
{
name = bottom;
pos = (300,0);
},
{
name = top;
pos = (300,500);
}
);
layerId = "3FD7D777-D61F-402B-A269-3A472D550581";
shapes = (
{
closed = 1;
nodes = (
(244,0,l),
(244,167,l),
(325,167,ls),
(477,167,o),
(564,228,o),
(564,333,cs),
(564,436,o),
(479,500,o),
(325,500,cs),
(40,500,l),
(40,0,l)
);
},
{
closed = 1;
nodes = (
(244,388,l),
(289,388,ls),
(340,388,o),
(362,373,o),
(362,335,cs),
(362,296,o),
(340,278,o),
(289,278,cs),
(244,278,l)
);
}
);
vertWidth = 0;
width = 581;
}
);
unicode = 7448;
},
{
glyphname = Rsmall;
lastChange = "2026-02-03 16:50:16 +0000";
layers = (
{
anchors = (
{
name = bottom;
pos = (262,0);
},
{
name = top;
pos = (262,483);
}
);
layerId = "AE3FEF6D-3AA7-4252-B349-D2606A6A3B4C";
shapes = (
{
closed = 1;
nodes = (
(119,0,l),
(119,207,l),
(262,207,ls),
(375,207,o),
(445,250,o),
(445,345,cs),
(445,450,o),
(375,483,o),
(262,483,cs),
(88,483,l),
(88,0,l)
);
},
{
closed = 1;
nodes = (
(483,0,l),
(347,225,l),
(316,225,l),
(449,0,l)
);
},
{
closed = 1;
nodes = (
(119,458,l),
(262,458,ls),
(364,458,o),
(414,432,o),
(414,345,cs),
(414,268,o),
(364,232,o),
(262,232,cs),
(119,232,l)
);
}
);
vertWidth = 0;
width = 528;
},
{
anchors = (
{
name = bottom;
pos = (305,0);
},
{
name = top;
pos = (305,500);
}
);
background = {
shapes = (
{
pos = (14,0);
ref = R;
scale = (0.7553,0.7553);
}
);
};
layerId = "3FD7D777-D61F-402B-A269-3A472D550581";
shapes = (
{
closed = 1;
nodes = (
(260,0,l),
(260,167,l),
(341,167,ls),
(493,167,o),
(580,228,o),
(580,333,cs),
(580,436,o),
(495,500,o),
(341,500,cs),
(56,500,l),
(56,0,l)
);
},
{
closed = 1;
nodes = (
(628,0,l),
(491,227,l),
(316,227,l),
(430,0,l)
);
},
{
closed = 1;
nodes = (
(260,388,l),
(305,388,ls),
(356,388,o),
(378,373,o),
(378,335,cs),
(378,296,o),
(356,278,o),
(305,278,cs),
(260,278,l)
);
}
);
vertWidth = 0;
width = 611;
}
);
unicode = 640;
},
{
glyphname = Ssmall;
kernLeft = Ssmall;
lastChange = "2026-02-03 16:48:36 +0000";
layers = (
{
anchors = (
{
name = bottom;
pos = (224,-5);
},
{
name = top;
pos = (215,489);
}
);
layerId = "AE3FEF6D-3AA7-4252-B349-D2606A6A3B4C";
shapes = (
{
closed = 1;
nodes = (
(319,-5,o),
(399,38,o),
(399,120,cs),
(399,205,o),
(331,232,o),
(227,260,cs),
(130,286,o),
(84,306,o),
(84,368,cs),
(84,434,o),
(136,464,o),
(214,464,cs),
(292,464,o),
(355,428,o),
(355,356,c),
(387,356,l),
(387,437,o),
(304,489,o),
(215,489,cs),
(122,489,o),
(53,441,o),
(53,367,cs),
(53,285,o),
(126,257,o),
(218,231,cs),
(322,202,o),
(367,187,o),
(367,118,cs),
(367,47,o),
(304,21,o),
(224,21,cs),
(143,21,o),
(72,52,o),
(72,127,c),
(42,127,l),
(42,41,o),
(132,-5,o),
(224,-5,cs)
);
}
);
vertWidth = 0;
width = 439;
},
{
anchors = (
{
name = bottom;
pos = (278,-10);
},
{
name = top;
pos = (289,510);
}
);
layerId = "3FD7D777-D61F-402B-A269-3A472D550581";
shapes = (
{
closed = 1;
nodes = (
(440,-10,o),
(547,50,o),
(547,151,cs),
(547,233,o),
(477,261,o),
(279,311,cs),
(257,317,o),
(230,324,o),
(230,345,cs),
(230,364,o),
(252,379,o),
(291,379,cs),
(328,379,o),
(349,365,o),
(349,338,c),
(540,338,l),
(540,444,o),
(444,510,o),
(289,510,cs),
(138,510,o),
(35,447,o),
(35,348,cs),
(35,263,o),
(111,231,o),
(282,185,cs),
(330,172,o),
(352,167,o),
(352,150,cs),
(352,130,o),
(322,120,o),
(281,120,cs),
(235,120,o),
(212,133,o),
(212,173,c),
(21,173,l),
(21,52,o),
(114,-10,o),
(278,-10,cs)
);
}
);
vertWidth = 0;
width = 566;
}
);
unicode = 42801;
},
{
glyphname = Tsmall;
kernLeft = Tsmall;
kernRight = Tsmall;
lastChange = "2026-02-03 16:48:36 +0000";
layers = (
{
anchors = (
{
name = "T-bar";
pos = (249,314);
},
{
name = bottom;
pos = (250,0);
},
{
name = top;
pos = (250,483);
}
);
layerId = "AE3FEF6D-3AA7-4252-B349-D2606A6A3B4C";
shapes = (
{
closed = 1;
nodes = (
(265,0,l),
(265,458,l),
(459,458,l),
(459,483,l),
(40,483,l),
(40,458,l),
(234,458,l),
(234,0,l)
);
}
);
vertWidth = 0;
width = 499;
},
{
anchors = (
{
name = "T-bar";
pos = (290,270);
},
{
name = bottom;
pos = (290,0);
},
{
name = top;
pos = (290,500);
}
);
layerId = "3FD7D777-D61F-402B-A269-3A472D550581";
shapes = (
{
closed = 1;
nodes = (
(392,0,l),
(392,356,l),
(562,356,l),
(562,500,l),
(21,500,l),
(21,356,l),
(189,356,l),
(189,0,l)
);
}
);
vertWidth = 0;
width = 583;
}
);
unicode = 7451;
},
{
glyphname = Usmall;
kernLeft = Ismall;
lastChange = "2026-02-03 16:48:36 +0000";
layers = (
{
anchors = (
{
name = bottom;
pos = (250,-5);
},
{
name = bottom.alt;
pos = (250,-5);
},
{
name = top;
pos = (251,483);
},
{
name = top.alt;
pos = (422,461);
}
);
layerId = "AE3FEF6D-3AA7-4252-B349-D2606A6A3B4C";
shapes = (
{
closed = 1;
nodes = (
(366,-5,o),
(439,62,o),
(439,167,cs),
(439,483,l),
(409,483,l),
(409,167,ls),
(409,77,o),
(347,19,o),
(250,19,cs),
(154,19,o),
(91,77,o),
(91,167,cs),
(91,483,l),
(61,483,l),
(61,167,ls),
(61,61,o),
(134,-5,o),
(250,-5,cs)
);
}
);
vertWidth = 0;
width = 498;
},
{
anchors = (
{
name = bottom;
pos = (314,-10);
},
{
name = bottom.alt;
pos = (314,-6);
},
{
name = top;
pos = (313,499);
},
{
name = top.alt;
pos = (529,415);
}
);
layerId = "3FD7D777-D61F-402B-A269-3A472D550581";
shapes = (
{
closed = 1;
nodes = (
(495,-10,o),
(592,64,o),
(592,202,cs),
(592,500,l),
(404,500,l),
(404,209,ls),
(404,152,o),
(375,124,o),
(314,124,cs),
(253,124,o),
(223,151,o),
(223,209,cs),
(223,500,l),
(35,500,l),
(35,202,ls),
(35,64,o),
(132,-10,o),
(314,-10,cs)
);
}
);
vertWidth = 0;
width = 626;
}
);
unicode = 7452;
},
{
glyphname = Vsmall;
kernLeft = Vsmall;
kernRight = v;
lastChange = "2026-02-03 16:48:36 +0000";
layers = (
{
anchors = (
{
name = bottom;
pos = (221,0);
},
{
name = top;
pos = (221,483);
}
);
layerId = "AE3FEF6D-3AA7-4252-B349-D2606A6A3B4C";
shapes = (
{
closed = 1;
nodes = (
(243,0,l),
(442,483,l),
(409,483,l),
(223,19,l),
(218,19,l),
(32,483,l),
(-1,483,l),
(198,0,l)
);
}
);
vertWidth = 0;
width = 441;
},
{
anchors = (
{
name = bottom;
pos = (290,0);
},
{
name = top;
pos = (290,500);
}
);
layerId = "3FD7D777-D61F-402B-A269-3A472D550581";
shapes = (
{
closed = 1;
nodes = (
(408,0,l),
(601,500,l),
(394,500,l),
(295,165,l),
(290,165,l),
(188,500,l),
(-19,500,l),
(178,0,l)
);
}
);
vertWidth = 0;
width = 581;
}
);
unicode = 7456;
},
{
glyphname = Wsmall;
kernLeft = Vsmall;
lastChange = "2026-02-03 16:48:36 +0000";
layers = (
{
anchors = (
{
name = bottom;
pos = (355,0);
},
{
name = top;
pos = (355,483);
}
);
layerId = "AE3FEF6D-3AA7-4252-B349-D2606A6A3B4C";
shapes = (
{
closed = 1;
nodes = (
(220,0,l),
(352,466,l),
(357,466,l),
(486,0,l),
(546,0,l),
(699,483,l),
(666,483,l),
(518,14,l),
(513,14,l),
(382,483,l),
(327,483,l),
(196,14,l),
(191,14,l),
(42,483,l),
(10,483,l),
(163,0,l)
);
}
);
vertWidth = 0;
width = 709;
},
{
anchors = (
{
name = bottom;
pos = (419,0);
},
{
name = top;
pos = (419,500);
}
);
layerId = "3FD7D777-D61F-402B-A269-3A472D550581";
shapes = (
{
closed = 1;
nodes = (
(329,0,l),
(416,247,l),
(421,247,l),
(509,0,l),
(703,0,l),
(848,500,l),
(659,500,l),
(589,213,l),
(584,213,l),
(493,500,l),
(346,500,l),
(255,213,l),
(250,213,l),
(178,500,l),
(-10,500,l),
(125,0,l)
);
}
);
vertWidth = 0;
width = 838;
}
);
unicode = 7457;
},
{
glyphname = Ysmall;
kernLeft = Ysmall;
kernRight = Ysmall;
lastChange = "2026-02-03 16:48:36 +0000";
layers = (
{
anchors = (
{
name = bottom;
pos = (208,0);
},
{
name = top;
pos = (208,483);
}
);
layerId = "AE3FEF6D-3AA7-4252-B349-D2606A6A3B4C";
shapes = (
{
closed = 1;
nodes = (
(223,0,l),
(223,208,l),
(422,483,l),
(388,483,l),
(207,236,l),
(27,483,l),
(-7,483,l),
(191,208,l),
(191,0,l)
);
}
);
vertWidth = 0;
width = 416;
},
{
anchors = (
{
name = bottom;
pos = (312,0);
},
{
name = top;
pos = (312,500);
}
);
layerId = "3FD7D777-D61F-402B-A269-3A472D550581";
shapes = (
{
closed = 1;
nodes = (
(416,0,l),
(416,214,l),
(644,500,l),
(410,500,l),
(313,351,l),
(216,500,l),
(-19,500,l),
(212,214,l),
(212,0,l)
);
}
);
vertWidth = 0;
width = 625;
}
);
unicode = 655;
},
{
glyphname = Zsmall;
lastChange = "2026-02-03 16:48:36 +0000";
layers = (
{
anchors = (
{
name = bottom;
pos = (243,0);
},
{
name = top;
pos = (243,483);
}
);
layerId = "AE3FEF6D-3AA7-4252-B349-D2606A6A3B4C";
shapes = (
{
closed = 1;
nodes = (
(438,0,l),
(438,25,l),
(74,25,l),
(438,445,l),
(438,483,l),
(48,483,l),
(48,459,l),
(412,459,l),
(48,39,l),
(48,0,l)
);
}
);
vertWidth = 0;
width = 486;
},
{
anchors = (
{
name = bottom;
pos = (289,0);
},
{
name = top;
pos = (289,500);
}
);
layerId = "3FD7D777-D61F-402B-A269-3A472D550581";
shapes = (
{
closed = 1;
nodes = (
(539,0,l),
(539,143,l),
(284,143,l),
(539,396,l),
(539,500,l),
(35,500,l),
(35,356,l),
(289,356,l),
(35,104,l),
(35,0,l)
);
}
);
vertWidth = 0;
width = 579;
}
);
unicode = 7458;
},
{
color = 3;
glyphname = a;
kernLeft = a;
lastChange = "2026-02-02 19:03:32 +0000";
layers = (
{
anchors = (
{
name = bottom;
pos = (278,-5);
},
{
name = bottom.alt;
pos = (434,5);
},
{
name = top;
pos = (264,488);
}
);
layerId = "AE3FEF6D-3AA7-4252-B349-D2606A6A3B4C";
shapes = (
{
pos = (6,0);
ref = uniE00B;
},
{
closed = 1;
nodes = (
(450,0,l),
(450,359,ls),
(450,438,o),
(367,488,o),
(264,488,cs),
(161,488,o),
(77,438,o),
(77,359,c),
(107,359,l),
(107,421,o),
(178,462,o),
(263,462,cs),
(349,462,o),
(420,421,o),
(420,359,cs),
(420,0,l)
);
}
);
vertWidth = 0;
width = 535;
},
{
anchors = (
{
name = bottom;
pos = (294,-6);
},
{
name = bottom.alt;
pos = (445,-1);
},
{
name = top;
pos = (282,510);
}
);
layerId = "3FD7D777-D61F-402B-A269-3A472D550581";
shapes = (
{
pos = (1,0);
ref = uniE00B;
},
{
closed = 1;
nodes = (
(541,0,l),
(541,328,ls),
(541,441,o),
(436,510,o),
(282,510,cs),
(130,510,o),
(29,442,o),
(39,328,c),
(211,328,l),
(211,361,o),
(238,379,o),
(274,379,cs),
(310,379,o),
(337,361,o),
(337,328,cs),
(337,0,l)
);
}
);
vertWidth = 0;
width = 567;
},
{
associatedMasterId = "AE3FEF6D-3AA7-4252-B349-D2606A6A3B4C";
layerId = "BA32C98D-1F8A-42D1-AC7F-B4136B9691E2";
width = 600;
}
);
metricRight = h;
unicode = 97;
},
{
glyphname = aa;
lastChange = "2026-01-27 21:10:07 +0000";
layers = (
{
layerId = "AE3FEF6D-3AA7-4252-B349-D2606A6A3B4C";
shapes = (
{
closed = 1;
nodes = (
(450,132,l),
(450,359,ls),
(450,438,o),
(367,488,o),
(264,488,cs),
(161,488,o),
(77,438,o),
(77,359,c),
(107,359,l),
(107,421,o),
(178,462,o),
(263,462,cs),
(349,462,o),
(420,421,o),
(420,359,cs),
(420,132,l),
(437,132,l)
);
},
{
pos = (6,0);
ref = uniE00B;
},
{
pos = (359,0);
ref = uniE00B;
},
{
closed = 1;
nodes = (
(803,0,l),
(803,359,ls),
(803,438,o),
(715,488,o),
(612,488,cs),
(509,488,o),
(420,438,o),
(420,359,c),
(450,359,l),
(450,421,o),
(526,462,o),
(611,462,cs),
(697,462,o),
(773,421,o),
(773,359,cs),
(773,0,l)
);
}
);
vertWidth = 0;
width = 888;
},
{
layerId = "3FD7D777-D61F-402B-A269-3A472D550581";
shapes = (
{
closed = 1;
nodes = (
(541,174,l),
(541,330,ls),
(541,443,o),
(436,512,o),
(282,512,cs),
(130,512,o),
(29,444,o),
(39,330,c),
(211,330,l),
(211,363,o),
(241,381,o),
(274,381,cs),
(307,381,o),
(337,363,o),
(337,330,cs),
(337,86,l),
(410,86,l)
);
},
{
pos = (1,0);
ref = uniE00B;
},
{
pos = (335,0);
ref = uniE00B;
},
{
closed = 1;
nodes = (
(875,0,l),
(875,330,ls),
(875,443,o),
(768,512,o),
(614,512,cs),
(462,512,o),
(359,444,o),
(369,330,c),
(541,330,l),
(541,363,o),
(573,381,o),
(606,381,cs),
(639,381,o),
(671,363,o),
(671,330,cs),
(671,0,l)
);
}
);
vertWidth = 0;
width = 901;
}
);
metricLeft = a;
metricRight = a;
unicode = 42803;
},
{
glyphname = ao;
lastChange = "2026-01-28 16:25:41 +0000";
layers = (
{
layerId = "AE3FEF6D-3AA7-4252-B349-D2606A6A3B4C";
shapes = (
{
pos = (6,0);
ref = uniE00B;
},
{
pos = (368,0);
ref = o;
},
{
closed = 1;
nodes = (
(450,111,l),
(450,359,ls),
(450,438,o),
(367,488,o),
(264,488,cs),
(161,488,o),
(77,438,o),
(77,359,c),
(107,359,l),
(107,421,o),
(178,462,o),
(263,462,cs),
(349,462,o),
(420,421,o),
(420,359,cs),
(420,111,l)
);
}
);
vertWidth = 0;
width = 925;
},
{
layerId = "3FD7D777-D61F-402B-A269-3A472D550581";
shapes = (
{
pos = (1,0);
ref = uniE00B;
},
{
pos = (321,0);
ref = o;
},
{
closed = 1;
nodes = (
(541,86,l),
(541,330,ls),
(541,443,o),
(436,512,o),
(282,512,cs),
(130,512,o),
(29,444,o),
(39,330,c),
(211,330,l),
(211,363,o),
(241,381,o),
(274,381,cs),
(307,381,o),
(337,363,o),
(337,330,cs),
(337,86,l)
);
}
);
vertWidth = 0;
width = 919;
}
);
metricLeft = a;
metricRight = o;
unicode = 42805;
},
{
glyphname = au;
lastChange = "2026-01-28 16:25:16 +0000";
layers = (
{
layerId = "AE3FEF6D-3AA7-4252-B349-D2606A6A3B4C";
shapes = (
{
pos = (6,0);
ref = uniE00B;
},
{
closed = 1;
nodes = (
(812,0,l),
(812,483,l),
(781,483,l),
(781,0,l)
);
},
{
closed = 1;
nodes = (
(420,181,ls),
(420,60,o),
(493,-5,o),
(583,-5,cs),
(678,-5,o),
(756,67,o),
(777,151,c),
(783,151,l),
(781,222,l),
(756,110,o),
(681,22,o),
(585,22,cs),
(511,22,o),
(450,76,o),
(450,180,cs),
(450,359,ls),
(450,438,o),
(367,488,o),
(264,488,cs),
(161,488,o),
(77,438,o),
(77,359,c),
(107,359,l),
(107,421,o),
(178,462,o),
(263,462,cs),
(349,462,o),
(420,421,o),
(420,359,cs)
);
}
);
vertWidth = 0;
width = 928;
},
{
layerId = "3FD7D777-D61F-402B-A269-3A472D550581";
shapes = (
{
pos = (1,0);
ref = uniE00B;
},
{
closed = 1;
nodes = (
(895,0,l),
(895,500,l),
(692,500,l),
(692,0,l)
);
},
{
closed = 1;
nodes = (
(337,170,ls),
(337,56,o),
(404,-6,o),
(518,-6,cs),
(603,-6,o),
(657,28,o),
(686,101,c),
(711,101,l),
(693,191,l),
(680,156,o),
(653,127,o),
(611,127,cs),
(572,127,o),
(541,149,o),
(541,199,cs),
(541,330,ls),
(541,443,o),
(436,512,o),
(282,512,cs),
(130,512,o),
(29,444,o),
(39,330,c),
(211,330,l),
(211,363,o),
(241,381,o),
(274,381,cs),
(307,381,o),
(337,363,o),
(337,330,cs)
);
}
);
vertWidth = 0;
width = 940;
}
);
metricLeft = a;
metricRight = u;
unicode = 42807;
},
{
glyphname = av;
kernRight = v;
lastChange = "2026-01-27 21:10:07 +0000";
layers = (
{
layerId = "AE3FEF6D-3AA7-4252-B349-D2606A6A3B4C";
shapes = (
{
closed = 1;
nodes = (
(617,0,l),
(809,483,l),
(777,483,l),
(594,21,l),
(589,21,l),
(456,351,ls),
(423,432,o),
(367,488,o),
(261,488,cs),
(161,488,o),
(77,438,o),
(77,359,c),
(107,359,l),
(107,421,o),
(178,462,o),
(261,462,cs),
(349,462,o),
(397,416,o),
(424,351,cs),
(567,0,l)
);
},
{
closed = 1;
nodes = (
(314,-5,o),
(389,35,o),
(451,116,c),
(433,132,l),
(361,53,o),
(302,21,o),
(228,21,cs),
(147,21,o),
(98,60,o),
(98,122,cs),
(98,184,o),
(146,221,o),
(242,231,cs),
(474,258,l),
(474,284,l),
(239,257,ls),
(126,244,o),
(67,198,o),
(67,122,cs),
(67,44,o),
(129,-5,o),
(226,-5,cs)
);
}
);
vertWidth = 0;
width = 824;
},
{
layerId = "3FD7D777-D61F-402B-A269-3A472D550581";
shapes = (
{
closed = 1;
nodes = (
(708,0,l),
(911,498,l),
(695,498,l),
(596,185,l),
(591,185,l),
(546,323,ls),
(516,459,o),
(436,512,o),
(294,512,cs),
(130,512,o),
(29,444,o),
(39,330,c),
(211,330,l),
(211,363,o),
(241,381,o),
(274,381,cs),
(307,381,o),
(328,363,o),
(345,323,cs),
(479,0,l)
);
},
{
closed = 1;
nodes = (
(277,-15,o),
(355,19,o),
(411,80,c),
(364,153,l),
(326,125,o),
(296,116,o),
(266,116,cs),
(230,116,o),
(211,127,o),
(211,149,cs),
(211,171,o),
(230,186,o),
(274,188,cs),
(417,193,l),
(417,303,l),
(250,298,ls),
(106,294,o),
(25,248,o),
(25,134,cs),
(25,30,o),
(92,-15,o),
(181,-15,cs)
);
}
);
vertWidth = 0;
width = 885;
}
);
metricLeft = a;
metricRight = v;
unicode = 42809;
},
{
glyphname = avhorizontalbar;
kernRight = v;
lastChange = "2026-01-27 21:10:07 +0000";
layers = (
{
layerId = "AE3FEF6D-3AA7-4252-B349-D2606A6A3B4C";
shapes = (
{
closed = 1;
nodes = (
(731,317,l),
(731,344,l),
(450,344,l),
(450,317,l)
);
},
{
ref = av;
}
);
vertWidth = 0;
width = 824;
},
{
layerId = "3FD7D777-D61F-402B-A269-3A472D550581";
shapes = (
{
closed = 1;
nodes = (
(660,323,l),
(690,415,l),
(481,415,l),
(517,323,l)
);
},
{
ref = av;
}
);
vertWidth = 0;
width = 885;
}
);
metricLeft = a;
metricRight = v;
unicode = 42811;
},
{
glyphname = ay;
kernRight = v;
lastChange = "2026-01-27 21:10:07 +0000";
layers = (
{
layerId = "AE3FEF6D-3AA7-4252-B349-D2606A6A3B4C";
shapes = (
{
closed = 1;
nodes = (
(395,-233,ls),
(489,-233,o),
(538,-198,o),
(575,-102,c),
(809,483,l),
(777,483,l),
(594,21,l),
(589,21,l),
(456,351,ls),
(423,432,o),
(367,488,o),
(261,488,cs),
(161,488,o),
(77,438,o),
(77,359,c),
(107,359,l),
(107,421,o),
(178,462,o),
(261,462,cs),
(349,462,o),
(397,416,o),
(424,351,cs),
(575,-21,l),
(545,-96,ls),
(512,-181,o),
(480,-207,o),
(395,-207,cs),
(387,-207,l),
(387,-233,l)
);
},
{
closed = 1;
nodes = (
(313,-5,o),
(389,35,o),
(451,116,c),
(433,132,l),
(361,53,o),
(302,21,o),
(228,21,cs),
(147,21,o),
(98,60,o),
(98,122,cs),
(98,184,o),
(146,221,o),
(242,231,cs),
(474,258,l),
(474,284,l),
(239,257,ls),
(126,244,o),
(67,198,o),
(67,122,cs),
(67,44,o),
(129,-5,o),
(226,-5,cs)
);
}
);
vertWidth = 0;
width = 824;
},
{
layerId = "3FD7D777-D61F-402B-A269-3A472D550581";
shapes = (
{
closed = 1;
nodes = (
(456,-199,ls),
(575,-199,o),
(651,-142,o),
(708,0,c),
(911,498,l),
(695,498,l),
(599,193,l),
(594,193,l),
(546,323,ls),
(499,450,o),
(436,512,o),
(287,512,cs),
(130,512,o),
(29,444,o),
(39,330,c),
(211,330,l),
(211,363,o),
(241,381,o),
(275,381,cs),
(307,381,o),
(324,365,o),
(345,323,cs),
(507,8,l),
(504,1,ls),
(486,-44,o),
(454,-60,o),
(386,-60,cs),
(339,-60,l),
(339,-199,l)
);
},
{
closed = 1;
nodes = (
(277,-15,o),
(355,19,o),
(411,80,c),
(364,153,l),
(326,125,o),
(296,116,o),
(266,116,cs),
(230,116,o),
(211,127,o),
(211,149,cs),
(211,171,o),
(230,186,o),
(274,188,cs),
(417,193,l),
(417,303,l),
(250,298,ls),
(106,294,o),
(25,248,o),
(25,134,cs),
(25,30,o),
(92,-15,o),
(181,-15,cs)
);
}
);
vertWidth = 0;
width = 885;
}
);
metricLeft = a;
metricRight = y;
unicode = 42813;
},
{
glyphname = ae;
lastChange = "2026-01-28 16:25:54 +0000";
layers = (
{
anchors = (
{
name = bottom;
pos = (421,-5);
},
{
name = top;
pos = (442,488);
}
);
layerId = "AE3FEF6D-3AA7-4252-B349-D2606A6A3B4C";
shapes = (
{
closed = 1;
nodes = (
(450,170,l),
(450,359,ls),
(450,438,o),
(367,488,o),
(264,488,cs),
(161,488,o),
(77,438,o),
(77,359,c),
(107,359,l),
(107,421,o),
(178,462,o),
(263,462,cs),
(349,462,o),
(420,421,o),
(420,359,cs),
(420,170,l)
);
},
{
pos = (368,0);
ref = e;
},
{
closed = 1;
nodes = (
(338,-5,o),
(438,73,o),
(438,168,c),
(420,180,l),
(420,90,o),
(335,21,o),
(225,21,cs),
(147,21,o),
(97,63,o),
(97,128,cs),
(97,196,o),
(151,238,o),
(244,243,cs),
(439,251,l),
(439,277,l),
(238,268,ls),
(131,263,o),
(67,211,o),
(67,129,cs),
(67,49,o),
(130,-5,o),
(219,-5,cs)
);
}
);
vertWidth = 0;
width = 909;
},
{
anchors = (
{
name = bottom;
pos = (386,-10);
},
{
name = top;
pos = (465,512);
}
);
layerId = "3FD7D777-D61F-402B-A269-3A472D550581";
shapes = (
{
closed = 1;
nodes = (
(552,139,l),
(552,330,ls),
(552,443,o),
(447,512,o),
(289,512,cs),
(131,512,o),
(30,443,o),
(40,330,c),
(212,330,l),
(212,363,o),
(242,381,o),
(280,381,cs),
(318,381,o),
(348,363,o),
(348,330,cs),
(348,139,l)
);
},
{
pos = (330,0);
ref = e;
},
{
closed = 1;
nodes = (
(284,-15,o),
(380,52,o),
(395,186,c),
(350,200,l),
(340,139,o),
(312,116,o),
(266,116,cs),
(230,116,o),
(211,127,o),
(211,149,cs),
(211,171,o),
(230,186,o),
(274,188,cs),
(417,193,l),
(417,303,l),
(250,298,ls),
(106,294,o),
(25,248,o),
(25,134,cs),
(25,30,o),
(92,-15,o),
(181,-15,cs)
);
}
);
vertWidth = 0;
width = 924;
}
);
metricLeft = a;
metricRight = e;
unicode = 230;
},
{
glyphname = b;
lastChange = "2026-01-27 21:10:07 +0000";
layers = (
{
anchors = (
{
name = bottom;
pos = (280,-5);
},
{
name = top;
pos = (280,681);
}
);
layerId = "AE3FEF6D-3AA7-4252-B349-D2606A6A3B4C";
shapes = (
{
closed = 1;
nodes = (
(127,0,l),
(127,681,l),
(95,681,l),
(95,0,l)
);
},
{
pos = (1,0);
ref = uniE00F;
}
);
vertWidth = 0;
width = 601;
},
{
anchors = (
{
name = bottom;
pos = (283,-5);
},
{
name = top;
pos = (283,688);
}
);
layerId = "3FD7D777-D61F-402B-A269-3A472D550581";
shapes = (
{
closed = 1;
nodes = (
(250,-1,l),
(250,688,l),
(47,688,l),
(47,-1,l)
);
},
{
pos = (30,-1);
ref = uniE00F;
}
);
vertWidth = 0;
width = 627;
}
);
metricLeft = l;
metricRight = o;
unicode = 98;
},
{
color = 8;
glyphname = bhook;
lastChange = "2026-01-27 21:10:07 +0000";
layers = (
{
layerId = "AE3FEF6D-3AA7-4252-B349-D2606A6A3B4C";
shapes = (
{
pos = (1,0);
ref = uniE00F;
},
{
closed = 1;
nodes = (
(95,0,l),
(127,0,l),
(127,573,ls),
(127,635,o),
(164,663,o),
(228,663,cs),
(260,663,o),
(285,654,o),
(297,644,c),
(313,664,l),
(296,678,o),
(265,689,o),
(228,689,cs),
(152,689,o),
(95,654,o),
(95,574,cs)
);
}
);
vertWidth = 0;
width = 601;
},
{
layerId = "3FD7D777-D61F-402B-A269-3A472D550581";
shapes = (
{
pos = (30,-1);
ref = uniE00F;
},
{
closed = 1;
nodes = (
(47,-1,l),
(250,-1,l),
(250,538,ls),
(250,561,o),
(269,573,o),
(303,573,cs),
(319,573,o),
(340,571,o),
(361,566,c),
(388,674,l),
(343,689,o),
(291,698,o),
(241,698,cs),
(140,698,o),
(47,660,o),
(47,553,cs)
);
}
);
vertWidth = 0;
width = 627;
}
);
metricLeft = l;
metricRight = o;
unicode = 595;
},
{
color = 3;
glyphname = c;
kernLeft = c;
lastChange = "2026-02-02 19:04:35 +0000";
layers = (
{
anchors = (
{
name = bottom;
pos = (277,-5);
},
{
name = top;
pos = (277,488);
}
);
layerId = "AE3FEF6D-3AA7-4252-B349-D2606A6A3B4C";
shapes = (
{
closed = 1;
nodes = (
(381,-5,o),
(457,42,o),
(490,136,c),
(458,136,l),
(435,70,o),
(377,21,o),
(277,21,cs),
(143,21,o),
(84,112,o),
(84,241,cs),
(84,370,o),
(143,462,o),
(277,462,cs),
(377,462,o),
(435,413,o),
(458,347,c),
(490,347,l),
(457,441,o),
(381,488,o),
(277,488,cs),
(137,488,o),
(52,397,o),
(52,241,cs),
(52,85,o),
(137,-5,o),
(277,-5,cs)
);
}
);
vertWidth = 0;
width = 547;
},
{
anchors = (
{
name = bottom;
pos = (299,-10);
},
{
name = top;
pos = (299,510);
}
);
layerId = "3FD7D777-D61F-402B-A269-3A472D550581";
shapes = (
{
closed = 1;
nodes = (
(471,-10,o),
(561,86,o),
(570,202,c),
(373,202,l),
(367,163,o),
(349,116,o),
(299,116,cs),
(247,116,o),
(221,159,o),
(221,250,cs),
(221,337,o),
(247,381,o),
(299,381,cs),
(349,381,o),
(367,336,o),
(373,296,c),
(570,296,l),
(561,410,o),
(471,510,o),
(299,510,cs),
(127,510,o),
(19,410,o),
(19,249,cs),
(19,86,o),
(127,-10,o),
(299,-10,cs)
);
}
);
vertWidth = 0;
width = 568;
}
);
metricLeft = o;
unicode = 99;
},
{
color = 3;
glyphname = ccurl;
lastChange = "2026-01-27 21:09:20 +0000";
layers = (
{
layerId = "AE3FEF6D-3AA7-4252-B349-D2606A6A3B4C";
shapes = (
{
closed = 1;
nodes = (
(214,153,o),
(281,228,o),
(378,228,cs),
(435,228,o),
(470,192,o),
(470,145,cs),
(470,67,o),
(382,21,o),
(300,21,cs),
(176,21,o),
(95,91,o),
(95,242,cs),
(95,393,o),
(176,462,o),
(291,462,cs),
(382,462,o),
(444,418,o),
(470,346,c),
(498,356,l),
(466,440,o),
(394,488,o),
(291,488,cs),
(157,488,o),
(65,407,o),
(65,242,cs),
(65,77,o),
(157,-5,o),
(299,-5,cs),
(401,-5,o),
(498,56,o),
(498,144,cs),
(498,212,o),
(450,254,o),
(377,254,cs),
(268,254,o),
(196,178,o),
(53,-17,c),
(72,-30,l)
);
}
);
vertWidth = 0;
width = 547;
},
{
layerId = "3FD7D777-D61F-402B-A269-3A472D550581";
shapes = (
{
closed = 1;
nodes = (
(212,114,o),
(287,189,o),
(340,189,cs),
(359,189,o),
(372,177,o),
(372,160,cs),
(372,134,o),
(344,116,o),
(309,116,cs),
(246,116,o),
(220,159,o),
(220,249,cs),
(220,337,o),
(246,381,o),
(298,381,cs),
(341,381,o),
(363,348,o),
(370,313,c),
(559,341,l),
(537,436,o),
(447,512,o),
(298,512,cs),
(126,512,o),
(18,410,o),
(18,248,cs),
(18,86,o),
(126,-15,o),
(301,-15,cs),
(442,-15,o),
(537,56,o),
(537,151,cs),
(537,231,o),
(471,284,o),
(367,284,cs),
(227,284,o),
(94,193,o),
(-5,28,c),
(110,-39,l)
);
}
);
vertWidth = 0;
width = 568;
}
);
metricWidth = c;
unicode = 597;
},
{
glyphname = d;
kernLeft = c;
lastChange = "2026-01-27 21:10:07 +0000";
layers = (
{
anchors = (
{
name = bottom;
pos = (317,-5);
},
{
name = bottom.alt;
pos = (489,0);
},
{
name = "d-bar";
pos = (490,555);
},
{
name = top;
pos = (317,678);
},
{
name = top.alt;
pos = (505,678);
}
);
layerId = "AE3FEF6D-3AA7-4252-B349-D2606A6A3B4C";
shapes = (
{
closed = 1;
nodes = (
(505,0,ls),
(505,678,l),
(474,678,l),
(474,0,l)
);
},
{
pos = (-15,0);
ref = uniE01C;
}
);
vertWidth = 0;
width = 600;
},
{
anchors = (
{
name = bottom;
pos = (330,-6);
},
{
name = bottom.alt;
pos = (478,-1);
},
{
name = "d-bar";
pos = (479,555);
},
{
name = top;
pos = (330,688);
},
{
name = top.alt;
pos = (579,686);
}
);
layerId = "3FD7D777-D61F-402B-A269-3A472D550581";
shapes = (
{
closed = 1;
nodes = (
(580,-1,ls),
(580,688,l),
(377,688,l),
(377,-1,l)
);
},
{
pos = (-82,0);
ref = uniE01C;
}
);
vertWidth = 0;
width = 627;
}
);
metricLeft = o;
metricRight = l;
unicode = 100;
},
{
glyphname = dezh;
lastChange = "2026-01-27 21:10:07 +0000";
layers = (
{
layerId = "AE3FEF6D-3AA7-4252-B349-D2606A6A3B4C";
shapes = (
{
ref = d;
},
{
pos = (536,0);
ref = ezh;
},
{
closed = 1;
nodes = (
(485,457,l),
(584,457,l),
(584,483,l),
(485,483,l)
);
}
);
width = 1103;
},
{
layerId = "3FD7D777-D61F-402B-A269-3A472D550581";
shapes = (
{
ref = d;
},
{
pos = (624,0);
ref = ezh;
},
{
closed = 1;
nodes = (
(548,359,l),
(679,359,l),
(679,500,l),
(548,500,l)
);
}
);
width = 1267;
}
);
metricLeft = d;
metricRight = ezh;
unicode = 676;
},
{
color = 8;
glyphname = dhook;
kernLeft = c;
lastChange = "2026-01-27 21:10:07 +0000";
layers = (
{
layerId = "AE3FEF6D-3AA7-4252-B349-D2606A6A3B4C";
shapes = (
{
pos = (-15,0);
ref = uniE01C;
},
{
closed = 1;
nodes = (
(474,0,l),
(505,0,l),
(505,573,ls),
(505,635,o),
(542,663,o),
(606,663,cs),
(638,663,o),
(663,654,o),
(675,644,c),
(691,664,l),
(674,678,o),
(643,689,o),
(606,689,cs),
(530,689,o),
(474,654,o),
(474,574,cs),
(474,92,l)
);
}
);
vertWidth = 0;
width = 702;
},
{
layerId = "3FD7D777-D61F-402B-A269-3A472D550581";
shapes = (
{
pos = (-82,0);
ref = uniE01C;
},
{
closed = 1;
nodes = (
(418,-1,l),
(580,-1,l),
(580,538,ls),
(580,561,o),
(599,573,o),
(633,573,cs),
(649,573,o),
(670,569,o),
(691,564,c),
(718,674,l),
(673,689,o),
(621,698,o),
(571,698,cs),
(470,698,o),
(377,660,o),
(377,553,cs),
(377,98,l)
);
}
);
vertWidth = 0;
width = 682;
}
);
metricLeft = o;
metricRight = esh;
unicode = 599;
},
{
glyphname = dzaltone;
lastChange = "2026-01-27 21:10:07 +0000";
layers = (
{
anchors = (
{
name = bottom;
pos = (784,0);
},
{
name = top;
pos = (784,483);
}
);
layerId = "AE3FEF6D-3AA7-4252-B349-D2606A6A3B4C";
shapes = (
{
ref = d;
userData = {
UFO.identifier = FB8DD7CE;
UFO.lib = {
};
};
},
{
pos = (586,0);
ref = z;
userData = {
UFO.identifier = 0F6C48D0;
UFO.lib = {
};
};
},
{
closed = 1;
nodes = (
(490,457,l),
(980,457,l),
(1005,483,l),
(490,483,l)
);
}
);
width = 1038;
},
{
anchors = (
{
name = bottom;
pos = (904,-1);
},
{
name = top;
pos = (899,497);
}
);
layerId = "3FD7D777-D61F-402B-A269-3A472D550581";
shapes = (
{
ref = d;
userData = {
UFO.identifier = FB8DD7CE;
UFO.lib = {
};
};
},
{
pos = (624,0);
ref = z;
userData = {
UFO.identifier = 0F6C48D0;
UFO.lib = {
};
};
},
{
closed = 1;
nodes = (
(473,359,l),
(904,359,l),
(1139,500,l),
(473,500,l)
);
}
);
width = 1185;
}
);
metricLeft = d;
metricRight = z;
unicode = 675;
},
{
glyphname = dzcurl;
lastChange = "2026-01-27 21:10:07 +0000";
layers = (
{
anchors = (
{
name = bottom;
pos = (784,0);
},
{
name = top;
pos = (784,483);
}
);
layerId = "AE3FEF6D-3AA7-4252-B349-D2606A6A3B4C";
shapes = (
{
ref = d;
userData = {
UFO.identifier = FB8DD7CE;
UFO.lib = {
};
};
},
{
pos = (586,0);
ref = zcurl;
userData = {
UFO.identifier = 0F6C48D0;
UFO.lib = {
};
};
},
{
closed = 1;
nodes = (
(490,457,l),
(980,457,l),
(1005,483,l),
(490,483,l)
);
}
);
width = 1193;
},
{
anchors = (
{
name = bottom;
pos = (904,-1);
},
{
name = top;
pos = (899,497);
}
);
layerId = "3FD7D777-D61F-402B-A269-3A472D550581";
shapes = (
{
ref = d;
userData = {
UFO.identifier = FB8DD7CE;
UFO.lib = {
};
};
},
{
pos = (624,0);
ref = zcurl;
userData = {
UFO.identifier = 0F6C48D0;
UFO.lib = {
};
};
},
{
closed = 1;
nodes = (
(473,359,l),
(904,359,l),
(1139,500,l),
(473,500,l)
);
}
);
width = 1455;
}
);
metricLeft = d;
metricRight = z;
unicode = 677;
},
{
color = 3;
glyphname = eth;
lastChange = "2026-01-27 21:09:20 +0000";
layers = (
{
layerId = "AE3FEF6D-3AA7-4252-B349-D2606A6A3B4C";
shapes = (
{
closed = 1;
nodes = (
(423,-5,o),
(505,91,o),
(505,245,cs),
(505,380,o),
(427,541,o),
(310,638,c),
(399,705,l),
(383,724,l),
(294,653,l),
(253,683,o),
(212,702,o),
(184,715,c),
(172,692,l),
(203,679,o),
(242,660,o),
(271,636,c),
(168,559,l),
(185,539,l),
(290,622,l),
(356,568,o),
(426,478,o),
(464,384,c),
(460,382,l),
(419,460,o),
(355,488,o),
(278,488,cs),
(133,488,o),
(51,394,o),
(51,242,cs),
(51,90,o),
(133,-5,o),
(278,-5,cs)
);
},
{
closed = 1;
nodes = (
(142,21,o),
(83,117,o),
(83,242,cs),
(83,366,o),
(142,462,o),
(278,462,cs),
(416,462,o),
(473,366,o),
(473,242,cs),
(473,117,o),
(416,21,o),
(278,21,cs)
);
}
);
vertWidth = 0;
width = 557;
},
{
layerId = "3FD7D777-D61F-402B-A269-3A472D550581";
shapes = (
{
closed = 1;
nodes = (
(491,-15,o),
(579,83,o),
(579,292,cs),
(579,430,o),
(533,542,o),
(394,662,c),
(443,693,l),
(396,759,l),
(326,712,l),
(280,742,o),
(204,773,o),
(143,780,c),
(123,670,l),
(155,665,o),
(200,653,o),
(226,641,c),
(173,607,l),
(225,543,l),
(292,592,l),
(326,569,o),
(382,518,o),
(405,480,c),
(401,474,l),
(357,502,o),
(315,511,o),
(279,511,cs),
(142,511,o),
(19,429,o),
(19,249,cs),
(19,94,o),
(108,-15,o),
(305,-15,cs)
);
},
{
closed = 1;
nodes = (
(248,117,o),
(221,152,o),
(221,246,cs),
(221,344,o),
(249,379,o),
(297,379,cs),
(345,379,o),
(377,344,o),
(377,248,cs),
(377,152,o),
(346,117,o),
(297,117,cs)
);
}
);
vertWidth = 0;
width = 598;
}
);
metricWidth = o;
unicode = 240;
},
{
color = 3;
glyphname = e;
kernLeft = c;
lastChange = "2026-02-02 19:05:27 +0000";
layers = (
{
anchors = (
{
name = bottom;
pos = (279,-5);
},
{
name = bottom.alt;
pos = (279,-5);
},
{
name = top;
pos = (274,488);
}
);
layerId = "AE3FEF6D-3AA7-4252-B349-D2606A6A3B4C";
shapes = (
{
closed = 1;
nodes = (
(380,-5,o),
(452,41,o),
(484,121,c),
(451,121,l),
(429,68,o),
(372,21,o),
(279,21,cs),
(149,21,o),
(82,111,o),
(82,239,c),
(496,239,l),
(499,383,o),
(435,488,o),
(274,488,cs),
(141,488,o),
(52,399,o),
(52,242,cs),
(52,85,o),
(137,-5,o),
(279,-5,cs)
);
},
{
closed = 1;
nodes = (
(89,381,o),
(156,462,o),
(274,462,cs),
(413,462,o),
(457,375,o),
(465,265,c),
(83,265,l)
);
}
);
vertWidth = 0;
width = 541;
},
{
anchors = (
{
name = bottom;
pos = (296,-10);
},
{
name = bottom.alt;
pos = (296,-5);
},
{
name = top;
pos = (298,510);
}
);
layerId = "3FD7D777-D61F-402B-A269-3A472D550581";
shapes = (
{
closed = 1;
nodes = (
(449,-10,o),
(533,68,o),
(565,147,c),
(353,147,l),
(346,131,o),
(327,116,o),
(296,116,cs),
(251,116,o),
(226,145,o),
(224,193,c),
(575,193,l),
(601,381,o),
(495,510,o),
(298,510,cs),
(127,510,o),
(19,410,o),
(19,249,cs),
(19,86,o),
(127,-10,o),
(296,-10,cs)
);
},
{
closed = 1;
nodes = (
(226,349,o),
(255,381,o),
(298,381,cs),
(344,381,o),
(373,352,o),
(373,299,c),
(226,299,l)
);
}
);
vertWidth = 0;
width = 594;
}
);
metricLeft = o;
unicode = 101;
},
{
color = 3;
glyphname = esh;
lastChange = "2026-01-27 21:09:20 +0000";
layers = (
{
layerId = "AE3FEF6D-3AA7-4252-B349-D2606A6A3B4C";
shapes = (
{
closed = 1;
nodes = (
(69,-238,o),
(127,-203,o),
(127,-123,cs),
(127,573,ls),
(127,635,o),
(164,663,o),
(228,663,cs),
(260,663,o),
(285,654,o),
(297,644,c),
(313,664,l),
(296,678,o),
(265,689,o),
(228,689,cs),
(152,689,o),
(95,654,o),
(95,574,cs),
(95,-122,ls),
(95,-184,o),
(57,-211,o),
(-6,-211,cs),
(-38,-211,o),
(-63,-203,o),
(-75,-192,c),
(-91,-213,l),
(-74,-227,o),
(-43,-238,o),
(-6,-238,cs)
);
}
);
vertWidth = 0;
width = 324;
},
{
layerId = "3FD7D777-D61F-402B-A269-3A472D550581";
shapes = (
{
closed = 1;
nodes = (
(179,-230,o),
(272,-191,o),
(272,-85,cs),
(272,505,ls),
(272,535,o),
(290,547,o),
(324,547,cs),
(340,547,o),
(361,545,o),
(382,539,c),
(409,647,l),
(364,663,o),
(312,672,o),
(262,672,cs),
(161,672,o),
(68,633,o),
(68,527,cs),
(68,-62,ls),
(68,-93,o),
(49,-105,o),
(15,-105,cs),
(-1,-105,o),
(-21,-102,o),
(-42,-98,c),
(-70,-206,l),
(-25,-222,o),
(27,-230,o),
(77,-230,cs)
);
}
);
vertWidth = 0;
width = 373;
}
);
unicode = 643;
},
{
color = 3;
glyphname = ezh;
lastChange = "2026-01-27 21:09:20 +0000";
layers = (
{
anchors = (
{
name = bottom;
pos = (260,-238);
},
{
name = top;
pos = (259,483);
}
);
layerId = "AE3FEF6D-3AA7-4252-B349-D2606A6A3B4C";
shapes = (
{
closed = 1;
nodes = (
(425,-238,o),
(517,-152,o),
(517,-17,cs),
(517,129,o),
(409,185,o),
(266,186,c),
(266,190,l),
(484,442,l),
(484,483,l),
(40,483,l),
(40,457,l),
(460,457,l),
(460,453,l),
(233,191,l),
(233,157,l),
(260,157,ls),
(396,157,o),
(490,110,o),
(490,-18,cs),
(490,-131,o),
(416,-209,o),
(259,-209,cs),
(166,-209,o),
(95,-182,o),
(59,-123,c),
(40,-144,l),
(74,-200,o),
(150,-238,o),
(260,-238,cs)
);
}
);
vertWidth = 0;
width = 567;
},
{
anchors = (
{
name = bottom;
pos = (317,-226);
},
{
name = top;
pos = (298,500);
}
);
layerId = "3FD7D777-D61F-402B-A269-3A472D550581";
shapes = (
{
closed = 1;
nodes = (
(523,-226,o),
(628,-122,o),
(628,2,cs),
(628,117,o),
(540,202,o),
(424,223,c),
(424,230,l),
(584,374,l),
(584,500,l),
(33,500,l),
(33,359,l),
(360,359,l),
(360,351,l),
(177,186,l),
(177,87,l),
(298,87,ls),
(370,87,o),
(420,60,o),
(420,-5,cs),
(420,-58,o),
(386,-93,o),
(316,-93,cs),
(266,-93,o),
(221,-73,o),
(221,-9,c),
(12,-9,l),
(12,-137,o),
(127,-226,o),
(317,-226,cs)
);
}
);
vertWidth = 0;
width = 643;
}
);
unicode = 658;
},
{
color = 3;
glyphname = ezhcurl;
lastChange = "2026-01-27 21:09:20 +0000";
layers = (
{
layerId = "AE3FEF6D-3AA7-4252-B349-D2606A6A3B4C";
shapes = (
{
closed = 1;
nodes = (
(265,190,l),
(483,442,l),
(483,483,l),
(39,483,l),
(39,457,l),
(459,457,l),
(459,453,l),
(232,191,l),
(232,157,l),
(259,157,ls),
(395,157,o),
(489,110,o),
(489,-18,cs),
(489,-131,o),
(415,-209,o),
(266,-209,cs),
(155,-209,o),
(63,-166,o),
(63,-88,cs),
(63,-40,o),
(99,-5,o),
(159,-5,cs),
(238,-5,o),
(297,-62,o),
(297,-224,cs),
(297,-321,l),
(322,-322,l),
(322,-223,ls),
(322,-55,o),
(250,21,o),
(154,21,cs),
(83,21,o),
(36,-21,o),
(36,-86,cs),
(36,-177,o),
(129,-238,o),
(260,-238,cs),
(424,-238,o),
(516,-142,o),
(516,-12,cs),
(516,129,o),
(408,185,o),
(265,186,c)
);
}
);
vertWidth = 0;
width = 566;
},
{
layerId = "3FD7D777-D61F-402B-A269-3A472D550581";
shapes = (
{
closed = 1;
nodes = (
(444,230,l),
(604,374,l),
(604,500,l),
(53,500,l),
(53,359,l),
(380,359,l),
(380,351,l),
(197,186,l),
(197,87,l),
(332,87,ls),
(390,87,o),
(440,58,o),
(440,-3,cs),
(440,-61,o),
(386,-93,o),
(282,-93,cs),
(229,-93,o),
(181,-84,o),
(181,-56,cs),
(181,-41,o),
(195,-29,o),
(221,-29,cs),
(260,-29,o),
(288,-55,o),
(288,-144,cs),
(288,-292,l),
(413,-292,l),
(413,-138,ls),
(413,5,o),
(315,66,o),
(200,66,cs),
(90,66,o),
(12,10,o),
(12,-69,cs),
(12,-164,o),
(126,-226,o),
(299,-226,cs),
(522,-226,o),
(648,-125,o),
(648,5,cs),
(648,120,o),
(559,202,o),
(444,223,c)
);
}
);
vertWidth = 0;
width = 663;
}
);
unicode = 659;
},
{
color = 3;
glyphname = f;
lastChange = "2026-01-27 21:09:20 +0000";
layers = (
{
anchors = (
{
name = bottom;
pos = (170,0);
},
{
name = top;
pos = (287,689);
}
);
layerId = "AE3FEF6D-3AA7-4252-B349-D2606A6A3B4C";
shapes = (
{
closed = 1;
nodes = (
(185,0,l),
(185,573,ls),
(185,635,o),
(224,663,o),
(287,663,cs),
(319,663,o),
(344,654,o),
(356,643,c),
(372,664,l),
(355,678,o),
(324,689,o),
(287,689,cs),
(212,689,o),
(154,654,o),
(154,574,cs),
(154,0,l)
);
},
{
pos = (14,215);
ref = uniE00A;
}
);
vertWidth = 0;
width = 387;
},
{
anchors = (
{
name = bottom;
pos = (162,0);
},
{
name = top;
pos = (254,698);
}
);
background = {
shapes = (
{
pos = (-21,133);
ref = uniE00A;
}
);
};
layerId = "3FD7D777-D61F-402B-A269-3A472D550581";
shapes = (
{
closed = 1;
nodes = (
(265,0,l),
(265,528,ls),
(265,558,o),
(283,573,o),
(316,573,cs),
(335,573,o),
(361,569,o),
(375,564,c),
(401,674,l),
(348,689,o),
(299,698,o),
(254,698,cs),
(135,698,o),
(61,647,o),
(61,556,cs),
(61,0,l)
);
},
{
pos = (-21,133);
ref = uniE00A;
}
);
vertWidth = 0;
width = 405;
}
);
unicode = 102;
},
{
glyphname = fengdigraph;
lastChange = "2026-01-27 21:14:59 +0000";
layers = (
{
layerId = "AE3FEF6D-3AA7-4252-B349-D2606A6A3B4C";
shapes = (
{
ref = f;
},
{
pos = (300,0);
ref = eng;
},
{
closed = 1;
nodes = (
(323,457,l),
(417,457,l),
(417,483,l),
(323,483,l)
);
}
);
width = 892;
},
{
layerId = "3FD7D777-D61F-402B-A269-3A472D550581";
shapes = (
{
ref = f;
},
{
pos = (375,0);
ref = eng;
},
{
closed = 1;
nodes = (
(386,359,l),
(424,359,l),
(424,500,l),
(386,500,l)
);
}
);
width = 1015;
}
);
metricLeft = f;
metricRight = eng;
unicode = 681;
},
{
glyphname = g;
kernLeft = c;
kernRight = g;
lastChange = "2026-01-27 21:10:07 +0000";
layers = (
{
anchors = (
{
name = "T-bar";
pos = (424,244);
},
{
name = bottom;
pos = (279,-238);
},
{
name = top;
pos = (361,487);
}
);
layerId = "AE3FEF6D-3AA7-4252-B349-D2606A6A3B4C";
shapes = (
{
pos = (-15,0);
ref = uniE01C;
},
{
closed = 1;
nodes = (
(52,-76,l),
(54,-178,o),
(155,-238,o),
(279,-238,cs),
(403,-238,o),
(505,-178,o),
(505,-73,cs),
(505,483,l),
(474,483,l),
(474,-73,ls),
(474,-161,o),
(383,-212,o),
(277,-212,cs),
(173,-212,o),
(84,-162,o),
(82,-76,c)
);
}
);
vertWidth = 0;
width = 601;
},
{
anchors = (
{
name = "T-bar";
pos = (459,244);
},
{
name = bottom;
pos = (292,-226);
},
{
name = top;
pos = (330,500);
}
);
layerId = "3FD7D777-D61F-402B-A269-3A472D550581";
shapes = (
{
pos = (-82,0);
ref = uniE01C;
},
{
closed = 1;
nodes = (
(20,-44,l),
(9,-159,o),
(120,-226,o),
(292,-226,cs),
(467,-226,o),
(581,-157,o),
(581,-44,cs),
(581,500,l),
(378,500,l),
(378,-44,ls),
(378,-77,o),
(346,-95,o),
(301,-95,cs),
(255,-95,o),
(223,-77,o),
(223,-44,c)
);
}
);
vertWidth = 0;
width = 620;
}
);
metricLeft = o;
metricRight = "=|p";
unicode = 103;
},
{
color = 3;
glyphname = h;
lastChange = "2026-01-27 21:09:20 +0000";
layers = (
{
anchors = (
{
name = bottom;
pos = (287,0);
},
{
name = "d-bar";
pos = (110,555);
},
{
name = top;
pos = (287,681);
}
);
layerId = "AE3FEF6D-3AA7-4252-B349-D2606A6A3B4C";
shapes = (
{
closed = 1;
nodes = (
(126,0,l),
(126,681,l),
(95,681,l),
(95,0,l)
);
},
{
pos = (6,0);
ref = uniE00D;
}
);
vertWidth = 0;
width = 572;
},
{
anchors = (
{
name = bottom;
pos = (322,0);
},
{
name = "d-bar";
pos = (147,556);
},
{
name = top;
pos = (322,688);
}
);
layerId = "3FD7D777-D61F-402B-A269-3A472D550581";
shapes = (
{
closed = 1;
nodes = (
(250,0,l),
(250,688,l),
(47,688,l),
(47,0,l)
);
},
{
pos = (58,0);
ref = uniE00D;
}
);
vertWidth = 0;
width = 642;
}
);
metricLeft = l;
unicode = 104;
},
{
color = 3;
glyphname = idotless;
lastChange = "2026-01-27 21:09:20 +0000";
layers = (
{
anchors = (
{
name = bottom;
pos = (131,0);
},
{
name = bottom.alt;
pos = (131,0);
},
{
name = top;
pos = (131,483);
}
);
layerId = "AE3FEF6D-3AA7-4252-B349-D2606A6A3B4C";
shapes = (
{
closed = 1;
nodes = (
(147,0,l),
(147,483,l),
(116,483,l),
(116,0,l)
);
}
);
vertWidth = 0;
width = 263;
},
{
anchors = (
{
name = bottom;
pos = (146,0);
},
{
name = bottom.alt;
pos = (146,0);
},
{
name = top;
pos = (146,499);
}
);
layerId = "3FD7D777-D61F-402B-A269-3A472D550581";
shapes = (
{
closed = 1;
nodes = (
(249,0,l),
(249,500,l),
(45,500,l),
(45,0,l)
);
}
);
vertWidth = 0;
width = 294;
}
);
unicode = 305;
},
{
color = 3;
glyphname = jdotless;
kernLeft = j;
lastChange = "2026-01-27 21:09:20 +0000";
layers = (
{
anchors = (
{
name = bottom;
pos = (-7,-238);
},
{
name = top;
pos = (110,483);
}
);
layerId = "AE3FEF6D-3AA7-4252-B349-D2606A6A3B4C";
shapes = (
{
closed = 1;
nodes = (
(68,-238,o),
(125,-204,o),
(125,-124,cs),
(125,483,l),
(94,483,l),
(94,-122,ls),
(94,-184,o),
(57,-211,o),
(-7,-211,cs),
(-29,-211,o),
(-51,-208,o),
(-63,-206,c),
(-70,-230,l),
(-50,-235,o),
(-29,-238,o),
(-7,-238,cs)
);
}
);
vertWidth = 0;
width = 221;
},
{
anchors = (
{
name = bottom;
pos = (55,-227);
},
{
name = top;
pos = (147,499);
}
);
layerId = "3FD7D777-D61F-402B-A269-3A472D550581";
shapes = (
{
closed = 1;
nodes = (
(160,-226,o),
(249,-187,o),
(249,-85,cs),
(249,500,l),
(46,500,l),
(46,-64,ls),
(46,-90,o),
(25,-102,o),
(-6,-102,cs),
(-23,-102,o),
(-47,-99,o),
(-65,-95,c),
(-91,-203,l),
(-47,-216,o),
(5,-226,o),
(56,-226,cs)
);
}
);
vertWidth = 0;
width = 288;
}
);
metricRight = "=|p";
unicode = 567;
},
{
color = 3;
glyphname = k;
kernRight = k;
lastChange = "2026-01-27 21:09:20 +0000";
layers = (
{
anchors = (
{
name = bottom;
pos = (281,0);
},
{
name = top;
pos = (281,681);
}
);
layerId = "AE3FEF6D-3AA7-4252-B349-D2606A6A3B4C";
shapes = (
{
closed = 1;
nodes = (
(126,0,l),
(126,230,l),
(216,230,l),
(435,0,l),
(476,0,l),
(243,249,l),
(453,483,l),
(412,483,l),
(214,261,l),
(126,261,l),
(126,681,l),
(95,681,l),
(95,0,l)
);
}
);
vertWidth = 0;
width = 495;
},
{
anchors = (
{
name = bottom;
pos = (325,0);
},
{
name = top;
pos = (437,686);
}
);
layerId = "3FD7D777-D61F-402B-A269-3A472D550581";
shapes = (
{
closed = 1;
nodes = (
(249,0,l),
(249,217,l),
(262,217,l),
(414,0,l),
(665,0,l),
(438,273,l),
(645,500,l),
(394,500,l),
(262,311,l),
(249,311,l),
(249,688,l),
(47,688,l),
(47,0,l)
);
}
);
vertWidth = 0;
width = 653;
}
);
metricLeft = l;
unicode = 107;
},
{
color = 8;
glyphname = khook;
kernRight = k;
lastChange = "2026-01-27 21:12:01 +0000";
layers = (
{
layerId = "AE3FEF6D-3AA7-4252-B349-D2606A6A3B4C";
shapes = (
{
closed = 1;
nodes = (
(233,681,ls),
(122,681,o),
(51,630,o),
(51,547,cs),
(51,516,l),
(83,516,l),
(83,547,ls),
(83,615,o),
(140,655,o),
(233,655,c),
(233,0,l),
(264,0,l),
(264,230,l),
(354,230,l),
(573,0,l),
(614,0,l),
(381,249,l),
(591,483,l),
(550,483,l),
(352,261,l),
(264,261,l),
(264,681,l)
);
}
);
vertWidth = 0;
width = 633;
},
{
layerId = "3FD7D777-D61F-402B-A269-3A472D550581";
shapes = (
{
closed = 1;
nodes = (
(279,688,ls),
(116,688,o),
(12,619,o),
(12,511,cs),
(12,449,l),
(215,449,l),
(215,511,ls),
(215,540,o),
(242,556,o),
(279,556,c),
(279,0,l),
(481,0,l),
(481,217,l),
(494,217,l),
(646,0,l),
(897,0,l),
(670,273,l),
(877,500,l),
(626,500,l),
(494,311,l),
(481,311,l),
(481,688,l)
);
}
);
vertWidth = 0;
width = 885;
}
);
metricLeft = J;
metricRight = k;
unicode = 409;
},
{
color = 3;
glyphname = l;
lastChange = "2026-01-27 21:09:20 +0000";
layers = (
{
anchors = (
{
name = "L-slash";
pos = (111,342);
},
{
name = bottom;
pos = (111,0);
},
{
name = middle_dot_I;
pos = (201,363);
},
{
name = top;
pos = (111,681);
},
{
name = top.alt;
pos = (127,681);
}
);
layerId = "AE3FEF6D-3AA7-4252-B349-D2606A6A3B4C";
shapes = (
{
closed = 1;
nodes = (
(127,0,l),
(127,681,l),
(95,681,l),
(95,0,l)
);
}
);
vertWidth = 0;
width = 222;
},
{
anchors = (
{
name = "L-slash";
pos = (148,328);
},
{
name = bottom;
pos = (148,0);
},
{
name = middle_dot_I;
pos = (315,394);
},
{
name = top;
pos = (148,686);
},
{
name = top.alt;
pos = (248,686);
}
);
layerId = "3FD7D777-D61F-402B-A269-3A472D550581";
shapes = (
{
closed = 1;
nodes = (
(250,0,l),
(250,688,l),
(47,688,l),
(47,0,l)
);
}
);
vertWidth = 0;
width = 297;
}
);
unicode = 108;
},
{
glyphname = lezh;
lastChange = "2026-01-27 21:10:07 +0000";
layers = (
{
layerId = "AE3FEF6D-3AA7-4252-B349-D2606A6A3B4C";
shapes = (
{
ref = l;
userData = {
UFO.identifier = 53D54F9D;
UFO.lib = {
};
};
},
{
pos = (224,0);
ref = ezh;
userData = {
UFO.identifier = 4726571D;
UFO.lib = {
};
};
},
{
closed = 1;
nodes = (
(101,457,l),
(272,457,l),
(272,483,l),
(101,483,l)
);
}
);
width = 791;
},
{
layerId = "3FD7D777-D61F-402B-A269-3A472D550581";
shapes = (
{
ref = l;
userData = {
UFO.identifier = 53D54F9D;
UFO.lib = {
};
};
},
{
pos = (293,0);
ref = ezh;
userData = {
UFO.identifier = 4726571D;
UFO.lib = {
};
};
},
{
closed = 1;
nodes = (
(219,359,l),
(349,359,l),
(349,500,l),
(219,500,l)
);
}
);
width = 936;
}
);
metricLeft = l;
metricRight = ezh;
unicode = 622;
},
{
glyphname = lsdigraph;
lastChange = "2026-01-26 18:08:19 +0000";
layers = (
{
layerId = "AE3FEF6D-3AA7-4252-B349-D2606A6A3B4C";
shapes = (
{
ref = l;
userData = {
UFO.identifier = 42A5E318;
UFO.lib = {
};
};
},
{
pos = (204,0);
ref = s;
userData = {
UFO.identifier = 329C9C64;
UFO.lib = {
};
};
},
{
closed = 1;
nodes = (
(103,0,l),
(418,0,l),
(418,21,l),
(103,21,l)
);
}
);
width = 700;
},
{
layerId = "3FD7D777-D61F-402B-A269-3A472D550581";
shapes = (
{
ref = l;
userData = {
UFO.identifier = 42A5E318;
UFO.lib = {
};
};
},
{
pos = (293,0);
ref = s;
userData = {
UFO.identifier = 329C9C64;
UFO.lib = {
};
};
},
{
closed = 1;
nodes = (
(144,0,l),
(499,0,l),
(499,116,l),
(144,116,l)
);
}
);
width = 815;
}
);
unicode = 682;
},
{
glyphname = lzdigraph;
lastChange = "2026-01-27 21:10:07 +0000";
layers = (
{
layerId = "AE3FEF6D-3AA7-4252-B349-D2606A6A3B4C";
shapes = (
{
ref = l;
userData = {
UFO.identifier = 53D54F9D;
UFO.lib = {
};
};
},
{
pos = (224,0);
ref = z;
userData = {
UFO.identifier = 4726571D;
UFO.lib = {
};
};
},
{
closed = 1;
nodes = (
(104,457,l),
(272,457,l),
(272,483,l),
(104,483,l)
);
}
);
width = 676;
},
{
layerId = "3FD7D777-D61F-402B-A269-3A472D550581";
shapes = (
{
ref = l;
userData = {
UFO.identifier = 53D54F9D;
UFO.lib = {
};
};
},
{
pos = (293,0);
ref = z;
userData = {
UFO.identifier = 4726571D;
UFO.lib = {
};
};
},
{
closed = 1;
nodes = (
(219,359,l),
(349,359,l),
(349,500,l),
(219,500,l)
);
}
);
width = 854;
}
);
metricLeft = l;
metricRight = z;
unicode = 683;
},
{
glyphname = m;
kernLeft = m;
lastChange = "2026-02-03 18:13:02 +0000";
layers = (
{
anchors = (
{
name = bottom;
pos = (457,0);
},
{
name = top;
pos = (467,488);
}
);
layerId = "AE3FEF6D-3AA7-4252-B349-D2606A6A3B4C";
shapes = (
{
closed = 1;
nodes = (
(146,0,l),
(146,483,l),
(116,483,l),
(116,0,l)
);
},
{
closed = 1;
nodes = (
(436,0,l),
(467,0,l),
(467,282,ls),
(467,408,o),
(411,488,o),
(303,488,cs),
(225,488,o),
(174,444,o),
(150,366,c),
(136,366,l),
(136,251,l),
(146,251,l),
(146,381,o),
(199,461,o),
(298,461,cs),
(390,461,o),
(436,391,o),
(436,283,cs)
);
},
{
closed = 1;
nodes = (
(757,0,l),
(788,0,l),
(788,282,ls),
(788,408,o),
(732,488,o),
(624,488,cs),
(546,488,o),
(485,444,o),
(461,366,c),
(457,366,l),
(457,251,l),
(467,251,l),
(467,381,o),
(520,461,o),
(619,461,cs),
(711,461,o),
(757,391,o),
(757,283,cs)
);
}
);
vertWidth = 0;
width = 873;
},
{
anchors = (
{
name = bottom;
pos = (490,0);
},
{
name = top;
pos = (566,504);
}
);
layerId = "3FD7D777-D61F-402B-A269-3A472D550581";
shapes = (
{
closed = 1;
nodes = (
(247,0,l),
(247,500,l),
(45,500,l),
(45,0,l)
);
},
{
closed = 1;
nodes = (
(400,0,l),
(603,0,l),
(603,288,ls),
(603,426,o),
(529,510,o),
(423,510,cs),
(341,510,o),
(280,456,o),
(257,385,c),
(237,385,l),
(237,279,l),
(247,279,l),
(247,338,o),
(272,372,o),
(325,372,cs),
(375,372,o),
(400,340,o),
(400,288,cs)
);
},
{
closed = 1;
nodes = (
(756,0,l),
(959,0,l),
(959,288,ls),
(959,426,o),
(882,510,o),
(771,510,cs),
(684,510,o),
(620,456,o),
(597,385,c),
(573,385,l),
(573,279,l),
(603,279,l),
(603,338,o),
(628,372,o),
(681,372,cs),
(731,372,o),
(756,340,o),
(756,288,cs)
);
}
);
vertWidth = 0;
width = 985;
}
);
metricLeft = idotless;
metricRight = h;
unicode = 109;
},
{
glyphname = n;
kernLeft = m;
lastChange = "2026-01-27 21:10:07 +0000";
layers = (
{
anchors = (
{
name = bottom;
pos = (307,0);
},
{
name = top;
pos = (307,488);
}
);
layerId = "AE3FEF6D-3AA7-4252-B349-D2606A6A3B4C";
shapes = (
{
closed = 1;
nodes = (
(146,0,l),
(146,483,l),
(116,483,l),
(116,0,l)
);
},
{
pos = (26,0);
ref = uniE00D;
}
);
vertWidth = 0;
width = 592;
},
{
anchors = (
{
name = bottom;
pos = (318,0);
},
{
name = top;
pos = (318,503);
}
);
layerId = "3FD7D777-D61F-402B-A269-3A472D550581";
shapes = (
{
closed = 1;
nodes = (
(248,0,l),
(248,500,l),
(45,500,l),
(45,0,l)
);
},
{
pos = (56,0);
ref = uniE00D;
}
);
vertWidth = 0;
width = 640;
}
);
metricLeft = idotless;
metricRight = h;
unicode = 110;
},
{
glyphname = eng;
lastChange = "2026-01-31 18:21:00 +0000";
layers = (
{
layerId = "AE3FEF6D-3AA7-4252-B349-D2606A6A3B4C";
shapes = (
{
ref = n;
},
{
closed = 1;
nodes = (
(450,-238,o),
(507,-203,o),
(507,-123,cs),
(507,0,l),
(492,3,l),
(476,0,l),
(476,-122,ls),
(476,-184,o),
(438,-211,o),
(375,-211,cs),
(342,-211,o),
(316,-203,o),
(305,-192,c),
(290,-213,l),
(307,-227,o),
(337,-238,o),
(375,-238,cs)
);
}
);
width = 592;
},
{
layerId = "3FD7D777-D61F-402B-A269-3A472D550581";
shapes = (
{
ref = n;
},
{
closed = 1;
nodes = (
(522,-226,o),
(614,-187,o),
(614,-82,cs),
(614,0,l),
(512,20,l),
(411,0,l),
(411,-59,ls),
(411,-89,o),
(392,-101,o),
(357,-101,cs),
(341,-101,o),
(321,-98,o),
(299,-92,c),
(272,-201,l),
(317,-217,o),
(370,-226,o),
(418,-226,cs)
);
}
);
width = 640;
}
);
metricLeft = idotless;
metricRight = "=n";
unicode = 331;
},
{
color = 3;
glyphname = o;
kernLeft = c;
lastChange = "2026-02-02 19:06:45 +0000";
layers = (
{
anchors = (
{
name = bottom;
pos = (278,-4);
},
{
name = bottom.alt;
pos = (278,-4);
},
{
name = "o-slash";
pos = (269,245);
},
{
name = top;
pos = (278,487);
},
{
name = top.alt;
pos = (370,444);
}
);
layerId = "AE3FEF6D-3AA7-4252-B349-D2606A6A3B4C";
shapes = (
{
closed = 1;
nodes = (
(415,-4,o),
(505,94,o),
(505,243,cs),
(505,390,o),
(415,487,o),
(278,487,cs),
(142,487,o),
(52,390,o),
(52,243,cs),
(52,94,o),
(142,-4,o),
(278,-4,cs)
);
},
{
closed = 1;
nodes = (
(160,21,o),
(83,109,o),
(83,243,cs),
(83,376,o),
(160,462,o),
(278,462,cs),
(397,462,o),
(474,376,o),
(474,243,cs),
(474,109,o),
(397,21,o),
(278,21,cs)
);
}
);
vertWidth = 0;
width = 557;
},
{
anchors = (
{
name = bottom;
pos = (299,-10);
},
{
name = bottom.alt;
pos = (299,-5);
},
{
name = "o-slash";
pos = (298,240);
},
{
name = top;
pos = (299,511);
},
{
name = top.alt;
pos = (349,409);
}
);
layerId = "3FD7D777-D61F-402B-A269-3A472D550581";
shapes = (
{
closed = 1;
nodes = (
(471,-10,o),
(579,86,o),
(579,248,cs),
(579,410,o),
(471,510,o),
(299,510,cs),
(127,510,o),
(19,410,o),
(19,248,cs),
(19,86,o),
(127,-10,o),
(299,-10,cs)
);
},
{
closed = 1;
nodes = (
(247,116,o),
(221,159,o),
(221,248,cs),
(221,337,o),
(247,381,o),
(299,381,cs),
(351,381,o),
(377,337,o),
(377,248,cs),
(377,159,o),
(351,116,o),
(299,116,cs)
);
}
);
vertWidth = 0;
width = 598;
}
);
unicode = 111;
},
{
color = 8;
glyphname = obarred;
lastChange = "2026-01-27 21:12:23 +0000";
layers = (
{
layerId = "AE3FEF6D-3AA7-4252-B349-D2606A6A3B4C";
shapes = (
{
ref = o;
},
{
closed = 1;
nodes = (
(61,231,l),
(486,231,l),
(486,256,l),
(61,256,l)
);
}
);
width = 557;
},
{
layerId = "3FD7D777-D61F-402B-A269-3A472D550581";
shapes = (
{
ref = o;
},
{
closed = 1;
nodes = (
(121,207,l),
(475,207,l),
(475,294,l),
(121,294,l)
);
}
);
width = 598;
}
);
metricLeft = o;
metricRight = o;
unicode = 629;
},
{
color = 3;
glyphname = p;
kernLeft = m;
lastChange = "2026-01-27 21:09:20 +0000";
layers = (
{
anchors = (
{
name = bottom;
pos = (286,-233);
},
{
name = top;
pos = (286,488);
}
);
layerId = "AE3FEF6D-3AA7-4252-B349-D2606A6A3B4C";
shapes = (
{
closed = 1;
nodes = (
(128,-233,l),
(128,483,l),
(96,483,l),
(96,-233,l)
);
},
{
pos = (2,0);
ref = uniE00F;
}
);
vertWidth = 0;
width = 602;
},
{
anchors = (
{
name = bottom;
pos = (266,-209);
},
{
name = top;
pos = (266,482);
}
);
layerId = "3FD7D777-D61F-402B-A269-3A472D550581";
shapes = (
{
closed = 1;
nodes = (
(242,-216,l),
(242,500,l),
(39,500,l),
(39,-216,l)
);
},
{
pos = (23,-1);
ref = uniE00F;
}
);
vertWidth = 0;
width = 620;
}
);
metricRight = o;
unicode = 112;
},
{
glyphname = thorn;
lastChange = "2026-01-27 21:10:07 +0000";
layers = (
{
layerId = "AE3FEF6D-3AA7-4252-B349-D2606A6A3B4C";
shapes = (
{
closed = 1;
nodes = (
(127,-212,l),
(127,678,l),
(95,678,l),
(95,-212,l)
);
},
{
pos = (1,0);
ref = uniE00F;
}
);
vertWidth = 0;
width = 601;
},
{
layerId = "3FD7D777-D61F-402B-A269-3A472D550581";
shapes = (
{
closed = 1;
nodes = (
(250,-216,l),
(250,662,l),
(47,662,l),
(47,-216,l)
);
},
{
pos = (30,-1);
ref = uniE00F;
}
);
vertWidth = 0;
width = 627;
}
);
metricLeft = l;
metricRight = o;
unicode = 254;
},
{
glyphname = q;
kernLeft = c;
lastChange = "2026-01-27 21:10:07 +0000";
layers = (
{
anchors = (
{
name = bottom;
pos = (311,-233);
},
{
name = top;
pos = (312,488);
}
);
layerId = "AE3FEF6D-3AA7-4252-B349-D2606A6A3B4C";
shapes = (
{
closed = 1;
nodes = (
(505,-233,l),
(505,483,l),
(474,483,l),
(474,-233,l)
);
},
{
pos = (-15,0);
ref = uniE01C;
}
);
vertWidth = 0;
width = 601;
},
{
anchors = (
{
name = bottom;
pos = (319,-214);
},
{
name = top;
pos = (320,482);
}
);
layerId = "3FD7D777-D61F-402B-A269-3A472D550581";
shapes = (
{
closed = 1;
nodes = (
(580,-216,l),
(580,500,l),
(377,500,l),
(377,-216,l)
);
},
{
pos = (-82,0);
ref = uniE01C;
}
);
vertWidth = 0;
width = 619;
}
);
metricLeft = o;
metricRight = "=|p";
unicode = 113;
},
{
glyphname = qpdigraph;
lastChange = "2026-01-27 21:10:07 +0000";
layers = (
{
layerId = "AE3FEF6D-3AA7-4252-B349-D2606A6A3B4C";
shapes = (
{
closed = 1;
nodes = (
(506,-233,l),
(506,483,l),
(474,483,l),
(474,-233,l)
);
},
{
pos = (-15,0);
ref = uniE01C;
},
{
pos = (380,0);
ref = uniE00F;
}
);
vertWidth = 0;
width = 980;
},
{
layerId = "3FD7D777-D61F-402B-A269-3A472D550581";
shapes = (
{
closed = 1;
nodes = (
(579,-216,l),
(579,500,l),
(377,500,l),
(377,-216,l)
);
},
{
pos = (-82,0);
ref = uniE01C;
},
{
pos = (359,0);
ref = uniE00F;
}
);
vertWidth = 0;
width = 956;
}
);
metricLeft = o;
metricRight = o;
unicode = 569;
},
{
color = 3;
glyphname = r;
kernLeft = m;
kernRight = r;
lastChange = "2026-01-27 21:09:20 +0000";
layers = (
{
anchors = (
{
name = bottom;
pos = (220,0);
},
{
name = top;
pos = (254,488);
}
);
layerId = "AE3FEF6D-3AA7-4252-B349-D2606A6A3B4C";
shapes = (
{
closed = 1;
nodes = (
(146,0,l),
(146,483,l),
(116,483,l),
(116,0,l)
);
},
{
pos = (32,0);
ref = uniE00E;
}
);
vertWidth = 0;
width = 398;
},
{
anchors = (
{
name = bottom;
pos = (226,0);
},
{
name = top;
pos = (298,499);
}
);
layerId = "3FD7D777-D61F-402B-A269-3A472D550581";
shapes = (
{
closed = 1;
nodes = (
(248,0,l),
(248,500,l),
(45,500,l),
(45,0,l)
);
},
{
pos = (-8,0);
ref = uniE00E;
}
);
vertWidth = 0;
width = 502;
}
);
metricLeft = idotless;
unicode = 114;
},
{
color = 3;
glyphname = s;
kernLeft = a;
lastChange = "2026-02-02 19:07:46 +0000";
layers = (
{
anchors = (
{
name = bottom;
pos = (255,-5);
},
{
name = top;
pos = (253,488);
}
);
layerId = "AE3FEF6D-3AA7-4252-B349-D2606A6A3B4C";
shapes = (
{
closed = 1;
nodes = (
(375,-5,o),
(449,55,o),
(449,132,cs),
(449,188,o),
(409,221,o),
(274,248,cs),
(141,274,o),
(114,304,o),
(114,351,cs),
(114,414,o),
(162,462,o),
(259,462,cs),
(354,462,o),
(412,416,o),
(412,364,c),
(443,364,l),
(443,431,o),
(371,488,o),
(259,488,cs),
(145,488,o),
(85,429,o),
(85,351,cs),
(85,288,o),
(125,248,o),
(278,218,cs),
(391,196,o),
(420,173,o),
(420,131,cs),
(420,70,o),
(358,21,o),
(257,21,cs),
(159,21,o),
(96,68,o),
(96,120,c),
(66,120,l),
(66,53,o),
(140,-5,o),
(257,-5,cs)
);
}
);
vertWidth = 0;
width = 507;
},
{
anchors = (
{
name = bottom;
pos = (270,-10);
},
{
name = top;
pos = (279,510);
}
);
layerId = "3FD7D777-D61F-402B-A269-3A472D550581";
shapes = (
{
closed = 1;
nodes = (
(436,-10,o),
(534,47,o),
(535,150,cs),
(534,233,o),
(471,277,o),
(293,305,cs),
(240,313,o),
(214,320,o),
(214,342,cs),
(214,363,o),
(238,381,o),
(280,381,cs),
(323,381,o),
(353,360,o),
(351,330,c),
(523,330,l),
(532,446,o),
(441,510,o),
(279,510,cs),
(116,510,o),
(21,446,o),
(21,342,cs),
(21,252,o),
(93,214,o),
(249,188,cs),
(330,174,o),
(346,164,o),
(347,149,cs),
(346,129,o),
(317,116,o),
(275,116,cs),
(224,116,o),
(194,134,o),
(193,162,c),
(16,162,l),
(7,46,o),
(103,-10,o),
(270,-10,cs)
);
}
);
vertWidth = 0;
width = 558;
}
);
unicode = 115;
},
{
color = 3;
glyphname = germandbls;
lastChange = "2026-01-27 21:09:20 +0000";
layers = (
{
layerId = "AE3FEF6D-3AA7-4252-B349-D2606A6A3B4C";
shapes = (
{
closed = 1;
nodes = (
(437,-5,o),
(550,35,o),
(550,130,cs),
(550,195,o),
(496,220,o),
(447,242,cs),
(404,262,o),
(365,280,o),
(365,321,cs),
(365,350,o),
(385,373,o),
(408,398,cs),
(437,430,o),
(470,466,o),
(470,528,cs),
(470,606,o),
(418,691,o),
(283,691,cs),
(145,691,o),
(95,602,o),
(95,501,cs),
(95,0,l),
(126,0,l),
(126,501,ls),
(126,597,o),
(172,664,o),
(281,664,cs),
(391,664,o),
(436,596,o),
(436,530,cs),
(436,476,o),
(407,445,o),
(379,414,cs),
(355,387,o),
(331,361,o),
(331,322,cs),
(331,265,o),
(379,242,o),
(426,220,cs),
(471,198,o),
(516,177,o),
(516,126,cs),
(516,61,o),
(441,21,o),
(329,21,cs),
(298,21,o),
(263,24,o),
(234,31,c),
(229,5,l),
(256,-1,o),
(287,-5,o),
(323,-5,cs)
);
}
);
vertWidth = 0;
width = 615;
},
{
layerId = "3FD7D777-D61F-402B-A269-3A472D550581";
shapes = (
{
closed = 1;
nodes = (
(492,-5,o),
(566,29,o),
(566,138,cs),
(566,237,o),
(510,281,o),
(468,307,cs),
(451,316,o),
(440,321,o),
(440,334,cs),
(440,345,o),
(450,355,o),
(457,362,cs),
(484,386,o),
(509,424,o),
(509,484,cs),
(509,592,o),
(427,698,o),
(270,698,cs),
(123,698,o),
(47,605,o),
(47,500,cs),
(47,0,l),
(231,0,l),
(231,500,ls),
(231,542,o),
(244,566,o),
(279,566,cs),
(314,566,o),
(328,543,o),
(328,518,cs),
(328,499,o),
(320,473,o),
(297,442,cs),
(284,425,o),
(260,389,o),
(260,334,cs),
(260,268,o),
(295,241,o),
(343,211,cs),
(369,196,o),
(390,184,o),
(390,167,cs),
(390,148,o),
(368,135,o),
(331,135,cs),
(319,135,o),
(305,137,o),
(287,141,c),
(269,0,l),
(303,-3,o),
(336,-5,o),
(363,-5,cs)
);
}
);
vertWidth = 0;
width = 588;
}
);
metricLeft = l;
unicode = 223;
},
{
color = 3;
glyphname = longs;
lastChange = "2026-01-27 21:09:20 +0000";
layers = (
{
anchors = (
{
name = "L-slash";
pos = (167,342);
},
{
name = bottom;
pos = (167,0);
},
{
name = "d-bar";
pos = (161,542);
},
{
name = top;
pos = (283,689);
}
);
layerId = "AE3FEF6D-3AA7-4252-B349-D2606A6A3B4C";
shapes = (
{
closed = 1;
nodes = (
(182,0,l),
(182,573,ls),
(182,635,o),
(219,663,o),
(283,663,cs),
(316,663,o),
(341,654,o),
(353,644,c),
(368,664,l),
(352,678,o),
(321,689,o),
(283,689,cs),
(208,689,o),
(151,654,o),
(151,574,cs),
(151,0,l)
);
},
{
pos = (5,0);
ref = uniE016;
scale = (1.05,1);
}
);
vertWidth = 0;
width = 377;
},
{
anchors = (
{
name = "L-slash";
pos = (177,328);
},
{
name = bottom;
pos = (169,0);
},
{
name = "d-bar";
pos = (183,479);
},
{
name = top;
pos = (261,697);
}
);
layerId = "3FD7D777-D61F-402B-A269-3A472D550581";
shapes = (
{
closed = 1;
nodes = (
(271,0,l),
(271,531,ls),
(271,561,o),
(289,573,o),
(323,573,cs),
(339,573,o),
(360,569,o),
(382,563,c),
(408,673,l),
(363,689,o),
(310,698,o),
(261,698,cs),
(159,698,o),
(68,659,o),
(68,553,cs),
(68,0,l)
);
},
{
pos = (-40,0);
ref = uniE016;
scale = (1.05,0.9);
}
);
vertWidth = 0;
width = 373;
}
);
unicode = 383;
},
{
color = 3;
glyphname = t;
kernLeft = a;
kernRight = t;
lastChange = "2026-02-02 19:07:56 +0000";
layers = (
{
anchors = (
{
name = bottom;
pos = (276,-5);
},
{
name = top;
pos = (159,624);
},
{
name = top.alt;
pos = (320,624);
}
);
layerId = "AE3FEF6D-3AA7-4252-B349-D2606A6A3B4C";
shapes = (
{
closed = 1;
nodes = (
(298,-5,o),
(319,-2,o),
(339,3,c),
(334,27,l),
(321,24,o),
(297,21,o),
(275,21,cs),
(212,21,o),
(175,49,o),
(175,111,cs),
(175,624,l),
(144,624,l),
(144,109,ls),
(144,29,o),
(201,-5,o),
(276,-5,cs)
);
},
{
pos = (-3,215);
ref = uniE00A;
}
);
vertWidth = 0;
width = 407;
},
{
anchors = (
{
name = bottom;
pos = (286,-10);
},
{
name = top;
pos = (194,625);
},
{
name = top.alt;
pos = (412,625);
}
);
layerId = "3FD7D777-D61F-402B-A269-3A472D550581";
shapes = (
{
closed = 1;
nodes = (
(338,-10,o),
(389,0,o),
(434,13,c),
(408,121,l),
(390,118,o),
(366,115,o),
(349,115,cs),
(318,115,o),
(297,126,o),
(297,160,cs),
(297,626,l),
(93,626,l),
(93,132,ls),
(93,30,o),
(182,-10,o),
(286,-10,cs)
);
},
{
pos = (-12,133);
ref = uniE00A;
}
);
vertWidth = 0;
width = 439;
}
);
unicode = 116;
},
{
glyphname = tccurl;
lastChange = "2026-01-27 21:10:07 +0000";
layers = (
{
layerId = "AE3FEF6D-3AA7-4252-B349-D2606A6A3B4C";
shapes = (
{
ref = t;
userData = {
UFO.identifier = 29EEF611;
UFO.lib = {
};
};
},
{
pos = (397,0);
ref = ccurl;
userData = {
UFO.identifier = ABEA72C2;
UFO.lib = {
};
};
},
{
closed = 1;
nodes = (
(267,457,l),
(631,457,l),
(631,483,l),
(267,483,l)
);
}
);
width = 934;
},
{
layerId = "3FD7D777-D61F-402B-A269-3A472D550581";
shapes = (
{
ref = t;
userData = {
UFO.identifier = 29EEF611;
UFO.lib = {
};
};
},
{
pos = (439,0);
ref = ccurl;
userData = {
UFO.identifier = ABEA72C2;
UFO.lib = {
};
};
},
{
closed = 1;
nodes = (
(371,359,l),
(665,359,l),
(665,500,l),
(371,500,l)
);
}
);
width = 1006;
}
);
metricLeft = t;
unicode = 680;
},
{
glyphname = tesh;
lastChange = "2026-01-26 18:08:19 +0000";
layers = (
{
layerId = "AE3FEF6D-3AA7-4252-B349-D2606A6A3B4C";
shapes = (
{
ref = t;
userData = {
UFO.identifier = ED1A4142;
UFO.lib = {
};
};
},
{
pos = (397,0);
ref = esh;
userData = {
UFO.identifier = 5BCFE65E;
UFO.lib = {
};
};
},
{
closed = 1;
nodes = (
(305,457,l),
(499,457,l),
(499,483,l),
(305,483,l)
);
}
);
width = 711;
},
{
layerId = "3FD7D777-D61F-402B-A269-3A472D550581";
shapes = (
{
ref = t;
userData = {
UFO.identifier = ED1A4142;
UFO.lib = {
};
};
},
{
pos = (439,0);
ref = esh;
userData = {
UFO.identifier = 5BCFE65E;
UFO.lib = {
};
};
},
{
closed = 1;
nodes = (
(381,359,l),
(516,359,l),
(516,500,l),
(381,500,l)
);
}
);
width = 806;
}
);
unicode = 679;
},
{
glyphname = ts;
lastChange = "2026-01-26 18:08:19 +0000";
layers = (
{
layerId = "AE3FEF6D-3AA7-4252-B349-D2606A6A3B4C";
shapes = (
{
ref = t;
userData = {
UFO.identifier = 01ACCCF5;
UFO.lib = {
};
};
},
{
pos = (397,0);
ref = s;
userData = {
UFO.identifier = 9E5DEFCC;
UFO.lib = {
};
};
},
{
closed = 1;
nodes = (
(296,457,l),
(600,457,l),
(600,483,l),
(296,483,l)
);
}
);
width = 893;
},
{
layerId = "3FD7D777-D61F-402B-A269-3A472D550581";
shapes = (
{
ref = t;
userData = {
UFO.identifier = 01ACCCF5;
UFO.lib = {
};
};
},
{
pos = (439,0);
ref = s;
userData = {
UFO.identifier = 9E5DEFCC;
UFO.lib = {
};
};
},
{
closed = 1;
nodes = (
(382,359,l),
(630,359,l),
(630,500,l),
(382,500,l)
);
}
);
width = 961;
}
);
unicode = 678;
},
{
color = 3;
glyphname = tz;
lastChange = "2026-01-27 21:09:20 +0000";
layers = (
{
layerId = "AE3FEF6D-3AA7-4252-B349-D2606A6A3B4C";
shapes = (
{
alignment = -1;
ref = t;
},
{
alignment = -1;
attr = {
identifier = BE87CBD5;
};
pos = (286,0);
ref = ezh;
},
{
closed = 1;
nodes = (
(291,457,l),
(343,457,l),
(343,483,l),
(291,483,l)
);
}
);
width = 853;
},
{
layerId = "3FD7D777-D61F-402B-A269-3A472D550581";
shapes = (
{
alignment = -1;
ref = t;
},
{
alignment = -1;
attr = {
identifier = BE87CBD5;
};
pos = (407,0);
ref = ezh;
},
{
closed = 1;
nodes = (
(383,359,l),
(455,359,l),
(455,500,l),
(383,500,l)
);
}
);
width = 1050;
}
);
metricLeft = t;
metricRight = ezh;
unicode = 42793;
},
{
glyphname = u;
kernLeft = a;
lastChange = "2026-01-27 21:10:07 +0000";
layers = (
{
anchors = (
{
name = bottom;
pos = (285,-4);
},
{
name = bottom.alt;
pos = (461,0);
},
{
name = top;
pos = (285,483);
},
{
name = top.alt;
pos = (460,444);
}
);
layerId = "AE3FEF6D-3AA7-4252-B349-D2606A6A3B4C";
shapes = (
{
closed = 1;
nodes = (
(476,0,l),
(476,483,l),
(446,483,l),
(446,0,l)
);
},
{
angle = 180;
pos = (566,483);
ref = uniE00D;
}
);
vertWidth = 0;
width = 592;
},
{
anchors = (
{
name = bottom;
pos = (321,-6);
},
{
name = bottom.alt;
pos = (494,-1);
},
{
name = top;
pos = (321,497);
},
{
name = top.alt;
pos = (518,400);
}
);
layerId = "3FD7D777-D61F-402B-A269-3A472D550581";
shapes = (
{
closed = 1;
nodes = (
(596,0,l),
(596,500,l),
(392,500,l),
(392,0,l)
);
},
{
angle = 180;
pos = (584,500);
ref = uniE00D;
}
);
vertWidth = 0;
width = 641;
}
);
metricLeft = "=|n";
metricRight = "=|n";
unicode = 117;
},
{
glyphname = ui;
lastChange = "2026-01-27 21:10:07 +0000";
layers = (
{
layerId = "AE3FEF6D-3AA7-4252-B349-D2606A6A3B4C";
shapes = (
{
angle = 180;
pos = (566,483);
ref = uniE00D;
},
{
pos = (314,408);
ref = period;
scale = (1.05,1);
},
{
closed = 1;
nodes = (
(838,0,l),
(838,483,l),
(807,483,l),
(807,0,l)
);
},
{
closed = 1;
nodes = (
(477,290,l),
(446,290,l),
(446,201,ls),
(446,75,o),
(517,-5,o),
(630,-5,cs),
(713,-5,o),
(779,39,o),
(803,117,c),
(827,117,l),
(827,232,l),
(807,232,l),
(807,102,o),
(739,22,o),
(635,22,cs),
(538,22,o),
(477,92,o),
(477,200,cs)
);
}
);
vertWidth = 0;
width = 954;
},
{
layerId = "3FD7D777-D61F-402B-A269-3A472D550581";
shapes = (
{
angle = 180;
pos = (584,500);
ref = uniE00D;
},
{
pos = (375,343);
ref = period;
scale = (1.05,0.9);
},
{
closed = 1;
nodes = (
(963,0,l),
(963,500,l),
(759,500,l),
(759,0,l)
);
},
{
closed = 1;
nodes = (
(596,270,l),
(392,270,l),
(392,176,ls),
(392,53,o),
(461,-15,o),
(582,-15,cs),
(670,-15,o),
(721,22,o),
(749,85,c),
(769,85,l),
(769,207,l),
(759,207,l),
(759,148,o),
(725,118,o),
(677,118,cs),
(630,118,o),
(596,145,o),
(596,199,cs)
);
}
);
vertWidth = 0;
width = 1008;
}
);
metricLeft = u;
metricRight = u;
unicode = 43856;
},
{
color = 3;
glyphname = v;
kernLeft = v;
kernRight = v;
lastChange = "2026-01-27 21:09:20 +0000";
layers = (
{
anchors = (
{
name = bottom;
pos = (233,0);
},
{
name = top;
pos = (233,483);
}
);
layerId = "AE3FEF6D-3AA7-4252-B349-D2606A6A3B4C";
shapes = (
{
closed = 1;
nodes = (
(257,0,l),
(444,483,l),
(414,483,l),
(235,21,l),
(230,21,l),
(46,483,l),
(15,483,l),
(208,0,l)
);
}
);
vertWidth = 0;
width = 459;
},
{
anchors = (
{
name = bottom;
pos = (290,0);
},
{
name = top;
pos = (290,499);
}
);
layerId = "3FD7D777-D61F-402B-A269-3A472D550581";
shapes = (
{
closed = 1;
nodes = (
(406,0,l),
(604,500,l),
(387,500,l),
(293,186,l),
(288,186,l),
(192,500,l),
(-26,500,l),
(176,0,l)
);
}
);
vertWidth = 0;
width = 578;
}
);
unicode = 118;
},
{
color = 3;
glyphname = w;
kernLeft = v;
lastChange = "2026-02-02 19:08:29 +0000";
layers = (
{
anchors = (
{
name = bottom;
pos = (380,0);
},
{
name = top;
pos = (380,473);
}
);
layerId = "AE3FEF6D-3AA7-4252-B349-D2606A6A3B4C";
shapes = (
{
closed = 1;
nodes = (
(232,0,l),
(378,431,l),
(381,431,l),
(527,0,l),
(571,0,l),
(715,483,l),
(683,483,l),
(550,29,l),
(546,29,l),
(402,453,l),
(357,453,l),
(213,29,l),
(209,29,l),
(76,483,l),
(44,483,l),
(188,0,l)
);
}
);
vertWidth = 0;
width = 759;
},
{
anchors = (
{
name = bottom;
pos = (414,0);
},
{
name = top;
pos = (414,499);
}
);
layerId = "3FD7D777-D61F-402B-A269-3A472D550581";
shapes = (
{
closed = 1;
nodes = (
(340,0,l),
(412,248,l),
(416,248,l),
(489,0,l),
(688,0,l),
(839,500,l),
(661,500,l),
(579,213,l),
(574,213,l),
(498,500,l),
(330,500,l),
(255,213,l),
(251,213,l),
(167,500,l),
(-10,500,l),
(140,0,l)
);
}
);
vertWidth = 0;
width = 827;
}
);
unicode = 119;
},
{
color = 3;
glyphname = x;
kernLeft = x;
kernRight = k;
lastChange = "2026-01-27 21:09:20 +0000";
layers = (
{
anchors = (
{
name = bottom;
pos = (252,0);
},
{
name = top;
pos = (252,483);
}
);
layerId = "AE3FEF6D-3AA7-4252-B349-D2606A6A3B4C";
shapes = (
{
closed = 1;
nodes = (
(69,0,l),
(252,228,l),
(437,0,l),
(478,0,l),
(270,249,l),
(467,483,l),
(427,483,l),
(252,269,l),
(79,483,l),
(39,483,l),
(234,249,l),
(28,0,l)
);
}
);
vertWidth = 0;
width = 506;
},
{
anchors = (
{
name = bottom;
pos = (290,0);
},
{
name = top;
pos = (290,499);
}
);
layerId = "3FD7D777-D61F-402B-A269-3A472D550581";
shapes = (
{
closed = 1;
nodes = (
(207,0,l),
(287,142,l),
(368,0,l),
(588,0,l),
(409,253,l),
(581,500,l),
(372,500,l),
(291,362,l),
(211,500,l),
(0,500,l),
(169,256,l),
(-10,0,l)
);
}
);
vertWidth = 0;
width = 578;
}
);
unicode = 120;
},
{
color = 3;
glyphname = y;
kernLeft = v;
kernRight = v;
lastChange = "2026-01-27 21:09:20 +0000";
layers = (
{
anchors = (
{
name = bottom;
pos = (231,-233);
},
{
name = top;
pos = (233,483);
}
);
layerId = "AE3FEF6D-3AA7-4252-B349-D2606A6A3B4C";
shapes = (
{
closed = 1;
nodes = (
(36,-233,ls),
(131,-233,o),
(179,-198,o),
(216,-102,cs),
(444,483,l),
(414,483,l),
(235,21,l),
(230,21,l),
(46,483,l),
(15,483,l),
(216,-21,l),
(186,-96,ls),
(153,-181,o),
(121,-207,o),
(36,-207,cs),
(27,-207,l),
(27,-233,l)
);
}
);
vertWidth = 0;
width = 459;
},
{
anchors = (
{
name = bottom;
pos = (289,-211);
},
{
name = top;
pos = (290,499);
}
);
layerId = "3FD7D777-D61F-402B-A269-3A472D550581";
shapes = (
{
closed = 1;
nodes = (
(150,-216,ls),
(268,-216,o),
(346,-160,o),
(395,-33,cs),
(604,500,l),
(387,500,l),
(293,204,l),
(288,204,l),
(192,500,l),
(-26,500,l),
(201,-9,l),
(198,-16,ls),
(179,-63,o),
(143,-77,o),
(81,-77,cs),
(33,-77,l),
(33,-216,l)
);
}
);
vertWidth = 0;
width = 578;
}
);
unicode = 121;
},
{
color = 8;
glyphname = yhook;
kernLeft = v;
kernRight = v;
lastChange = "2026-01-27 21:10:07 +0000";
layers = (
{
layerId = "AE3FEF6D-3AA7-4252-B349-D2606A6A3B4C";
shapes = (
{
closed = 1;
nodes = (
(449,496,o),
(482,511,o),
(530,511,cs),
(562,511,o),
(590,502,o),
(602,492,c),
(618,512,l),
(601,526,o),
(570,537,o),
(533,537,cs),
(474,537,o),
(427,516,o),
(408,468,cs),
(235,21,l),
(230,21,l),
(46,483,l),
(15,483,l),
(216,-21,l),
(186,-96,ls),
(153,-181,o),
(121,-207,o),
(36,-207,cs),
(27,-207,l),
(27,-233,l),
(36,-233,ls),
(131,-233,o),
(179,-198,o),
(216,-102,cs),
(436,462,ls)
);
}
);
vertWidth = 0;
width = 629;
},
{
layerId = "3FD7D777-D61F-402B-A269-3A472D550581";
shapes = (
{
closed = 1;
nodes = (
(570,419,o),
(586,427,o),
(615,427,cs),
(635,427,o),
(658,423,o),
(679,417,c),
(707,527,l),
(662,543,o),
(610,552,o),
(561,552,cs),
(475,552,o),
(396,527,o),
(373,455,cs),
(293,204,l),
(288,204,l),
(192,500,l),
(-26,500,l),
(201,-9,l),
(198,-16,ls),
(179,-63,o),
(143,-77,o),
(81,-77,cs),
(33,-77,l),
(33,-216,l),
(150,-216,ls),
(268,-216,o),
(346,-161,o),
(395,-33,cs),
(563,399,ls)
);
}
);
vertWidth = 0;
width = 671;
}
);
metricLeft = y;
metricRight = esh;
unicode = 436;
},
{
color = 3;
glyphname = z;
kernLeft = m;
lastChange = "2026-01-27 21:09:20 +0000";
layers = (
{
anchors = (
{
name = bottom;
pos = (227,0);
},
{
name = top;
pos = (227,483);
}
);
layerId = "AE3FEF6D-3AA7-4252-B349-D2606A6A3B4C";
shapes = (
{
closed = 1;
nodes = (
(422,0,l),
(422,26,l),
(56,26,l),
(56,30,l),
(422,444,l),
(422,483,l),
(32,483,l),
(32,457,l),
(397,457,l),
(397,453,l),
(32,40,l),
(32,0,l)
);
}
);
vertWidth = 0;
width = 452;
},
{
anchors = (
{
name = bottom;
pos = (291,0);
},
{
name = top;
pos = (291,499);
}
);
layerId = "3FD7D777-D61F-402B-A269-3A472D550581";
shapes = (
{
closed = 1;
nodes = (
(517,0,l),
(517,141,l),
(276,141,l),
(276,149,l),
(517,378,l),
(517,500,l),
(39,500,l),
(39,359,l),
(282,359,l),
(282,351,l),
(39,121,l),
(39,0,l)
);
}
);
vertWidth = 0;
width = 561;
}
);
unicode = 122;
},
{
color = 3;
glyphname = zcurl;
lastChange = "2026-01-27 21:09:20 +0000";
layers = (
{
background = {
shapes = (
{
closed = 0;
nodes = (
(278,-82,l),
(278,127,o),
(342,251,o),
(449,251,cs),
(509,251,o),
(552,205,o),
(552,141,cs),
(552,59,o),
(470,13,o),
(323,13,cs),
(45,13,l)
);
}
);
};
layerId = "AE3FEF6D-3AA7-4252-B349-D2606A6A3B4C";
shapes = (
{
closed = 1;
nodes = (
(264,-122,l),
(289,-122,l),
(289,-82,ls),
(289,122,o),
(352,238,o),
(456,238,cs),
(511,238,o),
(552,198,o),
(552,141,cs),
(552,68,o),
(472,26,o),
(324,26,cs),
(56,26,l),
(56,30,l),
(422,444,l),
(422,483,l),
(32,483,l),
(32,457,l),
(397,457,l),
(397,453,l),
(32,40,l),
(32,0,l),
(324,0,ls),
(485,0,o),
(577,50,o),
(577,141,cs),
(577,212,o),
(528,264,o),
(456,264,cs),
(335,264,o),
(264,132,o),
(264,-82,cs)
);
}
);
vertWidth = 0;
width = 655;
},
{
layerId = "3FD7D777-D61F-402B-A269-3A472D550581";
shapes = (
{
closed = 1;
nodes = (
(370,-137,l),
(482,-137,l),
(482,-101,ls),
(482,85,o),
(532,195,o),
(615,195,cs),
(640,195,o),
(657,183,o),
(657,165,cs),
(657,140,o),
(620,141,o),
(546,141,cs),
(276,141,l),
(276,149,l),
(517,378,l),
(517,500,l),
(39,500,l),
(39,359,l),
(282,359,l),
(282,351,l),
(39,121,l),
(39,0,l),
(536,0,ls),
(691,0,o),
(787,65,o),
(787,170,cs),
(787,257,o),
(724,318,o),
(634,318,cs),
(478,318,o),
(370,147,o),
(370,-101,cs)
);
}
);
vertWidth = 0;
width = 795;
}
);
metricLeft = z;
unicode = 657;
},
{
color = 3;
glyphname = zswashtail;
lastChange = "2026-01-27 21:09:20 +0000";
layers = (
{
layerId = "AE3FEF6D-3AA7-4252-B349-D2606A6A3B4C";
shapes = (
{
closed = 1;
nodes = (
(450,-137,o),
(476,-119,o),
(504,-83,c),
(483,-68,l),
(459,-101,o),
(445,-111,o),
(398,-111,cs),
(349,-111,o),
(306,-80,o),
(268,-47,cs),
(223,-8,o),
(176,26,o),
(52,26,c),
(52,30,l),
(418,444,l),
(418,483,l),
(28,483,l),
(28,457,l),
(393,457,l),
(393,453,l),
(28,40,l),
(28,0,l),
(161,0,o),
(209,-33,o),
(257,-73,cs),
(295,-106,o),
(341,-137,o),
(398,-137,cs)
);
}
);
vertWidth = 0;
width = 439;
},
{
layerId = "3FD7D777-D61F-402B-A269-3A472D550581";
shapes = (
{
closed = 1;
nodes = (
(516,-123,o),
(580,-68,o),
(635,1,c),
(502,87,l),
(475,54,o),
(443,25,o),
(399,25,cs),
(361,25,o),
(336,44,o),
(312,64,cs),
(288,87,o),
(269,104,o),
(232,108,c),
(232,116,l),
(506,386,l),
(506,500,l),
(28,500,l),
(28,359,l),
(271,359,l),
(271,351,l),
(28,113,l),
(28,0,l),
(146,0,o),
(192,-33,o),
(235,-66,cs),
(274,-95,o),
(312,-123,o),
(399,-123,cs)
);
}
);
vertWidth = 0;
width = 544;
}
);
unicode = 576;
},
{
glyphname = ae.ss11;
lastChange = "2026-01-28 16:26:54 +0000";
layers = (
{
anchors = (
{
name = bottom;
pos = (486,0);
},
{
name = top;
pos = (486,483);
}
);
layerId = "AE3FEF6D-3AA7-4252-B349-D2606A6A3B4C";
shapes = (
{
pos = (-15,0);
ref = uniE01C;
},
{
closed = 1;
nodes = (
(499,0,l),
(499,483,l),
(474,483,l),
(474,392,l),
(474,92,l),
(474,0,l)
);
},
{
pos = (422,0);
ref = e;
}
);
userData = {
com.fontlab.hintData = {
hhints = (
{
position = -11;
width = 53;
},
{
position = 490;
width = 53;
},
{
position = 947;
width = 52;
}
);
vhints = (
{
position = 841;
width = 50;
}
);
};
};
vertWidth = 0;
width = 963;
},
{
anchors = (
{
name = bottom;
pos = (438,0);
},
{
name = top;
pos = (438,500);
}
);
layerId = "3FD7D777-D61F-402B-A269-3A472D550581";
shapes = (
{
pos = (-82,0);
ref = uniE01C;
},
{
closed = 1;
nodes = (
(487,0,l),
(487,500,l),
(398,500,l),
(377,399,l),
(377,99,l),
(398,0,l)
);
},
{
pos = (358,0);
ref = e;
}
);
vertWidth = 0;
width = 952;
}
);
metricLeft = o;
metricRight = e;
},
{
color = 3;
glyphname = g.ss12;
lastChange = "2026-01-27 21:09:20 +0000";
layers = (
{
anchors = (
{
name = bottom;
pos = (279,-238);
},
{
name = top;
pos = (290,488);
}
);
layerId = "AE3FEF6D-3AA7-4252-B349-D2606A6A3B4C";
shapes = (
{
closed = 1;
nodes = (
(440,-238,o),
(537,-182,o),
(537,-81,cs),
(537,4,o),
(467,14,o),
(359,14,cs),
(240,14,o),
(125,2,o),
(125,85,cs),
(125,115,o),
(140,133,o),
(195,171,c),
(180,191,l),
(125,157,o),
(98,119,o),
(98,74,cs),
(98,-30,o),
(243,-13,o),
(368,-13,cs),
(460,-13,o),
(511,-22,o),
(511,-84,cs),
(511,-165,o),
(421,-209,o),
(275,-209,cs),
(154,-209,o),
(95,-179,o),
(95,-120,cs),
(95,-86,o),
(114,-50,o),
(172,8,c),
(156,24,l),
(88,-38,o),
(66,-80,o),
(66,-121,cs),
(66,-196,o),
(140,-238,o),
(279,-238,cs)
);
},
{
closed = 1;
nodes = (
(412,148,o),
(486,212,o),
(486,317,cs),
(486,423,o),
(411,488,o),
(290,488,cs),
(170,488,o),
(95,424,o),
(95,318,cs),
(95,212,o),
(169,148,o),
(290,148,cs)
);
},
{
closed = 1;
nodes = (
(187,173,o),
(127,226,o),
(127,319,cs),
(127,411,o),
(185,463,o),
(290,463,cs),
(395,463,o),
(455,411,o),
(455,319,cs),
(455,226,o),
(395,173,o),
(292,173,cs)
);
},
{
closed = 1;
nodes = (
(458,473,o),
(489,488,o),
(538,488,c),
(538,511,l),
(481,511,o),
(441,491,o),
(404,445,c),
(423,430,l)
);
}
);
vertWidth = 0;
width = 613;
},
{
anchors = (
{
name = bottom;
pos = (288,-215);
},
{
name = top;
pos = (291,515);
}
);
layerId = "3FD7D777-D61F-402B-A269-3A472D550581";
shapes = (
{
closed = 1;
nodes = (
(470,-224,o),
(594,-170,o),
(594,-37,cs),
(594,45,o),
(545,88,o),
(352,88,cs),
(212,88,o),
(183,102,o),
(183,132,cs),
(183,145,o),
(188,153,o),
(204,161,c),
(122,223,l),
(61,200,o),
(35,149,o),
(35,92,cs),
(35,10,o),
(102,-43,o),
(331,-43,cs),
(406,-43,o),
(436,-49,o),
(436,-71,cs),
(436,-99,o),
(384,-113,o),
(299,-113,cs),
(219,-113,o),
(171,-103,o),
(171,-69,cs),
(171,-56,o),
(178,-42,o),
(198,-24,c),
(87,31,l),
(29,7,o),
(3,-39,o),
(3,-84,cs),
(3,-162,o),
(81,-224,o),
(282,-224,cs)
);
},
{
closed = 1;
nodes = (
(477,149,o),
(556,240,o),
(556,337,cs),
(556,434,o),
(478,515,o),
(292,515,cs),
(106,515,o),
(29,434,o),
(29,338,cs),
(29,240,o),
(107,149,o),
(292,149,cs)
);
},
{
closed = 1;
nodes = (
(252,270,o),
(232,291,o),
(232,332,cs),
(232,372,o),
(251,393,o),
(292,393,cs),
(333,393,o),
(353,372,o),
(353,332,cs),
(353,291,o),
(333,270,o),
(293,270,cs)
);
},
{
closed = 1;
nodes = (
(545,411,o),
(568,420,o),
(607,420,c),
(607,540,l),
(533,540,o),
(471,501,o),
(444,462,c),
(518,391,l)
);
}
);
vertWidth = 0;
width = 598;
}
);
},
{
glyphname = ordfeminine;
lastChange = "2026-01-26 18:08:19 +0000";
layers = (
{
layerId = "AE3FEF6D-3AA7-4252-B349-D2606A6A3B4C";
shapes = (
{
closed = 1;
nodes = (
(324,489,l),
(324,715,ls),
(324,775,o),
(267,810,o),
(199,810,cs),
(130,810,o),
(81,776,o),
(74,724,c),
(103,724,l),
(109,761,o),
(147,786,o),
(198,786,cs),
(250,786,o),
(294,761,o),
(294,715,cs),
(294,489,l)
);
},
{
closed = 1;
nodes = (
(223,486,o),
(273,515,o),
(316,580,c),
(305,590,l),
(256,532,o),
(222,510,o),
(168,510,cs),
(123,510,o),
(94,538,o),
(94,578,cs),
(94,616,o),
(125,643,o),
(183,646,cs),
(309,652,l),
(309,675,l),
(180,668,ls),
(106,665,o),
(65,628,o),
(65,577,cs),
(65,523,o),
(104,486,o),
(164,486,cs)
);
}
);
vertWidth = 0;
width = 390;
},
{
layerId = "3FD7D777-D61F-402B-A269-3A472D550581";
shapes = (
{
closed = 1;
nodes = (
(363,499,l),
(363,704,ls),
(363,771,o),
(298,810,o),
(204,810,cs),
(105,810,o),
(51,768,o),
(51,704,c),
(156,704,l),
(160,721,o),
(175,730,o),
(197,730,cs),
(218,730,o),
(237,721,o),
(237,702,cs),
(237,499,l)
);
},
{
closed = 1;
nodes = (
(202,496,o),
(232,525,o),
(266,579,c),
(249,600,l),
(221,581,o),
(202,574,o),
(177,574,cs),
(158,574,o),
(148,582,o),
(148,595,cs),
(148,608,o),
(164,618,o),
(196,618,cs),
(286,621,l),
(286,690,l),
(183,687,ls),
(100,684,o),
(43,651,o),
(43,583,cs),
(43,523,o),
(85,496,o),
(141,496,cs)
);
}
);
vertWidth = 0;
width = 406;
}
);
unicode = 170;
},
{
color = 3;
glyphname = "hamza-ar";
lastChange = "2026-01-26 18:08:19 +0000";
layers = (
{
anchors = (
{
name = bottom;
pos = (266,71);
},
{
name = top;
pos = (262,344);
}
);
layerId = "AE3FEF6D-3AA7-4252-B349-D2606A6A3B4C";
shapes = (
{
closed = 1;
nodes = (
(420,93,l),
(412,115,l),
(409,114,ls),
(359,97,o),
(316,87,o),
(278,87,cs),
(197,87,o),
(141,125,o),
(141,193,cs),
(141,265,o),
(197,319,o),
(263,319,cs),
(301,319,o),
(332,306,o),
(364,277,c),
(380,293,l),
(343,328,o),
(307,344,o),
(262,344,cs),
(185,344,o),
(115,280,o),
(115,191,cs),
(115,116,o),
(178,68,o),
(263,68,c),
(263,63,l),
(100,17,l),
(108,-5,l)
);
}
);
vertWidth = 0;
width = 520;
},
{
anchors = (
{
name = bottom;
pos = (275,59);
},
{
name = top;
pos = (267,473);
}
);
layerId = "3FD7D777-D61F-402B-A269-3A472D550581";
shapes = (
{
closed = 1;
nodes = (
(453,114,l),
(408,258,l),
(392,253,ls),
(340,237,o),
(305,226,o),
(274,226,cs),
(236,226,o),
(217,241,o),
(217,266,cs),
(217,297,o),
(242,318,o),
(281,318,cs),
(304,318,o),
(322,313,o),
(343,300,c),
(408,413,l),
(358,456,o),
(314,473,o),
(267,473,cs),
(153,473,o),
(87,370,o),
(87,278,cs),
(87,237,o),
(109,195,o),
(145,179,c),
(145,176,l),
(40,143,l),
(85,-1,l)
);
}
);
vertWidth = 0;
width = 493;
}
);
unicode = 1569;
},
{
color = 3;
glyphname = "alef-ar";
kernLeft = alef;
kernRight = alef;
lastChange = "2026-01-26 18:08:19 +0000";
layers = (
{
anchors = (
{
name = bottom;
pos = (124,0);
},
{
name = top;
pos = (124,614);
}
);
layerId = "AE3FEF6D-3AA7-4252-B349-D2606A6A3B4C";
shapes = (
{
closed = 1;
nodes = (
(139,0,l),
(139,614,l),
(110,614,l),
(110,0,l)
);
}
);
width = 249;
},
{
anchors = (
{
name = bottom;
pos = (132,0);
},
{
name = top;
pos = (132,717);
}
);
layerId = "3FD7D777-D61F-402B-A269-3A472D550581";
shapes = (
{
closed = 1;
nodes = (
(220,0,l),
(220,717,l),
(45,717,l),
(45,0,l)
);
}
);
width = 265;
}
);
unicode = 1575;
},
{
glyphname = "alef-ar.fina";
kernLeft = alef;
lastChange = "2026-01-31 19:34:19 +0000";
layers = (
{
anchors = (
{
name = bottom;
pos = (215,0);
},
{
name = top;
pos = (124,614);
}
);
layerId = "AE3FEF6D-3AA7-4252-B349-D2606A6A3B4C";
shapes = (
{
closed = 1;
nodes = (
(110,199,ls),
(110,67,o),
(158,0,o),
(288,0,cs),
(292,0,l),
(292,29,l),
(288,29,ls),
(169,29,o),
(139,88,o),
(139,199,cs),
(139,614,l),
(110,614,l)
);
}
);
vertWidth = 0;
width = 292;
},
{
anchors = (
{
name = bottom;
pos = (132,0);
},
{
name = top;
pos = (132,717);
}
);
layerId = "3FD7D777-D61F-402B-A269-3A472D550581";
shapes = (
{
closed = 1;
nodes = (
(45,250,ls),
(45,73,o),
(138,0,o),
(275,0,cs),
(317,0,l),
(317,193,l),
(313,193,ls),
(240,193,o),
(220,222,o),
(220,285,cs),
(220,717,l),
(45,717,l)
);
}
);
vertWidth = 0;
width = 317;
}
);
metricLeft = "alef-ar";
unicode = 65166;
},
{
glyphname = "alef-ar.short";
kernLeft = alef;
kernRight = alef;
lastChange = "2026-01-26 18:08:19 +0000";
layers = (
{
anchors = (
{
name = bottom;
pos = (124,0);
},
{
name = num;
pos = (15,406);
},
{
name = top;
pos = (124,541);
}
);
layerId = "AE3FEF6D-3AA7-4252-B349-D2606A6A3B4C";
shapes = (
{
closed = 1;
nodes = (
(139,0,l),
(139,541,l),
(110,541,l),
(110,0,l)
);
}
);
width = 249;
},
{
anchors = (
{
name = bottom;
pos = (132,0);
},
{
name = num;
pos = (-46,555);
},
{
name = top;
pos = (132,638);
}
);
layerId = "3FD7D777-D61F-402B-A269-3A472D550581";
shapes = (
{
closed = 1;
nodes = (
(220,0,l),
(220,638,l),
(45,638,l),
(45,0,l)
);
}
);
width = 265;
}
);
metricLeft = "alef-ar";
metricRight = "alef-ar";
},
{
glyphname = "alef-ar.fina.short";
kernLeft = alef;
lastChange = "2026-01-26 18:08:19 +0000";
layers = (
{
anchors = (
{
name = bottom;
pos = (215,0);
},
{
name = num;
pos = (15,406);
},
{
name = top;
pos = (124,541);
}
);
layerId = "AE3FEF6D-3AA7-4252-B349-D2606A6A3B4C";
shapes = (
{
closed = 1;
nodes = (
(297,29,l),
(176,29,o),
(139,76,o),
(139,187,cs),
(139,541,l),
(110,541,l),
(110,187,ls),
(110,61,o),
(169,0,o),
(297,0,c)
);
}
);
vertWidth = 0;
width = 297;
},
{
anchors = (
{
name = bottom;
pos = (157,0);
},
{
name = num;
pos = (-46,555);
},
{
name = top;
pos = (135,638);
}
);
layerId = "3FD7D777-D61F-402B-A269-3A472D550581";
shapes = (
{
closed = 1;
nodes = (
(317,193,l),
(242,194,o),
(220,216,o),
(220,272,cs),
(220,638,l),
(45,638,l),
(45,260,ls),
(45,73,o),
(120,1,o),
(317,0,c)
);
}
);
vertWidth = 0;
width = 317;
}
);
metricLeft = "alef-ar";
},
{
color = 0;
glyphname = "highhamzaAlef-ar.fina";
kernLeft = alef;
lastChange = "2026-01-26 18:08:19 +0000";
layers = (
{
layerId = "AE3FEF6D-3AA7-4252-B349-D2606A6A3B4C";
shapes = (
{
pos = (288,434);
ref = "hamzaabove-ar";
},
{
closed = 1;
nodes = (
(477,0,l),
(477,29,l),
(287,29,l),
(279,29,o),
(277,23,o),
(277,15,cs),
(277,6,o),
(279,0,o),
(287,0,c)
);
},
{
ref = "alef-ar.fina";
}
);
vertWidth = 0;
width = 477;
},
{
layerId = "3FD7D777-D61F-402B-A269-3A472D550581";
shapes = (
{
pos = (396,450);
ref = "hamzaabove-ar";
},
{
closed = 1;
nodes = (
(533,0,l),
(533,193,l),
(315,193,l),
(305,193,o),
(294,177,o),
(294,97,cs),
(294,18,o),
(305,0,o),
(315,0,c)
);
},
{
ref = "alef-ar.fina";
}
);
vertWidth = 0;
width = 533;
}
);
metricLeft = "alef-ar";
},
{
glyphname = "behDotless-ar";
kernRight = beh.isol;
lastChange = "2026-01-26 19:12:04 +0000";
layers = (
{
anchors = (
{
name = bottom;
pos = (462,0);
},
{
name = ring;
pos = (462,0);
},
{
name = top;
pos = (461,229);
}
);
layerId = "AE3FEF6D-3AA7-4252-B349-D2606A6A3B4C";
shapes = (
{
closed = 1;
nodes = (
(729,0,o),
(824,50,o),
(824,190,cs),
(824,232,o),
(815,286,o),
(800,338,c),
(772,329,l),
(786,282,o),
(795,227,o),
(795,190,cs),
(795,71,o),
(709,29,o),
(462,29,cs),
(218,29,o),
(129,71,o),
(129,185,cs),
(129,221,o),
(138,274,o),
(152,329,c),
(123,338,l),
(109,284,o),
(100,226,o),
(100,185,cs),
(100,49,o),
(196,0,o),
(462,0,cs)
);
}
);
vertWidth = 0;
width = 924;
},
{
anchors = (
{
name = bottom;
pos = (459,0);
},
{
name = ring;
pos = (459,0);
},
{
name = top;
pos = (466,324);
}
);
layerId = "3FD7D777-D61F-402B-A269-3A472D550581";
shapes = (
{
closed = 1;
nodes = (
(760,0,o),
(892,80,o),
(892,263,cs),
(892,318,o),
(880,406,o),
(864,466,c),
(708,429,l),
(718,390,o),
(726,328,o),
(726,297,cs),
(726,220,o),
(675,193,o),
(459,193,cs),
(249,193,o),
(207,217,o),
(207,295,cs),
(207,319,o),
(213,372,o),
(220,418,c),
(64,451,l),
(50,384,o),
(40,309,o),
(40,262,cs),
(40,72,o),
(155,0,o),
(459,0,cs)
);
}
);
vertWidth = 0;
width = 932;
}
);
metricLeft = "hamza-ar";
metricRight = "hamza-ar";
unicode = 1646;
},
{
glyphname = "behDotless-ar.fina";
lastChange = "2026-02-01 20:55:56 +0000";
layers = (
{
anchors = (
{
name = bottom;
pos = (427,0);
},
{
name = ring;
pos = (427,0);
},
{
name = top;
pos = (461,229);
}
);
layerId = "AE3FEF6D-3AA7-4252-B349-D2606A6A3B4C";
shapes = (
{
closed = 1;
nodes = (
(617,0,o),
(746,36,o),
(797,144,c),
(802,144,l),
(804,36,o),
(868,0,o),
(981,0,c),
(981,29,l),
(857,29,o),
(826,64,o),
(826,148,cs),
(826,174,o),
(829,204,o),
(834,245,cs),
(836,261,l),
(808,264,l),
(782,82,o),
(677,29,o),
(431,29,cs),
(217,29,o),
(129,69,o),
(129,181,cs),
(129,219,o),
(139,273,o),
(156,320,c),
(128,332,l),
(111,286,o),
(100,226,o),
(100,182,cs),
(100,52,o),
(198,0,o),
(427,0,cs)
);
}
);
vertWidth = 0;
width = 981;
},
{
anchors = (
{
name = bottom;
pos = (407,0);
},
{
name = ring;
pos = (404,0);
},
{
name = top;
pos = (468,295);
}
);
layerId = "3FD7D777-D61F-402B-A269-3A472D550581";
shapes = (
{
closed = 1;
nodes = (
(573,0,o),
(683,31,o),
(752,105,c),
(764,105,l),
(802,32,o),
(871,0,o),
(987,0,c),
(987,193,l),
(916,193,o),
(890,218,o),
(890,269,cs),
(890,283,o),
(892,297,o),
(894,312,cs),
(902,364,l),
(742,388,l),
(713,241,o),
(638,193,o),
(410,193,cs),
(249,193,o),
(207,217,o),
(207,295,cs),
(207,319,o),
(211,370,o),
(219,414,c),
(64,441,l),
(50,384,o),
(40,309,o),
(40,255,cs),
(40,72,o),
(155,0,o),
(407,0,cs)
);
}
);
vertWidth = 0;
width = 987;
}
);
metricLeft = "hamza-ar";
},
{
glyphname = "behDotless-ar.medi";
lastChange = "2026-02-01 20:38:25 +0000";
layers = (
{
anchors = (
{
name = bottom;
pos = (61,0);
},
{
name = num;
pos = (138,266);
},
{
name = ring;
},
{
name = top;
pos = (150,308);
}
);
layerId = "AE3FEF6D-3AA7-4252-B349-D2606A6A3B4C";
shapes = (
{
closed = 1;
nodes = (
(14,0,ls),
(101,0,o),
(181,41,o),
(196,120,c),
(200,120,l),
(215,42,o),
(285,0,o),
(368,0,cs),
(387,0,l),
(387,29,l),
(370,29,ls),
(250,29,o),
(214,101,o),
(214,209,cs),
(214,262,l),
(184,262,l),
(184,209,ls),
(184,102,o),
(151,29,o),
(14,29,cs),
(0,29,ls),
(-8,29,o),
(-10,23,o),
(-10,15,cs),
(-10,6,o),
(-8,0,o),
(0,0,cs)
);
}
);
vertWidth = 0;
width = 387;
},
{
anchors = (
{
name = bottom;
pos = (67,0);
},
{
name = num;
pos = (148,376);
},
{
name = ring;
},
{
name = top;
pos = (152,376);
}
);
layerId = "3FD7D777-D61F-402B-A269-3A472D550581";
shapes = (
{
closed = 1;
nodes = (
(14,0,ls),
(91,0,o),
(162,30,o),
(193,73,c),
(206,73,l),
(237,29,o),
(305,0,o),
(380,0,cs),
(395,0,l),
(395,193,l),
(381,193,ls),
(308,193,o),
(288,222,o),
(288,285,cs),
(288,359,l),
(113,359,l),
(113,285,ls),
(113,223,o),
(95,193,o),
(14,193,cs),
(0,193,ls),
(-12,193,o),
(-21,167,o),
(-21,97,cs),
(-21,27,o),
(-13,0,o),
(0,0,cs)
);
}
);
vertWidth = 0;
width = 394;
}
);
},
{
glyphname = "behDotless-ar.init";
kernRight = behdotless.init;
lastChange = "2026-01-26 18:08:19 +0000";
layers = (
{
anchors = (
{
name = bottom;
pos = (71,0);
},
{
name = num;
pos = (108,356);
},
{
name = ring;
},
{
name = top;
pos = (126,394);
}
);
layerId = "AE3FEF6D-3AA7-4252-B349-D2606A6A3B4C";
shapes = (
{
closed = 1;
nodes = (
(30,0,ls),
(163,0,o),
(213,64,o),
(213,173,cs),
(213,221,o),
(202,279,o),
(186,341,c),
(158,334,l),
(174,270,o),
(187,213,o),
(187,167,cs),
(187,78,o),
(145,29,o),
(30,29,cs),
(0,29,ls),
(-8,29,o),
(-10,23,o),
(-10,15,cs),
(-10,6,o),
(-8,0,o),
(0,0,cs)
);
}
);
width = 313;
},
{
anchors = (
{
name = bottom;
pos = (67,0);
},
{
name = num;
pos = (128,436);
},
{
name = ring;
},
{
name = top;
pos = (119,431);
}
);
layerId = "3FD7D777-D61F-402B-A269-3A472D550581";
shapes = (
{
closed = 1;
nodes = (
(14,0,ls),
(187,0,o),
(280,78,o),
(280,238,cs),
(280,290,o),
(268,363,o),
(247,447,c),
(84,402,l),
(99,337,o),
(108,287,o),
(108,264,cs),
(108,214,o),
(76,193,o),
(14,193,cs),
(0,193,ls),
(-10,193,o),
(-21,162,o),
(-21,97,cs),
(-21,33,o),
(-10,0,o),
(0,0,cs)
);
}
);
width = 320;
}
);
metricRight = "hamza-ar";
},
{
color = 3;
glyphname = "hah-ar";
lastChange = "2026-01-28 21:31:30 +0000";
layers = (
{
anchors = (
{
name = bottom;
pos = (395,-345);
},
{
name = center;
pos = (389,-74);
},
{
name = top;
pos = (368,355);
}
);
background = {
shapes = (
{
closed = 0;
nodes = (
(613,-288,l),
(545,-315,o),
(468,-329,o),
(394,-329,cs),
(246,-329,o),
(114,-268,o),
(114,-137,cs),
(114,61,o),
(388,165,o),
(588,203,c),
(591,220,l),
(510,236,o),
(438,259,o),
(377,280,cs),
(324,300,o),
(282,315,o),
(251,315,cs),
(199,315,o),
(166,288,o),
(136,224,cs),
(133,216,l)
);
}
);
};
layerId = "AE3FEF6D-3AA7-4252-B349-D2606A6A3B4C";
shapes = (
{
closed = 1;
nodes = (
(149,218,l),
(177,278,o),
(206,301,o),
(251,301,cs),
(279,301,o),
(319,286,o),
(372,266,cs),
(427,247,o),
(489,229,o),
(560,213,c),
(560,210,l),
(370,171,o),
(100,66,o),
(100,-137,cs),
(100,-279,o),
(241,-343,o),
(394,-343,cs),
(469,-343,o),
(548,-329,o),
(618,-301,c),
(608,-275,l),
(542,-301,o),
(467,-314,o),
(394,-314,cs),
(251,-314,o),
(129,-257,o),
(129,-137,cs),
(129,53,o),
(402,155,o),
(601,191,c),
(608,229,l),
(606,232,l),
(520,248,o),
(446,272,o),
(382,294,cs),
(329,314,o),
(285,330,o),
(251,330,cs),
(192,330,o),
(155,299,o),
(123,230,cs),
(119,221,l),
(147,211,l)
);
}
);
vertWidth = 0;
width = 662;
},
{
anchors = (
{
name = bottom;
pos = (412,-331);
},
{
name = center;
pos = (441,14);
},
{
name = top;
pos = (399,546);
}
);
layerId = "3FD7D777-D61F-402B-A269-3A472D550581";
shapes = (
{
closed = 1;
nodes = (
(190,297,l),
(207,336,o),
(225,357,o),
(258,357,cs),
(270,357,o),
(292,352,o),
(316,344,cs),
(338,337,o),
(381,327,o),
(429,318,c),
(429,314,l),
(177,240,o),
(40,127,o),
(40,-50,cs),
(40,-247,o),
(210,-331,o),
(408,-331,cs),
(510,-331,o),
(613,-309,o),
(709,-271,c),
(657,-95,l),
(605,-117,o),
(517,-136,o),
(431,-136,cs),
(318,-136,o),
(208,-103,o),
(208,-10,cs),
(208,103,o),
(373,173,o),
(646,235,c),
(684,422,l),
(679,427,l),
(597,432,o),
(543,443,o),
(413,490,cs),
(323,523,o),
(281,535,o),
(246,535,cs),
(169,535,o),
(119,475,o),
(66,335,cs),
(59,318,l),
(183,281,l)
);
}
);
vertWidth = 0;
width = 710;
}
);
metricLeft = "hamza-ar";
unicode = 1581;
},
{
glyphname = "hah-ar.fina";
lastChange = "2026-01-26 18:08:19 +0000";
layers = (
{
anchors = (
{
name = bottom;
pos = (396,-345);
},
{
name = center;
pos = (370,-89);
},
{
name = top;
pos = (369,355);
}
);
layerId = "AE3FEF6D-3AA7-4252-B349-D2606A6A3B4C";
shapes = (
{
closed = 1;
nodes = (
(444,156,l),
(487,50,o),
(550,0,o),
(646,0,cs),
(676,0,l),
(676,29,l),
(649,29,ls),
(560,29,o),
(506,68,o),
(470,160,c),
(470,164,l)
);
},
{
ref = "hah-ar";
}
);
vertWidth = 0;
width = 676;
},
{
anchors = (
{
name = bottom;
pos = (411,-351);
},
{
name = center;
pos = (389,6);
},
{
name = top;
pos = (398,546);
}
);
layerId = "3FD7D777-D61F-402B-A269-3A472D550581";
shapes = (
{
closed = 1;
nodes = (
(472,191,l),
(502,50,o),
(576,0,o),
(713,0,cs),
(719,0,l),
(719,193,l),
(676,193,ls),
(624,193,o),
(602,199,o),
(587,218,c),
(587,223,l)
);
},
{
ref = "hah-ar";
}
);
vertWidth = 0;
width = 719;
}
);
metricLeft = "hamza-ar";
unicode = 65186;
},
{
glyphname = "hah-ar.medi";
lastChange = "2026-01-26 18:08:19 +0000";
layers = (
{
anchors = (
{
name = bottom;
pos = (272,0);
},
{
name = top;
pos = (307,361);
}
);
layerId = "AE3FEF6D-3AA7-4252-B349-D2606A6A3B4C";
shapes = (
{
closed = 1;
nodes = (
(601,0,l),
(601,29,l),
(576,29,ls),
(494,29,o),
(451,50,o),
(405,119,c),
(405,124,l),
(378,110,l),
(430,27,o),
(489,0,o),
(574,0,cs)
);
},
{
ref = "hah-ar.init";
}
);
vertWidth = 0;
width = 601;
},
{
anchors = (
{
name = bottom;
pos = (323,0);
},
{
name = top;
pos = (383,533);
}
);
layerId = "3FD7D777-D61F-402B-A269-3A472D550581";
shapes = (
{
closed = 1;
nodes = (
(691,0,l),
(691,193,l),
(690,193,ls),
(654,193,o),
(629,196,o),
(594,204,c),
(594,224,l),
(441,139,l),
(501,41,o),
(585,0,o),
(690,0,cs)
);
},
{
ref = "hah-ar.init";
}
);
vertWidth = 0;
width = 691;
}
);
unicode = 65188;
},
{
color = 3;
glyphname = "hah-ar.init";
kernRight = hah.init;
lastChange = "2026-01-28 21:50:11 +0000";
layers = (
{
anchors = (
{
name = bottom;
pos = (272,0);
},
{
name = top;
pos = (307,361);
}
);
background = {
shapes = (
{
closed = 0;
nodes = (
(0,15,l),
(30,15,ls),
(123,15,o),
(197,34,o),
(296,85,cs),
(375,126,o),
(455,164,o),
(528,202,c),
(530,218,l),
(449,235,o),
(377,260,o),
(316,283,cs),
(263,304,o),
(221,320,o),
(190,320,cs),
(138,320,o),
(105,291,o),
(75,222,cs),
(72,214,l)
);
}
);
};
layerId = "AE3FEF6D-3AA7-4252-B349-D2606A6A3B4C";
shapes = (
{
closed = 1;
nodes = (
(30,0,ls),
(125,0,o),
(203,20,o),
(303,71,cs),
(384,113,o),
(466,153,o),
(542,193,c),
(546,227,l),
(544,230,l),
(458,247,o),
(385,273,o),
(322,297,cs),
(269,318,o),
(224,336,o),
(190,336,cs),
(131,336,o),
(94,302,o),
(62,228,cs),
(58,219,l),
(86,209,l),
(89,217,ls),
(117,282,o),
(145,307,o),
(190,307,cs),
(218,307,o),
(258,291,o),
(311,270,cs),
(367,248,o),
(434,225,o),
(507,209,c),
(507,206,l),
(439,171,o),
(363,135,o),
(290,97,cs),
(192,47,o),
(121,29,o),
(30,29,cs),
(0,29,ls),
(-7,29,o),
(-10,25,o),
(-10,15,cs),
(-10,4,o),
(-7,0,o),
(0,0,cs)
);
}
);
vertWidth = 0;
width = 616;
},
{
anchors = (
{
name = bottom;
pos = (323,0);
},
{
name = top;
pos = (383,533);
}
);
background = {
shapes = (
{
closed = 1;
nodes = (
(44,0,ls),
(214,0,o),
(354,88,o),
(468,147,cs),
(625,228,l),
(646,392,l),
(600,396,o),
(517,423,o),
(407,467,cs),
(325,501,o),
(271,522,o),
(230,522,cs),
(155,522,o),
(101,463,o),
(44,324,cs),
(38,310,l),
(156,270,l),
(161,284,ls),
(179,330,o),
(199,344,o),
(236,344,cs),
(256,344,o),
(278,337,o),
(305,329,cs),
(428,294,l),
(428,289,l),
(370,265,o),
(317,244,o),
(272,227,cs),
(221,208,o),
(164,193,o),
(99,193,cs),
(0,193,ls),
(-12,193,o),
(-21,167,o),
(-21,97,cs),
(-21,26,o),
(-12,0,o),
(0,0,cs)
);
}
);
};
layerId = "3FD7D777-D61F-402B-A269-3A472D550581";
shapes = (
{
closed = 1;
nodes = (
(44,0,ls),
(226,0,o),
(358,81,o),
(468,147,cs),
(534,186,o),
(580,214,o),
(624,225,c),
(666,388,l),
(661,393,l),
(591,396,o),
(517,423,o),
(407,467,cs),
(325,501,o),
(271,522,o),
(230,522,cs),
(155,522,o),
(101,463,o),
(44,324,cs),
(38,310,l),
(156,270,l),
(161,284,ls),
(179,330,o),
(199,344,o),
(236,344,cs),
(256,344,o),
(278,337,o),
(304,328,cs),
(330,319,o),
(372,306,o),
(428,294,c),
(428,289,l),
(370,265,o),
(317,244,o),
(272,227,cs),
(221,208,o),
(164,193,o),
(99,193,cs),
(0,193,ls),
(-12,193,o),
(-21,167,o),
(-21,97,cs),
(-21,26,o),
(-12,0,o),
(0,0,cs)
);
}
);
vertWidth = 0;
width = 691;
}
);
unicode = 65187;
},
{
color = 3;
glyphname = "dal-ar";
kernRight = dal;
lastChange = "2026-02-01 21:03:39 +0000";
layers = (
{
anchors = (
{
name = bottom;
pos = (217,-4);
},
{
name = ring;
pos = (184,-4);
},
{
name = top;
pos = (238,445);
}
);
layerId = "AE3FEF6D-3AA7-4252-B349-D2606A6A3B4C";
shapes = (
{
closed = 1;
nodes = (
(338,-4,o),
(426,48,o),
(426,146,cs),
(426,234,o),
(390,284,o),
(223,445,c),
(203,425,l),
(368,266,o),
(397,223,o),
(397,146,cs),
(397,68,o),
(325,25,o),
(184,25,cs),
(144,25,o),
(101,27,o),
(54,34,c),
(50,6,l),
(97,-1,o),
(144,-4,o),
(184,-4,cs)
);
}
);
width = 516;
},
{
anchors = (
{
name = bottom;
pos = (227,-2);
},
{
name = ring;
pos = (180,-2);
},
{
name = top;
pos = (245,570);
}
);
layerId = "3FD7D777-D61F-402B-A269-3A472D550581";
shapes = (
{
closed = 1;
nodes = (
(373,-2,o),
(466,95,o),
(466,233,cs),
(466,345,o),
(418,430,o),
(264,567,c),
(151,432,l),
(260,336,o),
(308,286,o),
(308,245,cs),
(308,211,o),
(271,189,o),
(176,189,cs),
(139,189,o),
(96,194,o),
(61,200,c),
(24,17,l),
(79,4,o),
(132,-2,o),
(180,-2,cs)
);
}
);
width = 500;
}
);
metricRight = "heh-ar";
unicode = 1583;
},
{
glyphname = "dal-ar.fina";
lastChange = "2026-01-26 18:08:19 +0000";
layers = (
{
anchors = (
{
name = bottom;
pos = (214,-5);
},
{
name = ring;
pos = (214,-5);
},
{
name = top;
pos = (309,441);
}
);
background = {
shapes = (
{
closed = 1;
nodes = (
(435,26,o),
(484,0,o),
(565,0,cs),
(575,0,l),
(575,29,l),
(565,29,ls),
(491,29,o),
(434,47,o),
(412,125,cs),
(323,437,l),
(299,427,l),
(389,111,l),
(358,61,o),
(297,25,o),
(193,25,cs),
(119,25,o),
(75,43,o),
(75,93,cs),
(75,110,o),
(80,147,o),
(88,170,c),
(64,176,l),
(56,153,o),
(50,113,o),
(50,91,cs),
(50,31,o),
(93,0,o),
(191,0,cs),
(304,0,o),
(366,36,o),
(397,88,c),
(402,88,l)
);
}
);
};
layerId = "AE3FEF6D-3AA7-4252-B349-D2606A6A3B4C";
shapes = (
{
closed = 1;
nodes = (
(139,-1,o),
(196,-1,cs),
(279,-1,o),
(364,26,o),
(405,89,c),
(410,89,l),
(440,29,o),
(503,0,o),
(584,0,cs),
(594,0,l),
(594,29,l),
(584,29,ls),
(510,29,o),
(445,48,o),
(421,125,cs),
(322,437,l),
(298,427,l),
(397,114,l),
(353,52,o),
(282,25,o),
(198,25,cs),
(139,25,o),
(102,34,o),
(63,64,c),
(50,43,l),
(90,12,o)
);
}
);
vertWidth = 0;
width = 594;
},
{
anchors = (
{
name = bottom;
pos = (222,-3);
},
{
name = ring;
pos = (183,-3);
},
{
name = top;
pos = (292,575);
}
);
background = {
shapes = (
{
closed = 1;
nodes = (
(446,27,o),
(508,0,o),
(591,0,c),
(589,0,l),
(589,193,l),
(591,193,ls),
(525,193,o),
(502,207,o),
(475,292,cs),
(387,572,l),
(240,473,l),
(336,225,l),
(310,201,o),
(268,193,o),
(223,193,cs),
(178,193,o),
(153,196,o),
(153,228,cs),
(153,238,o),
(156,251,o),
(160,267,c),
(39,291,l),
(28,251,o),
(21,204,o),
(21,169,cs),
(21,54,o),
(72,0,o),
(204,0,cs),
(290,0,o),
(369,29,o),
(411,92,c),
(420,92,l)
);
}
);
};
layerId = "3FD7D777-D61F-402B-A269-3A472D550581";
shapes = (
{
closed = 1;
nodes = (
(144,0,o),
(204,0,cs),
(286,0,o),
(363,24,o),
(411,92,c),
(420,92,l),
(446,27,o),
(508,0,o),
(591,0,cs),
(589,0,l),
(589,193,l),
(591,193,ls),
(525,193,o),
(502,207,o),
(475,292,cs),
(393,553,l),
(240,473,l),
(334,229,l),
(310,207,o),
(254,193,o),
(199,193,cs),
(159,193,o),
(117,198,o),
(74,212,c),
(24,35,l),
(81,13,o)
);
}
);
vertWidth = 0;
width = 591;
}
);
metricLeft = "dal-ar";
unicode = 65194;
},
{
color = 3;
glyphname = "reh-ar";
kernLeft = reh;
kernRight = reh;
lastChange = "2026-01-27 19:49:18 +0000";
layers = (
{
anchors = (
{
name = bottom;
pos = (205,-208);
},
{
name = center;
pos = (74,12);
},
{
name = middle;
pos = (294,-92);
},
{
name = ring;
pos = (205,-176);
},
{
name = stroke;
pos = (166,-165);
},
{
name = top;
pos = (240,252);
}
);
layerId = "AE3FEF6D-3AA7-4252-B349-D2606A6A3B4C";
shapes = (
{
closed = 1;
nodes = (
(205,-188,o),
(298,-92,o),
(298,34,cs),
(298,100,o),
(284,170,o),
(256,251,c),
(228,239,l),
(256,164,o),
(269,97,o),
(269,31,cs),
(269,-78,o),
(180,-166,o),
(0,-232,c),
(12,-259,l)
);
}
);
vertWidth = 0;
width = 388;
},
{
anchors = (
{
name = bottom;
pos = (269,-240);
},
{
name = center;
pos = (80,102);
},
{
name = middle;
pos = (370,-111);
},
{
name = ring;
pos = (326,-148);
},
{
name = stroke;
pos = (213,-100);
},
{
name = top;
pos = (272,363);
}
);
layerId = "3FD7D777-D61F-402B-A269-3A472D550581";
shapes = (
{
closed = 1;
nodes = (
(312,-189,o),
(414,-74,o),
(414,102,cs),
(414,169,o),
(400,240,o),
(362,361,c),
(197,305,l),
(225,225,o),
(242,149,o),
(242,102,cs),
(242,13,o),
(176,-41,o),
(0,-99,c),
(84,-271,l)
);
}
);
vertWidth = 0;
width = 448;
}
);
metricRight = "heh-ar";
unicode = 1585;
},
{
glyphname = "reh-ar.fina";
kernLeft = reh;
lastChange = "2026-01-27 19:35:58 +0000";
layers = (
{
anchors = (
{
name = bottom;
pos = (205,-208);
},
{
name = center;
pos = (74,12);
},
{
name = middle;
pos = (294,-92);
},
{
name = ring;
pos = (205,-176);
},
{
name = stroke;
pos = (166,-165);
},
{
name = top;
pos = (240,252);
}
);
layerId = "AE3FEF6D-3AA7-4252-B349-D2606A6A3B4C";
shapes = (
{
closed = 1;
nodes = (
(235,-177,o),
(311,-84,o),
(290,85,c),
(294,86,l),
(323,27,o),
(371,0,o),
(443,0,c),
(443,29,l),
(360,29,o),
(316,63,o),
(288,151,cs),
(256,251,l),
(228,239,l),
(256,165,o),
(269,97,o),
(269,30,cs),
(269,-80,o),
(180,-167,o),
(0,-233,c),
(12,-260,l)
);
}
);
vertWidth = 0;
width = 443;
},
{
anchors = (
{
name = bottom;
pos = (269,-240);
},
{
name = center;
pos = (80,102);
},
{
name = middle;
pos = (370,-111);
},
{
name = ring;
pos = (326,-148);
},
{
name = stroke;
pos = (213,-100);
},
{
name = top;
pos = (272,363);
}
);
layerId = "3FD7D777-D61F-402B-A269-3A472D550581";
shapes = (
{
closed = 1;
nodes = (
(261,-210,o),
(377,-118,o),
(410,21,c),
(419,21,l),
(445,8,o),
(472,0,o),
(513,0,c),
(513,193,l),
(429,193,o),
(408,207,o),
(387,278,cs),
(362,361,l),
(197,305,l),
(225,224,o),
(242,149,o),
(242,102,cs),
(242,13,o),
(177,-41,o),
(0,-99,c),
(84,-271,l)
);
}
);
vertWidth = 0;
width = 513;
}
);
metricLeft = "reh-ar";
unicode = 65198;
},
{
glyphname = "rehLoop-ar";
lastChange = "2026-01-27 19:52:21 +0000";
layers = (
{
anchors = (
{
name = bottom;
pos = (260,-266);
},
{
name = top;
pos = (467,264);
}
);
layerId = "AE3FEF6D-3AA7-4252-B349-D2606A6A3B4C";
shapes = (
{
closed = 1;
nodes = (
(201,-236,o),
(129,-219,o),
(129,-142,cs),
(129,-58,o),
(216,-22,o),
(324,-22,cs),
(381,-22,o),
(434,-32,o),
(488,-53,c),
(461,-150,o),
(389,-236,o),
(259,-236,cs)
);
},
{
closed = 1;
nodes = (
(526,-15,o),
(530,9,o),
(530,34,cs),
(530,100,o),
(516,170,o),
(488,251,c),
(460,239,l),
(492,154,o),
(512,59,o),
(494,-28,c),
(437,-7,o),
(375,7,o),
(313,7,cs),
(201,7,o),
(100,-39,o),
(100,-142,cs),
(100,-237,o),
(185,-266,o),
(260,-266,cs),
(381,-266,o),
(482,-190,o),
(514,-64,c),
(545,-78,o),
(573,-94,o),
(604,-115,c),
(619,-91,l),
(591,-72,o),
(558,-54,o),
(520,-38,c)
);
}
);
vertWidth = 0;
width = 719;
},
{
anchors = (
{
name = bottom;
pos = (253,-267);
},
{
name = top;
pos = (471,353);
}
);
layerId = "3FD7D777-D61F-402B-A269-3A472D550581";
shapes = (
{
closed = 1;
nodes = (
(202,-103,o),
(164,-90,o),
(164,-61,cs),
(164,-33,o),
(200,-10,o),
(242,-10,cs),
(285,-10,o),
(335,-34,o),
(374,-72,c),
(347,-91,o),
(302,-103,o),
(253,-103,cs)
);
},
{
closed = 1;
nodes = (
(608,1,o),
(615,50,o),
(615,102,cs),
(615,169,o),
(601,240,o),
(563,361,c),
(398,305,l),
(420,241,o),
(450,146,o),
(441,77,c),
(380,115,o),
(317,139,o),
(258,139,cs),
(153,139,o),
(40,64,o),
(40,-81,cs),
(40,-207,o),
(125,-267,o),
(253,-267,cs),
(356,-267,o),
(435,-228,o),
(496,-163,c),
(522,-191,o),
(551,-222,o),
(586,-261,c),
(695,-153,l),
(661,-114,o),
(626,-76,o),
(589,-41,c)
);
}
);
vertWidth = 0;
width = 735;
}
);
metricLeft = "hamza-ar";
metricRight = "hamza-ar";
unicode = 2218;
},
{
glyphname = "rehLoop-ar.fina";
lastChange = "2026-01-27 19:47:35 +0000";
layers = (
{
anchors = (
{
name = bottom;
pos = (260,-266);
},
{
name = top;
pos = (467,264);
}
);
layerId = "AE3FEF6D-3AA7-4252-B349-D2606A6A3B4C";
shapes = (
{
closed = 1;
nodes = (
(381,-266,o),
(482,-190,o),
(514,-64,c),
(545,-78,o),
(573,-94,o),
(604,-115,c),
(619,-91,l),
(591,-72,o),
(558,-54,o),
(520,-38,c),
(527,0,o),
(528,40,o),
(522,85,c),
(526,86,l),
(555,27,o),
(603,0,o),
(675,0,c),
(675,29,l),
(592,29,o),
(548,63,o),
(520,151,cs),
(488,251,l),
(460,239,l),
(492,154,o),
(512,59,o),
(494,-28,c),
(437,-7,o),
(375,7,o),
(313,7,cs),
(201,7,o),
(100,-39,o),
(100,-142,cs),
(100,-237,o),
(185,-266,o),
(260,-266,cs)
);
},
{
closed = 1;
nodes = (
(201,-236,o),
(129,-219,o),
(129,-142,cs),
(129,-58,o),
(216,-22,o),
(324,-22,cs),
(381,-22,o),
(434,-32,o),
(488,-53,c),
(461,-150,o),
(389,-236,o),
(259,-236,cs)
);
}
);
vertWidth = 0;
width = 675;
},
{
anchors = (
{
name = bottom;
pos = (253,-267);
},
{
name = top;
pos = (471,353);
}
);
layerId = "3FD7D777-D61F-402B-A269-3A472D550581";
shapes = (
{
closed = 1;
nodes = (
(356,-267,o),
(435,-228,o),
(496,-163,c),
(522,-191,o),
(551,-222,o),
(586,-261,c),
(695,-153,l),
(661,-114,o),
(626,-76,o),
(589,-41,c),
(598,-24,o),
(605,-3,o),
(611,21,c),
(620,21,l),
(646,8,o),
(673,0,o),
(714,0,c),
(714,193,l),
(630,193,o),
(609,207,o),
(588,278,cs),
(563,361,l),
(398,305,l),
(420,241,o),
(450,146,o),
(441,77,c),
(380,115,o),
(317,139,o),
(258,139,cs),
(153,139,o),
(40,64,o),
(40,-81,cs),
(40,-207,o),
(125,-267,o),
(253,-267,cs)
);
},
{
closed = 1;
nodes = (
(202,-103,o),
(164,-90,o),
(164,-61,cs),
(164,-33,o),
(200,-10,o),
(242,-10,cs),
(285,-10,o),
(335,-34,o),
(374,-72,c),
(347,-91,o),
(302,-103,o),
(253,-103,cs)
);
}
);
vertWidth = 0;
width = 714;
}
);
metricLeft = "hamza-ar";
},
{
glyphname = "seen-ar";
kernRight = seen;
lastChange = "2026-02-02 20:20:41 +0000";
layers = (
{
anchors = (
{
name = bottom;
pos = (371,-216);
},
{
name = "bottom-alt";
pos = (910,0);
},
{
name = top;
pos = (924,358);
}
);
layerId = "3FD7D777-D61F-402B-A269-3A472D550581";
shapes = (
{
closed = 1;
nodes = (
(1084,361,l),
(1090,324,o),
(1097,264,o),
(1097,245,cs),
(1097,211,o),
(1080,193,o),
(1039,193,cs),
(999,193,o),
(981,214,o),
(984,256,cs),
(989,333,l),
(848,343,l),
(840,262,ls),
(836,212,o),
(817,193,o),
(781,193,cs),
(745,193,o),
(730,214,o),
(714,260,cs),
(674,373,l),
(516,293,l),
(547,218,o),
(568,141,o),
(568,89,cs),
(568,6,o),
(506,-34,o),
(377,-34,cs),
(254,-34,o),
(198,5,o),
(198,93,cs),
(198,137,o),
(208,200,o),
(223,265,c),
(79,306,l),
(54,226,o),
(40,138,o),
(40,69,cs),
(40,-123,o),
(149,-216,o),
(371,-216,cs),
(567,-216,o),
(689,-134,o),
(722,17,c),
(729,17,l),
(749,6,o),
(773,0,o),
(797,0,cs),
(844,0,o),
(893,22,o),
(914,65,c),
(924,65,l),
(950,23,o),
(1002,0,o),
(1058,0,cs),
(1202,0,o),
(1253,114,o),
(1253,250,cs),
(1253,296,o),
(1247,346,o),
(1237,384,c)
);
}
);
width = 1293;
},
{
anchors = (
{
name = bottom;
pos = (360,-214);
},
{
name = "bottom-alt";
pos = (875,5);
},
{
name = top;
pos = (889,251);
}
);
layerId = "AE3FEF6D-3AA7-4252-B349-D2606A6A3B4C";
name = Thin;
shapes = (
{
closed = 1;
nodes = (
(1088,260,l),
(1100,181,o),
(1102,162,o),
(1102,137,cs),
(1102,62,o),
(1071,29,o),
(1002,29,cs),
(926,29,o),
(886,79,o),
(896,173,cs),
(902,232,l),
(871,236,l),
(865,176,ls),
(855,69,o),
(821,29,o),
(744,29,cs),
(698,29,o),
(655,51,o),
(633,119,cs),
(596,236,l),
(569,225,l),
(604,128,o),
(614,69,o),
(614,20,cs),
(614,-107,o),
(528,-184,o),
(360,-184,cs),
(202,-184,o),
(130,-117,o),
(130,5,cs),
(130,53,o),
(141,124,o),
(159,193,c),
(131,200,l),
(113,131,o),
(100,55,o),
(100,5,cs),
(100,-133,o),
(187,-214,o),
(360,-214,cs),
(548,-214,o),
(660,-119,o),
(637,53,c),
(644,54,l),
(668,13,o),
(705,0,o),
(744,0,cs),
(814,0,o),
(857,35,o),
(873,104,c),
(878,104,l),
(891,35,o),
(936,0,o),
(1002,0,cs),
(1088,0,o),
(1130,45,o),
(1130,138,cs),
(1130,167,o),
(1127,200,o),
(1117,265,c)
);
}
);
width = 1230;
}
);
metricLeft = "hamza-ar";
metricRight = "hamza-ar";
unicode = 1587;
},
{
glyphname = "seen-ar.fina";
lastChange = "2026-02-02 20:20:47 +0000";
layers = (
{
anchors = (
{
name = bottom;
pos = (370,-214);
},
{
name = "bottom-alt";
pos = (875,5);
},
{
name = top;
pos = (889,251);
}
);
layerId = "AE3FEF6D-3AA7-4252-B349-D2606A6A3B4C";
shapes = (
{
closed = 1;
nodes = (
(871,236,l),
(865,176,ls),
(855,69,o),
(821,29,o),
(744,29,cs),
(698,29,o),
(655,51,o),
(633,119,cs),
(596,236,l),
(569,225,l),
(604,128,o),
(614,69,o),
(614,20,cs),
(614,-107,o),
(528,-184,o),
(360,-184,cs),
(202,-184,o),
(130,-117,o),
(130,5,cs),
(130,53,o),
(141,124,o),
(159,193,c),
(131,200,l),
(113,131,o),
(100,55,o),
(100,5,cs),
(100,-133,o),
(187,-214,o),
(360,-214,cs),
(548,-214,o),
(660,-119,o),
(637,53,c),
(644,54,l),
(668,13,o),
(705,0,o),
(744,0,cs),
(814,0,o),
(857,35,o),
(873,104,c),
(878,104,l),
(891,35,o),
(936,0,o),
(1002,0,cs),
(1076,0,o),
(1120,45,o),
(1126,136,c),
(1130,136,l),
(1147,50,o),
(1203,0,o),
(1320,0,c),
(1320,29,l),
(1193,29,o),
(1152,84,o),
(1133,206,cs),
(1125,262,l),
(1097,256,l),
(1100,236,o),
(1106,199,o),
(1106,164,cs),
(1106,72,o),
(1072,29,o),
(1002,29,cs),
(926,29,o),
(886,79,o),
(896,173,cs),
(902,232,l)
);
}
);
vertWidth = 0;
width = 1320;
},
{
anchors = (
{
name = bottom;
pos = (369,-229);
},
{
name = "bottom-alt";
pos = (910,0);
},
{
name = top;
pos = (924,358);
}
);
layerId = "3FD7D777-D61F-402B-A269-3A472D550581";
shapes = (
{
closed = 1;
nodes = (
(848,343,l),
(840,262,ls),
(836,212,o),
(817,193,o),
(781,193,cs),
(745,193,o),
(730,214,o),
(714,260,cs),
(674,373,l),
(516,293,l),
(547,218,o),
(568,141,o),
(568,89,cs),
(568,6,o),
(506,-34,o),
(377,-34,cs),
(254,-34,o),
(198,5,o),
(198,93,cs),
(198,137,o),
(208,200,o),
(223,265,c),
(79,306,l),
(54,226,o),
(40,138,o),
(40,69,cs),
(40,-123,o),
(149,-216,o),
(371,-216,cs),
(567,-216,o),
(689,-134,o),
(722,17,c),
(729,17,l),
(749,6,o),
(773,0,o),
(797,0,cs),
(844,0,o),
(893,22,o),
(914,65,c),
(924,65,l),
(949,24,o),
(999,0,o),
(1063,0,cs),
(1132,0,o),
(1174,28,o),
(1206,73,c),
(1216,73,l),
(1244,30,o),
(1287,0,o),
(1364,0,c),
(1364,193,l),
(1286,193,o),
(1261,216,o),
(1254,285,cs),
(1243,378,l),
(1087,355,l),
(1095,292,o),
(1098,267,o),
(1098,252,cs),
(1098,214,o),
(1080,193,o),
(1039,193,cs),
(999,193,o),
(981,214,o),
(984,256,cs),
(989,333,l)
);
}
);
vertWidth = 0;
width = 1364;
}
);
metricLeft = "hamza-ar";
unicode = 65202;
},
{
glyphname = "seen-ar.medi";
lastChange = "2026-02-01 22:02:23 +0000";
layers = (
{
anchors = (
{
name = bottom;
pos = (438,0);
},
{
name = top;
pos = (452,251);
}
);
layerId = "AE3FEF6D-3AA7-4252-B349-D2606A6A3B4C";
shapes = (
{
closed = 1;
nodes = (
(1,0,ls),
(96,0,o),
(138,37,o),
(169,121,c),
(178,121,l),
(189,37,o),
(232,0,o),
(305,0,cs),
(377,0,o),
(420,37,o),
(436,104,c),
(441,104,l),
(454,35,o),
(499,0,o),
(565,0,cs),
(640,0,o),
(683,45,o),
(689,136,c),
(693,136,l),
(710,50,o),
(766,0,o),
(883,0,c),
(883,29,l),
(756,29,o),
(715,84,o),
(696,206,cs),
(688,262,l),
(660,256,l),
(663,236,o),
(669,199,o),
(669,164,cs),
(669,72,o),
(635,29,o),
(565,29,cs),
(489,29,o),
(449,79,o),
(459,173,cs),
(465,232,l),
(434,236,l),
(428,176,ls),
(418,71,o),
(387,29,o),
(309,29,cs),
(222,29,o),
(182,82,o),
(198,194,cs),
(206,250,l),
(177,254,l),
(173,228,ls),
(151,82,o),
(119,29,o),
(1,29,cs),
(0,29,ls),
(-8,29,o),
(-10,26,o),
(-10,15,cs),
(-10,3,o),
(-8,0,o),
(0,0,cs)
);
}
);
vertWidth = 0;
width = 883;
},
{
anchors = (
{
name = bottom;
pos = (462,0);
},
{
name = top;
pos = (474,358);
}
);
layerId = "3FD7D777-D61F-402B-A269-3A472D550581";
shapes = (
{
closed = 1;
nodes = (
(15,0,ls),
(88,0,o),
(129,26,o),
(171,71,c),
(181,71,l),
(204,31,o),
(254,0,o),
(329,0,cs),
(395,0,o),
(443,25,o),
(464,65,c),
(474,65,l),
(499,24,o),
(549,0,o),
(613,0,cs),
(682,0,o),
(724,28,o),
(756,73,c),
(766,73,l),
(794,30,o),
(837,0,o),
(914,0,c),
(914,193,l),
(836,193,o),
(811,216,o),
(804,285,cs),
(793,378,l),
(637,355,l),
(645,292,o),
(648,267,o),
(648,252,cs),
(648,214,o),
(630,193,o),
(589,193,cs),
(549,193,o),
(531,214,o),
(534,256,cs),
(539,333,l),
(398,343,l),
(390,255,ls),
(387,215,o),
(372,193,o),
(330,193,cs),
(287,193,o),
(271,217,o),
(274,263,cs),
(282,352,l),
(124,364,l),
(116,280,ls),
(108,218,o),
(91,193,o),
(15,193,cs),
(0,193,ls),
(-12,193,o),
(-21,167,o),
(-21,100,cs),
(-21,30,o),
(-11,0,o),
(0,0,cs)
);
}
);
vertWidth = 0;
width = 914;
}
);
unicode = 65204;
},
{
glyphname = "seen-ar.init";
kernRight = seen;
lastChange = "2026-02-02 20:20:30 +0000";
layers = (
{
anchors = (
{
name = bottom;
pos = (438,0);
},
{
name = top;
pos = (452,251);
}
);
layerId = "AE3FEF6D-3AA7-4252-B349-D2606A6A3B4C";
shapes = (
{
closed = 1;
nodes = (
(1,0,ls),
(96,0,o),
(138,37,o),
(169,121,c),
(178,121,l),
(189,37,o),
(232,0,o),
(305,0,cs),
(377,0,o),
(420,37,o),
(436,104,c),
(441,104,l),
(454,35,o),
(499,0,o),
(565,0,cs),
(651,0,o),
(693,45,o),
(693,138,cs),
(693,167,o),
(690,200,o),
(680,265,c),
(651,260,l),
(663,181,o),
(665,162,o),
(665,137,cs),
(665,62,o),
(634,29,o),
(565,29,cs),
(489,29,o),
(449,79,o),
(459,173,cs),
(465,232,l),
(434,236,l),
(428,176,ls),
(418,71,o),
(387,29,o),
(309,29,cs),
(222,29,o),
(182,82,o),
(198,194,cs),
(206,250,l),
(177,254,l),
(173,228,ls),
(151,82,o),
(119,29,o),
(1,29,cs),
(0,29,ls),
(-8,29,o),
(-10,26,o),
(-10,15,cs),
(-10,3,o),
(-8,0,o),
(0,0,cs)
);
}
);
width = 793;
},
{
anchors = (
{
name = bottom;
pos = (462,0);
},
{
name = top;
pos = (474,358);
}
);
layerId = "3FD7D777-D61F-402B-A269-3A472D550581";
shapes = (
{
closed = 1;
nodes = (
(15,0,ls),
(88,0,o),
(129,26,o),
(171,71,c),
(181,71,l),
(204,31,o),
(254,0,o),
(329,0,cs),
(395,0,o),
(443,25,o),
(464,65,c),
(474,65,l),
(500,23,o),
(552,0,o),
(608,0,cs),
(752,0,o),
(803,114,o),
(803,250,cs),
(803,296,o),
(797,346,o),
(787,384,c),
(634,361,l),
(640,324,o),
(647,264,o),
(647,245,cs),
(647,211,o),
(630,193,o),
(589,193,cs),
(549,193,o),
(531,214,o),
(534,256,cs),
(539,333,l),
(398,343,l),
(390,255,ls),
(387,215,o),
(372,193,o),
(330,193,cs),
(287,193,o),
(271,217,o),
(274,263,cs),
(282,352,l),
(124,364,l),
(116,280,ls),
(108,218,o),
(91,193,o),
(15,193,cs),
(0,193,ls),
(-12,193,o),
(-21,167,o),
(-21,99,cs),
(-21,30,o),
(-11,0,o),
(0,0,cs)
);
}
);
vertWidth = 0;
width = 843;
}
);
metricRight = "hamza-ar";
unicode = 65203;
},
{
glyphname = "sad-ar";
kernRight = sad;
lastChange = "2026-02-02 20:26:09 +0000";
layers = (
{
anchors = (
{
name = bottom;
pos = (359,-210);
},
{
name = "bottom-alt";
pos = (850,0);
},
{
name = top;
pos = (962,323);
}
);
background = {
shapes = (
{
closed = 1;
nodes = (
(597,127,o),
(609,69,o),
(609,17,cs),
(609,-113,o),
(523,-181,o),
(359,-181,cs),
(201,-181,o),
(129,-123,o),
(129,2,cs),
(129,54,o),
(140,124,o),
(158,193,c),
(131,200,l),
(113,132,o),
(100,56,o),
(100,2,cs),
(100,-139,o),
(188,-210,o),
(359,-210,cs),
(536,-210,o),
(638,-129,o),
(638,17,cs),
(638,23,o),
(638,29,o),
(637,37,c),
(682,12,o),
(746,0,o),
(820,0,cs),
(1009,0,o),
(1103,57,o),
(1103,171,cs),
(1103,259,o),
(1044,323,o),
(962,323,cs),
(877,323,o),
(810,266,o),
(644,65,c),
(641,67,o),
(638,69,o),
(634,72,c),
(628,114,o),
(614,165,o),
(593,225,c),
(565,216,l)
);
},
{
closed = 1;
nodes = (
(750,29,o),
(705,37,o),
(666,54,c),
(821,239,o),
(885,293,o),
(959,293,cs),
(1026,293,o),
(1073,242,o),
(1073,171,cs),
(1073,75,o),
(990,29,o),
(820,29,cs)
);
}
);
};
layerId = "AE3FEF6D-3AA7-4252-B349-D2606A6A3B4C";
shapes = (
{
closed = 1;
nodes = (
(682,12,o),
(746,0,o),
(820,0,cs),
(1009,0,o),
(1103,57,o),
(1103,171,cs),
(1103,259,o),
(1044,323,o),
(962,323,cs),
(877,323,o),
(810,266,o),
(644,65,c),
(634,72,l),
(628,114,o),
(614,165,o),
(593,225,c),
(565,216,l),
(597,127,o),
(609,69,o),
(609,17,cs),
(609,-113,o),
(523,-181,o),
(359,-181,cs),
(201,-181,o),
(129,-123,o),
(129,2,cs),
(129,54,o),
(140,124,o),
(158,193,c),
(131,200,l),
(113,132,o),
(100,56,o),
(100,2,cs),
(100,-139,o),
(188,-210,o),
(359,-210,cs),
(536,-210,o),
(648,-128,o),
(637,37,c)
);
},
{
closed = 1;
nodes = (
(750,29,o),
(705,37,o),
(666,54,c),
(821,239,o),
(885,293,o),
(959,293,cs),
(1026,293,o),
(1073,242,o),
(1073,171,cs),
(1073,75,o),
(990,29,o),
(820,29,cs)
);
}
);
width = 1193;
},
{
anchors = (
{
name = bottom;
pos = (359,-221);
},
{
name = "bottom-alt";
pos = (850,0);
},
{
name = top;
pos = (962,323);
}
);
associatedMasterId = "AE3FEF6D-3AA7-4252-B349-D2606A6A3B4C";
background = {
shapes = (
{
closed = 0;
nodes = (
(588,220,l),
(608,168,o),
(628,93,o),
(628,36,cs),
(628,-115,o),
(502,-204,o),
(352,-204,cs),
(217,-204,o),
(119,-133,o),
(119,2,cs),
(119,58,o),
(139,135,o),
(155,188,cs)
);
},
{
closed = 0;
nodes = (
(649,53,l),
(812,249,o),
(882,310,o),
(959,310,cs),
(1035,310,o),
(1089,249,o),
(1089,170,cs),
(1089,68,o),
(1004,14,o),
(820,14,cs),
(748,14,o),
(698,24,o),
(631,55,c)
);
}
);
};
layerId = "53FCDD82-2F12-4D89-BF2E-E7B1810905E0";
name = "Apr 25, 25 at 21:21";
shapes = (
{
closed = 1;
nodes = (
(537,-221,o),
(653,-121,o),
(637,36,c),
(689,11,o),
(741,0,o),
(820,0,cs),
(1009,0,o),
(1103,57,o),
(1103,171,cs),
(1103,259,o),
(1044,323,o),
(962,323,cs),
(877,323,o),
(810,266,o),
(644,65,c),
(634,70,l),
(629,110,o),
(618,159,o),
(598,220,c),
(571,209,l),
(599,122,o),
(608,60,o),
(608,10,cs),
(608,-111,o),
(519,-191,o),
(359,-191,cs),
(208,-191,o),
(130,-121,o),
(130,9,cs),
(130,60,o),
(138,110,o),
(150,184,c),
(120,190,l),
(107,117,o),
(100,63,o),
(100,9,cs),
(100,-139,o),
(192,-221,o),
(359,-221,cs)
);
},
{
closed = 1;
nodes = (
(750,29,o),
(705,37,o),
(666,54,c),
(821,239,o),
(885,293,o),
(959,293,cs),
(1026,293,o),
(1073,242,o),
(1073,171,cs),
(1073,75,o),
(990,29,o),
(820,29,cs)
);
}
);
width = 1193;
},
{
anchors = (
{
name = bottom;
pos = (349,-223);
},
{
name = "bottom-alt";
pos = (913,0);
},
{
name = top;
pos = (1015,479);
}
);
associatedMasterId = "3FD7D777-D61F-402B-A269-3A472D550581";
layerId = "9BFD5493-CA2C-4F85-9DDD-8DEA07537F49";
name = "Apr 25, 25 at 21:30";
shapes = (
{
closed = 1;
nodes = (
(566,-223,o),
(704,-93,o),
(704,113,cs),
(704,197,o),
(682,299,o),
(645,384,c),
(497,298,l),
(535,207,o),
(553,145,o),
(553,102,cs),
(553,15,o),
(478,-41,o),
(361,-41,cs),
(255,-41,o),
(198,5,o),
(198,90,cs),
(198,128,o),
(209,185,o),
(230,250,c),
(91,301,l),
(58,214,o),
(40,128,o),
(40,58,cs),
(40,-119,o),
(154,-223,o),
(349,-223,cs)
);
},
{
closed = 1;
nodes = (
(695,40,l),
(750,13,o),
(811,0,o),
(883,0,cs),
(1084,0,o),
(1203,95,o),
(1203,256,cs),
(1203,390,o),
(1128,479,o),
(1015,479,cs),
(919,479,o),
(833,421,o),
(697,265,c),
(679,275,l)
);
},
{
closed = 1;
nodes = (
(865,191,o),
(841,193,o),
(828,197,c),
(895,264,o),
(946,294,o),
(990,294,cs),
(1024,294,o),
(1048,276,o),
(1048,249,cs),
(1048,211,o),
(995,191,o),
(897,191,cs)
);
}
);
width = 1237;
},
{
anchors = (
{
name = bottom;
pos = (369,-223);
},
{
name = "bottom-alt";
pos = (933,0);
},
{
name = top;
pos = (1033,479);
}
);
layerId = "3FD7D777-D61F-402B-A269-3A472D550581";
name = Black;
shapes = (
{
closed = 1;
nodes = (
(772,13,o),
(833,0,o),
(903,0,cs),
(1103,0,o),
(1223,96,o),
(1223,256,cs),
(1223,383,o),
(1152,479,o),
(1033,479,cs),
(938,479,o),
(855,423,o),
(717,255,c),
(702,264,l),
(693,309,o),
(681,345,o),
(666,380,c),
(516,304,l),
(553,215,o),
(573,140,o),
(573,87,cs),
(573,2,o),
(507,-41,o),
(375,-41,cs),
(251,-41,o),
(198,-1,o),
(198,91,cs),
(198,134,o),
(208,197,o),
(223,262,c),
(78,303,l),
(55,224,o),
(40,135,o),
(40,66,cs),
(40,-126,o),
(150,-223,o),
(369,-223,cs),
(567,-223,o),
(689,-137,o),
(723,37,c)
);
},
{
closed = 1;
nodes = (
(886,191,o),
(864,194,o),
(848,199,c),
(916,265,o),
(965,294,o),
(1008,294,cs),
(1044,294,o),
(1066,275,o),
(1066,247,cs),
(1066,212,o),
(1028,191,o),
(917,191,cs)
);
}
);
width = 1257;
}
);
metricLeft = "hamza-ar";
metricRight = "heh-ar";
unicode = 1589;
},
{
glyphname = "sad-ar.fina";
lastChange = "2026-02-02 20:26:02 +0000";
layers = (
{
anchors = (
{
name = bottom;
pos = (359,-210);
},
{
name = "bottom-alt";
pos = (850,0);
},
{
name = top;
pos = (962,323);
}
);
layerId = "AE3FEF6D-3AA7-4252-B349-D2606A6A3B4C";
shapes = (
{
closed = 1;
nodes = (
(682,12,o),
(746,0,o),
(820,0,cs),
(923,0,o),
(998,17,o),
(1044,51,c),
(1082,17,o),
(1138,0,o),
(1208,0,c),
(1208,29,l),
(1143,29,o),
(1097,42,o),
(1065,69,c),
(1090,95,o),
(1103,129,o),
(1103,171,cs),
(1103,259,o),
(1044,323,o),
(962,323,cs),
(877,323,o),
(810,266,o),
(644,65,c),
(634,72,l),
(628,114,o),
(614,165,o),
(593,225,c),
(565,216,l),
(597,127,o),
(609,69,o),
(609,17,cs),
(609,-113,o),
(523,-181,o),
(359,-181,cs),
(201,-181,o),
(129,-123,o),
(129,2,cs),
(129,54,o),
(140,124,o),
(158,193,c),
(131,200,l),
(113,132,o),
(100,56,o),
(100,2,cs),
(100,-139,o),
(188,-210,o),
(359,-210,cs),
(536,-210,o),
(648,-128,o),
(637,37,c)
);
},
{
closed = 1;
nodes = (
(750,29,o),
(705,37,o),
(666,54,c),
(821,239,o),
(885,293,o),
(959,293,cs),
(1026,293,o),
(1073,242,o),
(1073,171,cs),
(1073,75,o),
(990,29,o),
(820,29,cs)
);
}
);
width = 1208;
},
{
anchors = (
{
name = bottom;
pos = (369,-223);
},
{
name = "bottom-alt";
pos = (933,0);
},
{
name = top;
pos = (1033,479);
}
);
layerId = "3FD7D777-D61F-402B-A269-3A472D550581";
shapes = (
{
closed = 1;
nodes = (
(772,13,o),
(833,0,o),
(903,0,cs),
(1000,0,o),
(1078,23,o),
(1132,64,c),
(1175,17,o),
(1209,0,o),
(1261,0,c),
(1261,193,l),
(1244,193,o),
(1229,193,o),
(1216,193,c),
(1220,213,o),
(1223,234,o),
(1223,256,cs),
(1223,383,o),
(1152,479,o),
(1033,479,cs),
(938,479,o),
(855,423,o),
(717,255,c),
(702,264,l),
(693,309,o),
(681,345,o),
(666,380,c),
(516,304,l),
(553,215,o),
(573,140,o),
(573,87,cs),
(573,2,o),
(507,-41,o),
(375,-41,cs),
(251,-41,o),
(198,-1,o),
(198,91,cs),
(198,134,o),
(208,197,o),
(223,262,c),
(78,303,l),
(55,224,o),
(40,135,o),
(40,66,cs),
(40,-126,o),
(150,-223,o),
(369,-223,cs),
(567,-223,o),
(689,-137,o),
(723,37,c)
);
},
{
closed = 1;
nodes = (
(886,191,o),
(862,193,o),
(848,197,c),
(916,265,o),
(965,294,o),
(1008,294,cs),
(1044,294,o),
(1066,275,o),
(1066,249,cs),
(1066,217,o),
(1028,191,o),
(917,191,cs)
);
}
);
width = 1261;
}
);
metricLeft = "hamza-ar";
unicode = 65210;
},
{
glyphname = "sad-ar.medi";
lastChange = "2026-01-27 20:13:53 +0000";
layers = (
{
anchors = (
{
name = bottom;
pos = (431,0);
},
{
name = top;
pos = (573,323);
}
);
layerId = "AE3FEF6D-3AA7-4252-B349-D2606A6A3B4C";
shapes = (
{
closed = 1;
nodes = (
(5,0,ls),
(97,0,o),
(161,45,o),
(175,120,c),
(177,120,l),
(202,38,o),
(297,0,o),
(431,0,cs),
(534,0,o),
(609,17,o),
(655,50,c),
(696,15,o),
(751,0,o),
(818,0,cs),
(819,0,l),
(819,29,l),
(818,29,ls),
(755,29,o),
(710,41,o),
(676,69,c),
(701,95,o),
(714,129,o),
(714,171,cs),
(714,259,o),
(655,323,o),
(573,323,cs),
(488,323,o),
(421,266,o),
(255,65,c),
(210,93,o),
(188,139,o),
(188,209,cs),
(188,267,l),
(159,267,l),
(159,209,ls),
(159,75,o),
(119,29,o),
(5,29,cs),
(0,29,ls),
(-7,29,o),
(-10,25,o),
(-10,15,cs),
(-10,5,o),
(-7,0,o),
(0,0,cs)
);
},
{
closed = 1;
nodes = (
(361,29,o),
(316,37,o),
(277,54,c),
(432,239,o),
(496,293,o),
(570,293,cs),
(637,293,o),
(684,242,o),
(684,171,cs),
(684,75,o),
(601,29,o),
(431,29,cs)
);
}
);
vertWidth = 0;
width = 819;
},
{
anchors = (
{
name = bottom;
pos = (468,0);
},
{
name = top;
pos = (595,479);
}
);
layerId = "3FD7D777-D61F-402B-A269-3A472D550581";
shapes = (
{
closed = 1;
nodes = (
(6,0,ls),
(91,0,o),
(162,27,o),
(209,86,c),
(220,86,l),
(279,24,o),
(366,0,o),
(468,0,cs),
(562,0,o),
(638,21,o),
(693,61,c),
(725,21,o),
(766,0,o),
(824,0,cs),
(831,0,l),
(831,193,l),
(824,193,ls),
(810,193,o),
(797,193,o),
(781,193,c),
(786,214,o),
(788,234,o),
(788,256,cs),
(788,375,o),
(720,479,o),
(595,479,cs),
(501,479,o),
(428,421,o),
(289,261,c),
(280,267,o),
(275,278,o),
(275,295,cs),
(275,379,l),
(100,379,l),
(100,285,ls),
(100,214,o),
(73,193,o),
(6,193,cs),
(0,193,ls),
(-12,193,o),
(-21,167,o),
(-21,96,cs),
(-21,26,o),
(-12,0,o),
(0,0,cs)
);
},
{
closed = 1;
nodes = (
(451,191,o),
(427,193,o),
(413,197,c),
(483,266,o),
(528,294,o),
(570,294,cs),
(608,294,o),
(628,273,o),
(628,249,cs),
(628,223,o),
(605,191,o),
(482,191,cs)
);
}
);
vertWidth = 0;
width = 831;
}
);
unicode = 65212;
},
{
glyphname = "sad-ar.init";
kernRight = sad;
lastChange = "2026-01-27 21:01:56 +0000";
layers = (
{
anchors = (
{
name = bottom;
pos = (431,0);
},
{
name = top;
pos = (573,323);
}
);
layerId = "AE3FEF6D-3AA7-4252-B349-D2606A6A3B4C";
shapes = (
{
closed = 1;
nodes = (
(5,0,ls),
(97,0,o),
(161,45,o),
(175,120,c),
(177,120,l),
(202,38,o),
(297,0,o),
(431,0,cs),
(620,0,o),
(714,57,o),
(714,171,cs),
(714,259,o),
(655,323,o),
(573,323,cs),
(488,323,o),
(421,266,o),
(255,65,c),
(210,93,o),
(188,139,o),
(188,209,cs),
(188,267,l),
(159,267,l),
(159,209,ls),
(159,75,o),
(119,29,o),
(5,29,cs),
(0,29,ls),
(-7,29,o),
(-10,25,o),
(-10,15,cs),
(-10,5,o),
(-7,0,o),
(0,0,cs)
);
},
{
closed = 1;
nodes = (
(361,29,o),
(316,37,o),
(277,54,c),
(432,239,o),
(496,293,o),
(570,293,cs),
(637,293,o),
(684,242,o),
(684,171,cs),
(684,75,o),
(601,29,o),
(431,29,cs)
);
}
);
width = 804;
},
{
anchors = (
{
name = bottom;
pos = (468,0);
},
{
name = top;
pos = (595,479);
}
);
layerId = "3FD7D777-D61F-402B-A269-3A472D550581";
shapes = (
{
closed = 1;
nodes = (
(6,0,ls),
(91,0,o),
(162,27,o),
(209,86,c),
(220,86,l),
(279,24,o),
(366,0,o),
(468,0,cs),
(667,0,o),
(788,97,o),
(788,256,cs),
(788,375,o),
(720,479,o),
(595,479,cs),
(501,479,o),
(428,421,o),
(289,261,c),
(280,267,o),
(275,278,o),
(275,295,cs),
(275,379,l),
(100,379,l),
(100,285,ls),
(100,214,o),
(73,193,o),
(6,193,cs),
(0,193,ls),
(-12,193,o),
(-21,167,o),
(-21,96,cs),
(-21,26,o),
(-12,0,o),
(0,0,cs)
);
},
{
closed = 1;
nodes = (
(451,191,o),
(427,193,o),
(413,197,c),
(483,266,o),
(528,294,o),
(570,294,cs),
(608,294,o),
(628,273,o),
(628,249,cs),
(628,223,o),
(605,191,o),
(482,191,cs)
);
}
);
vertWidth = 0;
width = 822;
}
);
metricRight = "heh-ar";
unicode = 65211;
},
{
glyphname = "tah-ar";
kernRight = sad;
lastChange = "2026-01-26 18:08:19 +0000";
layers = (
{
anchors = (
{
name = bottom;
pos = (430,0);
},
{
name = top;
pos = (572,323);
}
);
layerId = "AE3FEF6D-3AA7-4252-B349-D2606A6A3B4C";
shapes = (
{
closed = 1;
nodes = (
(430,0,ls),
(619,0,o),
(713,57,o),
(713,171,cs),
(713,259,o),
(654,323,o),
(572,323,cs),
(497,323,o),
(432,279,o),
(287,103,c),
(282,106,l),
(291,150,o),
(292,188,o),
(292,235,cs),
(292,614,l),
(263,614,l),
(263,76,l),
(223,29,l),
(100,29,l),
(100,0,l)
);
},
{
closed = 1;
nodes = (
(431,239,o),
(495,293,o),
(569,293,cs),
(636,293,o),
(683,242,o),
(683,171,cs),
(683,75,o),
(600,29,o),
(430,29,cs),
(259,29,l)
);
}
);
vertWidth = 0;
width = 803;
},
{
anchors = (
{
name = bottom;
pos = (383,0);
},
{
name = top;
pos = (540,479);
}
);
layerId = "3FD7D777-D61F-402B-A269-3A472D550581";
shapes = (
{
closed = 1;
nodes = (
(383,0,ls),
(582,0,o),
(703,97,o),
(703,256,cs),
(703,375,o),
(635,479,o),
(510,479,cs),
(441,479,o),
(385,449,o),
(304,369,c),
(297,376,l),
(322,425,o),
(332,471,o),
(332,521,cs),
(332,717,l),
(157,717,l),
(157,202,l),
(150,193,l),
(40,193,l),
(40,0,l)
);
},
{
closed = 1;
nodes = (
(398,263,o),
(443,294,o),
(485,294,cs),
(523,294,o),
(543,273,o),
(543,249,cs),
(543,223,o),
(520,193,o),
(397,193,cs),
(327,193,l)
);
}
);
vertWidth = 0;
width = 737;
}
);
metricLeft = "hamza-ar";
metricRight = "heh-ar";
unicode = 1591;
},
{
glyphname = "tah-ar.fina";
lastChange = "2026-01-26 18:08:19 +0000";
layers = (
{
anchors = (
{
name = bottom;
pos = (430,0);
},
{
name = top;
pos = (572,323);
}
);
layerId = "AE3FEF6D-3AA7-4252-B349-D2606A6A3B4C";
shapes = (
{
closed = 1;
nodes = (
(430,0,ls),
(545,0,o),
(625,21,o),
(670,63,c),
(708,29,o),
(755,0,o),
(834,0,c),
(834,29,l),
(766,29,o),
(719,49,o),
(687,82,c),
(705,107,o),
(713,136,o),
(713,171,cs),
(713,259,o),
(654,323,o),
(572,323,cs),
(497,323,o),
(432,279,o),
(287,103,c),
(282,106,l),
(291,150,o),
(292,188,o),
(292,235,cs),
(292,614,l),
(263,614,l),
(263,76,l),
(223,29,l),
(100,29,l),
(100,0,l)
);
},
{
closed = 1;
nodes = (
(431,239,o),
(495,293,o),
(569,293,cs),
(636,293,o),
(683,242,o),
(683,171,cs),
(683,75,o),
(600,29,o),
(430,29,cs),
(259,29,l)
);
}
);
width = 834;
},
{
anchors = (
{
name = bottom;
pos = (383,0);
},
{
name = top;
pos = (540,479);
}
);
layerId = "3FD7D777-D61F-402B-A269-3A472D550581";
shapes = (
{
closed = 1;
nodes = (
(383,0,ls),
(480,0,o),
(556,22,o),
(614,66,c),
(646,21,o),
(685,0,o),
(733,0,c),
(733,193,l),
(721,193,o),
(708,196,o),
(697,200,c),
(701,218,o),
(703,236,o),
(703,256,cs),
(703,375,o),
(635,479,o),
(510,479,cs),
(441,479,o),
(385,449,o),
(304,369,c),
(297,376,l),
(322,425,o),
(332,471,o),
(332,521,cs),
(332,717,l),
(157,717,l),
(157,202,l),
(150,193,l),
(40,193,l),
(40,0,l)
);
},
{
closed = 1;
nodes = (
(398,263,o),
(443,294,o),
(485,294,cs),
(523,294,o),
(543,273,o),
(543,249,cs),
(543,223,o),
(520,193,o),
(397,193,cs),
(327,193,l)
);
}
);
width = 733;
}
);
metricLeft = "hamza-ar";
unicode = 65218;
},
{
glyphname = "tah-ar.medi";
lastChange = "2026-01-26 18:08:19 +0000";
layers = (
{
anchors = (
{
name = bottom;
pos = (303,0);
},
{
name = top;
pos = (436,323);
}
);
layerId = "AE3FEF6D-3AA7-4252-B349-D2606A6A3B4C";
shapes = (
{
closed = 1;
nodes = (
(294,0,ls),
(410,0,o),
(490,21,o),
(535,64,c),
(574,28,o),
(620,0,o),
(699,0,c),
(699,29,l),
(632,29,o),
(584,49,o),
(551,83,c),
(569,108,o),
(577,136,o),
(577,171,cs),
(577,259,o),
(518,323,o),
(436,323,cs),
(361,323,o),
(296,279,o),
(151,103,c),
(146,106,l),
(155,150,o),
(156,188,o),
(156,235,cs),
(156,614,l),
(127,614,l),
(127,76,l),
(87,29,l),
(0,29,l),
(-8,29,o),
(-10,23,o),
(-10,15,cs),
(-10,6,o),
(-8,0,o),
(0,0,c)
);
},
{
closed = 1;
nodes = (
(295,239,o),
(359,293,o),
(433,293,cs),
(500,293,o),
(547,242,o),
(547,171,cs),
(547,75,o),
(464,29,o),
(294,29,cs),
(123,29,l)
);
}
);
vertWidth = 0;
width = 699;
},
{
anchors = (
{
name = bottom;
pos = (283,0);
},
{
name = top;
pos = (460,479);
}
);
layerId = "3FD7D777-D61F-402B-A269-3A472D550581";
shapes = (
{
closed = 1;
nodes = (
(283,0,ls),
(380,0,o),
(456,22,o),
(514,66,c),
(546,21,o),
(584,0,o),
(632,0,c),
(632,193,l),
(621,193,o),
(607,197,o),
(597,200,c),
(601,218,o),
(603,236,o),
(603,256,cs),
(603,375,o),
(535,479,o),
(410,479,cs),
(341,479,o),
(285,449,o),
(204,369,c),
(197,376,l),
(221,424,o),
(232,471,o),
(232,521,cs),
(232,717,l),
(57,717,l),
(57,202,l),
(50,193,l),
(0,193,l),
(-10,193,o),
(-21,177,o),
(-21,97,cs),
(-21,18,o),
(-9,0,o),
(0,0,c)
);
},
{
closed = 1;
nodes = (
(297,262,o),
(343,294,o),
(385,294,cs),
(423,294,o),
(443,273,o),
(443,249,cs),
(443,223,o),
(420,193,o),
(297,193,cs),
(227,193,l)
);
}
);
vertWidth = 0;
width = 632;
}
);
unicode = 65220;
},
{
glyphname = "tah-ar.init";
kernRight = sad;
lastChange = "2026-01-26 18:08:19 +0000";
layers = (
{
anchors = (
{
name = bottom;
pos = (293,0);
},
{
name = top;
pos = (436,323);
}
);
layerId = "AE3FEF6D-3AA7-4252-B349-D2606A6A3B4C";
shapes = (
{
closed = 1;
nodes = (
(294,0,ls),
(483,0,o),
(577,57,o),
(577,171,cs),
(577,259,o),
(518,323,o),
(436,323,cs),
(361,323,o),
(296,279,o),
(151,103,c),
(146,106,l),
(155,150,o),
(156,188,o),
(156,235,cs),
(156,614,l),
(127,614,l),
(127,76,l),
(87,29,l),
(0,29,ls),
(-8,29,o),
(-10,23,o),
(-10,15,cs),
(-10,6,o),
(-8,0,o),
(0,0,cs)
);
},
{
closed = 1;
nodes = (
(295,239,o),
(359,293,o),
(433,293,cs),
(500,293,o),
(547,242,o),
(547,171,cs),
(547,75,o),
(464,29,o),
(294,29,cs),
(123,29,l)
);
}
);
width = 667;
},
{
anchors = (
{
name = bottom;
pos = (283,0);
},
{
name = top;
pos = (460,479);
}
);
layerId = "3FD7D777-D61F-402B-A269-3A472D550581";
shapes = (
{
closed = 1;
nodes = (
(283,0,ls),
(482,0,o),
(603,97,o),
(603,256,cs),
(603,375,o),
(535,479,o),
(410,479,cs),
(341,479,o),
(285,449,o),
(204,369,c),
(197,376,l),
(221,424,o),
(232,471,o),
(232,521,cs),
(232,717,l),
(57,717,l),
(57,202,l),
(50,193,l),
(0,193,ls),
(-10,193,o),
(-21,177,o),
(-21,97,cs),
(-21,18,o),
(-9,0,o),
(0,0,cs)
);
},
{
closed = 1;
nodes = (
(297,262,o),
(343,294,o),
(385,294,cs),
(423,294,o),
(443,273,o),
(443,249,cs),
(443,223,o),
(420,193,o),
(297,193,cs),
(227,193,l)
);
}
);
width = 637;
}
);
metricRight = "heh-ar";
unicode = 65219;
},
{
color = 3;
glyphname = "ain-ar";
lastChange = "2026-02-02 19:51:14 +0000";
layers = (
{
anchors = (
{
name = bottom;
pos = (403,-394);
},
{
name = center;
pos = (407,-126);
},
{
name = top;
pos = (352,464);
}
);
layerId = "AE3FEF6D-3AA7-4252-B349-D2606A6A3B4C";
shapes = (
{
closed = 1;
nodes = (
(483,-394,o),
(562,-379,o),
(628,-351,c),
(616,-322,l),
(560,-348,o),
(484,-363,o),
(404,-363,cs),
(229,-363,o),
(129,-292,o),
(129,-169,cs),
(129,1,o),
(289,110,o),
(530,115,c),
(529,144,l),
(489,142,o),
(447,140,o),
(414,140,cs),
(273,140,o),
(198,187,o),
(198,276,cs),
(198,364,o),
(268,434,o),
(355,434,cs),
(403,434,o),
(444,415,o),
(480,376,c),
(499,398,l),
(461,440,o),
(409,464,o),
(352,464,cs),
(251,464,o),
(169,381,o),
(169,278,cs),
(169,185,o),
(239,126,o),
(356,118,c),
(356,114,l),
(203,79,o),
(100,-31,o),
(100,-172,cs),
(100,-310,o),
(215,-394,o),
(403,-394,cs)
);
}
);
vertWidth = 0;
width = 631;
},
{
anchors = (
{
name = bottom;
pos = (406,-406);
},
{
name = center;
pos = (442,-73);
},
{
name = top;
pos = (364,551);
}
);
layerId = "3FD7D777-D61F-402B-A269-3A472D550581";
shapes = (
{
closed = 1;
nodes = (
(498,-406,o),
(589,-389,o),
(670,-354,c),
(608,-181,l),
(556,-199,o),
(479,-210,o),
(413,-210,cs),
(283,-210,o),
(209,-179,o),
(209,-107,cs),
(209,-6,o),
(340,55,o),
(548,72,c),
(553,251,l),
(520,247,o),
(442,236,o),
(391,236,cs),
(308,236,o),
(259,261,o),
(259,304,cs),
(259,345,o),
(308,376,o),
(362,376,cs),
(397,376,o),
(427,364,o),
(458,342,c),
(546,461,l),
(492,520,o),
(444,551,o),
(364,551,cs),
(206,551,o),
(114,417,o),
(114,296,cs),
(114,234,o),
(139,175,o),
(194,141,c),
(194,134,l),
(91,63,o),
(40,-27,o),
(40,-136,cs),
(40,-309,o),
(182,-406,o),
(406,-406,cs)
);
}
);
vertWidth = 0;
width = 599;
}
);
metricLeft = "hamza-ar";
unicode = 1593;
},
